<svg width="50" height="49" viewBox="0 0 50 49" fill="none" xmlns="http://www.w3.org/2000/svg">
<path d="M4.52366e-07 1.30951C4.61102e-07 0.576964 0.594118 -0.01869 1.32641 0.000448664C12.9805 0.305032 24.1902 4.61595 33.0548 12.2291C41.9194 19.8422 47.8738 30.2722 49.9349 41.7467C50.0644 42.4677 49.5653 43.1449 48.8412 43.2556L11.3417 48.9847C10.6175 49.0953 9.94924 48.5941 9.74516 47.8906C9.19853 46.0061 8.11387 44.3105 6.61095 43.0198C5.10804 41.729 3.26809 40.9129 1.32266 40.6571C0.596365 40.5616 -8.73549e-09 39.9767 0 39.2442L4.52366e-07 1.30951Z" fill="#FFD237"/>
</svg>
