<svg width="25" height="24" viewBox="0 0 25 24" fill="none" xmlns="http://www.w3.org/2000/svg">
<path d="M7.15561 10.75H5.11117C2.63739 10.75 1.27783 9.42 1.27783 7V5C1.27783 2.58 2.63739 1.25 5.11117 1.25H7.15561C9.62939 1.25 10.9889 2.58 10.9889 5V7C10.9889 9.42 9.62939 10.75 7.15561 10.75ZM5.11117 2.75C3.49605 2.75 2.81117 3.42 2.81117 5V7C2.81117 8.58 3.49605 9.25 5.11117 9.25H7.15561C8.77072 9.25 9.45561 8.58 9.45561 7V5C9.45561 3.42 8.77072 2.75 7.15561 2.75H5.11117Z" fill="white"/>
<path d="M19.4222 10.75H17.3778C14.904 10.75 13.5444 9.42 13.5444 7V5C13.5444 2.58 14.904 1.25 17.3778 1.25H19.4222C21.896 1.25 23.2555 2.58 23.2555 5V7C23.2555 9.42 21.896 10.75 19.4222 10.75ZM17.3778 2.75C15.7627 2.75 15.0778 3.42 15.0778 5V7C15.0778 8.58 15.7627 9.25 17.3778 9.25H19.4222C21.0373 9.25 21.7222 8.58 21.7222 7V5C21.7222 3.42 21.0373 2.75 19.4222 2.75H17.3778Z" fill="white"/>
<path d="M19.4222 22.75H17.3778C14.904 22.75 13.5444 21.42 13.5444 19V17C13.5444 14.58 14.904 13.25 17.3778 13.25H19.4222C21.896 13.25 23.2555 14.58 23.2555 17V19C23.2555 21.42 21.896 22.75 19.4222 22.75ZM17.3778 14.75C15.7627 14.75 15.0778 15.42 15.0778 17V19C15.0778 20.58 15.7627 21.25 17.3778 21.25H19.4222C21.0373 21.25 21.7222 20.58 21.7222 19V17C21.7222 15.42 21.0373 14.75 19.4222 14.75H17.3778Z" fill="white"/>
<path d="M7.15561 22.75H5.11117C2.63739 22.75 1.27783 21.42 1.27783 19V17C1.27783 14.58 2.63739 13.25 5.11117 13.25H7.15561C9.62939 13.25 10.9889 14.58 10.9889 17V19C10.9889 21.42 9.62939 22.75 7.15561 22.75ZM5.11117 14.75C3.49605 14.75 2.81117 15.42 2.81117 17V19C2.81117 20.58 3.49605 21.25 5.11117 21.25H7.15561C8.77072 21.25 9.45561 20.58 9.45561 19V17C9.45561 15.42 8.77072 14.75 7.15561 14.75H5.11117Z" fill="white"/>
</svg>
