<svg width="16" height="15" viewBox="0 0 16 15" fill="none" xmlns="http://www.w3.org/2000/svg">
<g clip-path="url(#clip0_111_364)">
<path d="M4.25 11.875C4.25 12.5625 4.8125 13.125 5.5 13.125H10.5C11.1875 13.125 11.75 12.5625 11.75 11.875V5.625C11.75 4.9375 11.1875 4.375 10.5 4.375H5.5C4.8125 4.375 4.25 4.9375 4.25 5.625V11.875ZM11.75 2.5H10.1875L9.74375 2.05625C9.63125 1.94375 9.46875 1.875 9.30625 1.875H6.69375C6.53125 1.875 6.36875 1.94375 6.25625 2.05625L5.8125 2.5H4.25C3.90625 2.5 3.625 2.78125 3.625 3.125C3.625 3.46875 3.90625 3.75 4.25 3.75H11.75C12.0937 3.75 12.375 3.46875 12.375 3.125C12.375 2.78125 12.0937 2.5 11.75 2.5Z" fill="#E53E3E"/>
</g>
<defs>
<clipPath id="clip0_111_364">
<rect width="15" height="15" fill="white" transform="translate(0.5)"/>
</clipPath>
</defs>
</svg>
