<svg width="332" height="107" viewBox="0 0 332 107" fill="none" xmlns="http://www.w3.org/2000/svg">
<path d="M326.453 76.4257C329.517 76.4257 332 73.9423 332 70.879C332 67.8156 329.517 65.3323 326.453 65.3323C323.39 65.3323 320.907 67.8156 320.907 70.879C320.907 73.9423 323.39 76.4257 326.453 76.4257Z" fill="#FFD237"/>
<path d="M89.9932 39.0178C92.4678 38.0274 95.116 37.5437 97.7809 37.595V47.8359C96.5464 47.7398 95.719 47.6923 95.2922 47.6923C93.9322 47.6141 92.5704 47.81 91.2876 48.2683C90.0048 48.7266 88.8271 49.438 87.8246 50.3602C86.0222 52.1371 85.1211 54.8037 85.1211 58.3601V76.4244H74.0264V38.1641H84.6244V43.2141C85.9842 41.3387 87.8449 39.8844 89.9932 39.0178Z" fill="white"/>
<path d="M145.147 38.1642V76.427H134.55V72.016C131.798 75.3344 127.815 76.994 122.602 76.9948C119.189 77.0425 115.821 76.2099 112.823 74.5773C109.922 72.9809 107.54 70.5864 105.959 67.6775C104.323 64.4611 103.47 60.9035 103.47 57.2949C103.47 53.6863 104.323 50.1288 105.959 46.9123C107.54 44.0033 109.922 41.6091 112.823 40.0139C115.82 38.3805 119.188 37.5473 122.602 37.595C127.483 37.595 131.3 39.136 134.051 42.2181V38.1628L145.147 38.1642ZM131.492 65.0108C133.285 62.8391 134.265 60.1109 134.265 57.2949C134.265 54.4788 133.285 51.7508 131.492 49.579C129.628 47.7332 127.11 46.6977 124.487 46.6977C121.863 46.6977 119.346 47.7332 117.482 49.579C115.689 51.7508 114.709 54.4788 114.709 57.2949C114.709 60.1109 115.689 62.8391 117.482 65.0108C119.346 66.8567 121.863 67.8921 124.487 67.8921C127.11 67.8921 129.628 66.8567 131.492 65.0108Z" fill="white"/>
<path d="M168.755 38.1641H157.662V76.4257H168.755V38.1641Z" fill="white"/>
<path d="M163.208 31.2314C166.272 31.2314 168.755 28.7481 168.755 25.6847C168.755 22.6214 166.272 20.1381 163.208 20.1381C160.145 20.1381 157.662 22.6214 157.662 25.6847C157.662 28.7481 160.145 31.2314 163.208 31.2314Z" fill="#FFD237"/>
<path d="M216.086 41.8623C219.002 44.7072 220.46 48.9268 220.459 54.5209V76.4257H209.367V56.2284C209.556 53.7971 208.847 51.3808 207.375 49.4367C206.637 48.6647 205.739 48.064 204.744 47.677C203.749 47.29 202.681 47.1261 201.616 47.1969C200.382 47.1375 199.149 47.3379 197.997 47.785C196.846 48.2321 195.8 48.916 194.93 49.7924C193.27 51.5245 192.44 54.0962 192.44 57.5077V76.427H181.346V38.1642H191.942V42.6436C193.46 40.9993 195.334 39.7224 197.42 38.9098C199.706 38.0121 202.145 37.5647 204.601 37.5923C206.704 37.5006 208.803 37.8312 210.776 38.5646C212.749 39.298 214.554 40.4193 216.086 41.8623Z" fill="white"/>
<path d="M257.76 67.2163C259.368 66.5789 260.832 65.6235 262.063 64.4074L267.965 70.8078C264.364 74.936 259.101 77.0001 252.178 77.0001C248.214 77.0797 244.289 76.2144 240.726 74.4758C237.549 72.9226 234.884 70.4916 233.046 67.4706C231.22 64.3966 230.285 60.8756 230.344 57.3008C230.294 53.743 231.216 50.2389 233.011 47.1665C234.755 44.1878 237.29 41.7507 240.336 40.1258C243.564 38.4128 247.172 37.5445 250.826 37.6016C254.282 37.5555 257.698 38.347 260.782 39.9085C263.743 41.4239 266.219 43.7401 267.928 46.5934C269.765 49.7268 270.689 53.3115 270.596 56.9425L242.292 62.418C243.028 64.2381 244.372 65.7464 246.096 66.6853C248.066 67.6885 250.258 68.1763 252.467 68.103C254.271 68.1351 256.065 67.8345 257.76 67.2163ZM243.999 48.6896C242.151 50.7312 241.158 53.4045 241.225 56.1572L259.859 52.5314C259.387 50.6156 258.253 48.9279 256.658 47.766C254.96 46.5553 252.912 45.9319 250.827 45.9901C249.564 45.9415 248.305 46.1562 247.129 46.6208C245.953 47.0853 244.887 47.7907 243.999 48.6896Z" fill="white"/>
<path d="M283.894 75.8209C281.333 75.2359 278.883 74.2392 276.641 72.8697L280.339 64.9041C282.262 66.0904 284.348 66.9888 286.532 67.5707C288.844 68.244 291.238 68.5912 293.646 68.6023C298.34 68.6023 300.687 67.4407 300.687 65.1175C300.674 64.5686 300.478 64.0397 300.13 63.6147C299.782 63.1897 299.303 62.8929 298.767 62.7711C296.847 62.1607 294.869 61.7553 292.864 61.5616C290.244 61.1976 287.654 60.6508 285.111 59.9253C283.089 59.3196 281.261 58.1912 279.814 56.6539C278.218 54.8063 277.413 52.4049 277.574 49.9689C277.542 47.6506 278.279 45.387 279.671 43.5329C281.255 41.5247 283.376 40.0079 285.789 39.1588C288.829 38.0544 292.048 37.5242 295.282 37.5949C297.997 37.5965 300.703 37.8943 303.353 38.483C305.685 38.9468 307.929 39.7751 310.003 40.9374L306.305 48.8319C302.942 46.9373 299.142 45.9565 295.282 45.9874C293.449 45.8771 291.617 46.2191 289.948 46.9834C289.44 47.1993 289.004 47.554 288.689 48.0069C288.375 48.4598 288.195 48.9924 288.169 49.5433C288.164 50.1137 288.35 50.6693 288.699 51.121C289.047 51.5726 289.537 51.894 290.09 52.0334C292.082 52.6709 294.129 53.123 296.205 53.3839C298.797 53.7862 301.362 54.344 303.887 55.0544C305.877 55.6473 307.67 56.7651 309.078 58.2903C310.635 60.102 311.425 62.4487 311.281 64.833C311.308 67.124 310.556 69.3562 309.148 71.1636C307.521 73.1562 305.363 74.6475 302.924 75.4652C299.805 76.5488 296.518 77.0668 293.217 76.9948C290.072 76.9998 286.939 76.6054 283.894 75.8209Z" fill="white"/>
<path d="M54.0085 10.9959H36.3908L32.3566 10.2199L32.188 0H62.451V2.55073C62.4515 3.65969 62.2335 4.75789 61.8095 5.78257C61.3854 6.80725 60.7636 7.73831 59.9796 8.52259C59.1955 9.30687 58.2646 9.92899 57.2401 10.3534C56.2155 10.7778 55.1174 10.9961 54.0085 10.9959Z" fill="white"/>
<path d="M31.2182 62.4628C25.0428 62.4615 19.0065 60.6291 13.8725 57.1973C8.73843 53.7654 4.73729 48.8883 2.37497 43.1826C0.012646 37.4769 -0.604765 31.1989 0.600794 25.1423C1.80635 19.0857 4.78074 13.5226 9.14787 9.15644C13.515 4.79023 19.0788 1.81698 25.1356 0.612699C31.1924 -0.591582 37.4703 0.0271271 43.1756 2.39065C48.8808 4.75418 53.757 8.75638 57.1877 13.8911C60.6185 19.0259 62.4496 25.0626 62.4496 31.238C62.4388 39.5172 59.1447 47.454 53.2898 53.3076C47.4349 59.1613 39.4974 62.4538 31.2182 62.4628ZM31.2182 11.8707C27.3893 11.8707 23.6464 13.0061 20.4627 15.1334C17.2791 17.2606 14.7978 20.2841 13.3325 23.8216C11.8672 27.3591 11.4839 31.2516 12.2308 35.007C12.9778 38.7623 14.8216 42.2118 17.5291 44.9193C20.2365 47.6267 23.6861 49.4705 27.4414 50.2175C31.1968 50.9645 35.0893 50.5811 38.6267 49.1158C42.1642 47.6506 45.1877 45.1692 47.315 41.9856C49.4422 38.802 50.5776 35.0591 50.5776 31.2301C50.5717 26.0977 48.5301 21.177 44.9008 17.548C41.2714 13.9189 36.3507 11.8763 31.2182 11.8707Z" fill="white"/>
<path d="M15.1765 76.2886H61.8398V75.6299C61.837 72.9458 60.7695 70.3724 58.8715 68.4745C56.9736 66.5765 54.4002 65.509 51.7161 65.5062H14.826C11.7037 65.5051 8.66606 66.5216 6.17327 68.4017C3.68048 70.2818 1.86836 72.9231 1.01142 75.9256C0.154477 78.928 0.299419 82.1279 1.42426 85.0406C2.54911 87.9532 4.59257 90.42 7.24511 92.067C9.51401 93.5009 12.142 94.2641 14.826 94.2686H27.225L27.2145 93.6099C27.1731 90.9992 26.1408 88.5019 24.3268 86.6238C22.5129 84.7458 20.0529 83.6274 17.4452 83.4954H14.826C14.3024 83.4926 13.7857 83.3753 13.3121 83.1519C12.8386 82.9284 12.4196 82.6042 12.0845 82.2019C11.7494 81.7995 11.5063 81.3287 11.3722 80.8225C11.2381 80.3163 11.2163 79.787 11.3083 79.2715C11.5112 78.405 12.0068 77.6351 12.7115 77.0916C13.4163 76.5482 14.2869 76.2646 15.1765 76.2886Z" fill="white"/>
<path d="M31.2197 87.5085H39.8665C41.7604 87.4717 43.6367 87.8777 45.346 88.6943C46.8711 89.4287 48.1539 90.5845 49.0429 92.0249C49.909 93.5514 50.3643 95.2764 50.3643 97.0314C50.3643 98.7865 49.909 100.511 49.0429 102.038C48.1546 103.479 46.8715 104.635 45.346 105.369C43.6369 106.185 41.7604 106.591 39.8665 106.554H31.2197V87.5085ZM39.6517 102.923C41.3182 103.008 42.9518 102.438 44.2037 101.334C45.2958 100.165 45.9033 98.6248 45.9033 97.0248C45.9033 95.4248 45.2958 93.8845 44.2037 92.7153C42.9517 91.6102 41.3169 91.039 39.6491 91.1237H35.6254V102.925L39.6517 102.923Z" fill="#FFD237"/>
<path d="M52.293 87.5085H55.9095L55.6104 95.2304H52.5657L52.293 87.5085Z" fill="#FFD237"/>
<path d="M74.207 103.008V106.542H59.4707V87.5085H73.8552V91.0421H63.8422V95.1751H72.6787V98.6006H63.8422V103.006L74.207 103.008Z" fill="#FFD237"/>
<path d="M95.1715 87.5085V106.541H91.555L82.0689 94.9854V106.541H77.7212V87.5085H81.3641L90.8251 99.0643V87.5085H95.1715Z" fill="#FFD237"/>
<path d="M103.628 91.0974H97.5361V87.5085H114.122V91.0974H108.031V106.541H103.627L103.628 91.0974Z" fill="#FFD237"/>
<path d="M128.615 106.541L124.944 101.238H120.893V106.541H116.488V87.5085H124.727C126.234 87.4729 127.731 87.76 129.118 88.3504C130.287 88.8514 131.284 89.683 131.986 90.743C132.675 91.8409 133.025 93.1178 132.991 94.4135C133.043 95.6975 132.694 96.9658 131.993 98.0425C131.291 99.1192 130.272 99.951 129.077 100.423L133.347 106.541H128.615ZM127.5 91.9538C126.624 91.3256 125.557 91.0227 124.482 91.0974H120.893V97.7323H124.482C125.559 97.8073 126.628 97.4988 127.5 96.8614C127.828 96.5423 128.088 96.1607 128.266 95.7392C128.444 95.3178 128.535 94.865 128.535 94.4076C128.535 93.9502 128.444 93.4974 128.266 93.0759C128.088 92.6545 127.828 92.2729 127.5 91.9538Z" fill="#FFD237"/>
<path d="M151.215 103.008V106.542H136.472V87.5085H150.857V91.0421H140.844V95.1751H149.681V98.6006H140.844V103.006L151.215 103.008Z" fill="#FFD237"/>
<path d="M167.347 88.3505C168.516 88.8515 169.513 89.6831 170.215 90.743C170.873 91.8518 171.22 93.1172 171.22 94.4064C171.22 95.6955 170.873 96.9609 170.215 98.0696C169.518 99.1343 168.519 99.9673 167.347 100.462C165.958 101.044 164.461 101.327 162.956 101.292H159.122V106.54H154.717V87.5086H162.956C164.463 87.4731 165.96 87.7602 167.347 88.3505ZM165.729 96.8483C166.076 96.5492 166.35 96.1742 166.529 95.7522C166.709 95.3302 166.788 94.8726 166.762 94.4149C166.79 93.9529 166.712 93.4907 166.533 93.0639C166.353 92.6371 166.078 92.2573 165.729 91.9538C164.853 91.3257 163.786 91.0228 162.711 91.0974H159.122V97.7047H162.711C163.786 97.7794 164.853 97.4765 165.729 96.8483Z" fill="#FFD237"/>
<path d="M186.477 106.541L182.807 101.238H178.757V106.541H174.352V87.5085H182.591C184.098 87.4729 185.595 87.76 186.982 88.3504C188.152 88.8514 189.149 89.6829 189.852 90.743C190.54 91.8412 190.89 93.1179 190.857 94.4135C190.908 95.6972 190.558 96.9648 189.857 98.0413C189.156 99.1177 188.137 99.9498 186.943 100.423L191.212 106.541H186.477ZM185.362 91.9538C184.487 91.3254 183.42 91.0224 182.345 91.0974H178.757V97.7323H182.346C183.423 97.8075 184.492 97.499 185.363 96.8614C185.691 96.5423 185.951 96.1607 186.129 95.7393C186.307 95.3178 186.399 94.865 186.399 94.4076C186.399 93.9502 186.307 93.4974 186.129 93.0759C185.951 92.6545 185.69 92.2729 185.362 91.9538Z" fill="#FFD237"/>
<path d="M209.071 103.008V106.542H194.334V87.5085H208.715V91.0421H198.709V95.1751H207.545V98.6006H198.709V103.006L209.071 103.008Z" fill="#FFD237"/>
<path d="M230.035 87.5085V106.541H226.418L216.932 94.9854V106.541H212.584V87.5085H216.229L225.691 99.0643V87.5085H230.035Z" fill="#FFD237"/>
<path d="M249.286 103.008V106.542H234.548V87.5085H248.933V91.0421H238.926V95.1751H247.763V98.6006H238.926V103.006L249.286 103.008Z" fill="#FFD237"/>
<path d="M254.9 104.611C254.106 103.746 253.495 102.728 253.105 101.621C252.715 100.513 252.553 99.3377 252.63 98.1658V87.5072H257.034V98.0025C257.034 101.41 258.448 103.114 261.277 103.114C261.861 103.153 262.447 103.062 262.992 102.848C263.537 102.634 264.028 102.303 264.431 101.877C265.246 100.758 265.632 99.3826 265.518 98.0025V87.5072H269.865V98.1658C269.809 99.874 269.268 101.531 268.305 102.943C267.342 104.355 265.997 105.464 264.427 106.14C262.857 106.816 261.128 107.031 259.44 106.76C257.752 106.49 256.177 105.744 254.897 104.611H254.9Z" fill="#FFD237"/>
<path d="M286.346 106.541L282.675 101.238H278.624V106.541H274.22V87.5086H282.457C283.964 87.4731 285.462 87.7602 286.849 88.3505C288.036 88.8446 289.044 89.6901 289.736 90.7735C290.428 91.8569 290.773 93.1262 290.723 94.411C290.773 95.6948 290.423 96.9625 289.722 98.039C289.02 99.1155 288.002 99.9475 286.807 100.42L291.076 106.539L286.346 106.541ZM285.233 91.9538C284.357 91.3259 283.289 91.023 282.214 91.0974H278.625V97.7324H282.209C283.286 97.8072 284.355 97.4987 285.227 96.8615C285.554 96.5419 285.814 96.1601 285.991 95.7388C286.169 95.3174 286.26 94.8648 286.26 94.4077C286.26 93.9505 286.169 93.498 285.991 93.0766C285.814 92.6552 285.554 92.2735 285.227 91.9538H285.233Z" fill="#FFD237"/>
<path d="M296.093 106.255C294.876 105.938 293.729 105.398 292.707 104.665L294.202 101.348C295.089 101.981 296.071 102.467 297.111 102.789C298.2 103.145 299.338 103.328 300.483 103.332C301.438 103.395 302.393 103.203 303.25 102.774C303.52 102.632 303.745 102.419 303.904 102.158C304.062 101.897 304.146 101.599 304.147 101.294C304.151 101.078 304.105 100.864 304.014 100.668C303.923 100.472 303.788 100.3 303.62 100.164C303.217 99.8389 302.756 99.5942 302.26 99.4437C301.706 99.2628 300.959 99.0634 300.02 98.8456C298.815 98.572 297.628 98.2271 296.463 97.8127C295.543 97.4701 294.724 96.8994 294.085 96.154C293.39 95.2956 293.037 94.2108 293.093 93.1079C293.082 92.0384 293.395 90.9905 293.992 90.1027C294.667 89.1435 295.607 88.4018 296.696 87.9683C298.1 87.4051 299.604 87.136 301.115 87.1778C302.315 87.1767 303.509 87.3232 304.673 87.6139C305.747 87.8691 306.774 88.291 307.717 88.8642L306.358 92.2094C304.762 91.2582 302.945 90.7425 301.088 90.714C300.138 90.646 299.189 90.8537 298.355 91.3121C298.083 91.4758 297.858 91.7078 297.703 91.9851C297.548 92.2624 297.468 92.5754 297.471 92.8931C297.471 93.2101 297.569 93.5193 297.751 93.7786C297.934 94.038 298.191 94.2349 298.49 94.3424C299.493 94.7597 300.537 95.074 301.604 95.2804C302.809 95.5542 303.997 95.8991 305.161 96.3134C306.077 96.6521 306.894 97.2125 307.539 97.9444C308.236 98.7903 308.59 99.8671 308.532 100.962C308.539 102.024 308.221 103.063 307.62 103.939C306.935 104.899 305.986 105.641 304.889 106.073C303.48 106.636 301.972 106.905 300.457 106.864C298.981 106.869 297.511 106.664 296.093 106.255Z" fill="#FFD237"/>
</svg>
