<svg width="23" height="24" viewBox="0 0 23 24" fill="none" xmlns="http://www.w3.org/2000/svg">
<path d="M11.3968 5.10211L11.3969 5.10218C11.3968 5.1021 11.3967 5.10202 11.3966 5.10194L11.3968 5.10211ZM11.5014 5.20644L19.6278 13.3101V21.0006C19.6278 21.2725 19.5241 21.5292 19.3458 21.7153C19.1681 21.9006 18.9319 22.0006 18.6903 22.0006H14.3751C14.3241 22.0006 14.2707 21.9796 14.2279 21.9349C14.1843 21.8895 14.1563 21.8236 14.1563 21.7506V15.3756C14.1563 15.1502 14.0708 14.93 13.9121 14.7644C13.7527 14.5981 13.5319 14.5006 13.297 14.5006H9.70322C9.46827 14.5006 9.24748 14.5981 9.08811 14.7644C8.92944 14.93 8.84385 15.1502 8.84385 15.3756V21.7506C8.84385 21.8236 8.81585 21.8895 8.77234 21.9349C8.72951 21.9796 8.67608 22.0006 8.6251 22.0006H4.30811C4.0665 22.0006 3.83025 21.9006 3.65263 21.7153C3.47434 21.5292 3.37063 21.2725 3.37061 21.0006C3.37061 21.0006 3.37061 21.0006 3.37061 21.0006L3.37194 13.3102L11.5014 5.20644ZM3.37195 13.2628C3.37195 13.263 3.37195 13.2632 3.37195 13.2635L3.37195 13.2628Z" stroke="white"/>
<path d="M21.6998 11.7999L21.6999 11.7999C21.8075 11.9073 21.8033 12.0934 21.7202 12.1832L21.7201 12.1833C21.6779 12.229 21.6247 12.2509 21.5738 12.252C21.5229 12.253 21.4695 12.2333 21.4261 12.1899L21.4255 12.1893L12.1035 2.89509C11.9451 2.73696 11.7299 2.64495 11.5018 2.64495C11.2738 2.64495 11.0586 2.73696 10.9002 2.89509L1.5791 12.1893L1.5781 12.1903C1.55574 12.2127 1.5305 12.2289 1.5045 12.2391C1.47856 12.2493 1.45163 12.2536 1.42511 12.2524C1.39857 12.2511 1.3718 12.2442 1.34629 12.2313L1.12168 12.6754L1.34628 12.2313C1.32071 12.2184 1.29638 12.1994 1.27556 12.1743L1.27475 12.1733C1.19719 12.0804 1.19568 11.9089 1.30517 11.798C1.30537 11.7978 1.30556 11.7976 1.30576 11.7975L10.8592 2.25984L10.8642 2.25481L10.8691 2.24963C11.0084 2.10243 11.2331 2.00146 11.5005 2.00146C11.7699 2.00146 11.9955 2.10287 12.1344 2.24949L12.1343 2.24962L12.1442 2.25948L14.746 4.85542L15.5992 5.70662V4.50146V3.00146C15.5992 2.92846 15.6272 2.8625 15.6707 2.81709C15.7135 2.7724 15.767 2.75146 15.8179 2.75146H17.9742C18.0252 2.75146 18.0786 2.7724 18.1214 2.81709C18.1649 2.8625 18.1929 2.92846 18.1929 3.00146V8.09162V8.29898L18.3397 8.44548L21.6998 11.7999Z" stroke="white"/>
</svg>
