<svg width="16" height="16" viewBox="0 0 16 16" fill="none" xmlns="http://www.w3.org/2000/svg">
<path d="M12.6665 1.33333H3.33323C2.8028 1.33333 2.2941 1.54405 1.91903 1.91912C1.54395 2.29419 1.33324 2.8029 1.33324 3.33333V12.6666C1.33324 13.1971 1.54395 13.7058 1.91903 14.0808C2.2941 14.4559 2.8028 14.6666 3.33323 14.6666H12.6665C13.197 14.6666 13.7057 14.4559 14.0808 14.0808C14.4558 13.7058 14.6665 13.1971 14.6665 12.6666V3.33333C14.6665 2.8029 14.4558 2.29419 14.0808 1.91912C13.7057 1.54405 13.197 1.33333 12.6665 1.33333ZM13.3332 12.6666C13.3332 12.8434 13.263 13.013 13.1379 13.138C13.0129 13.2631 12.8434 13.3333 12.6665 13.3333H3.33323C3.15642 13.3333 2.98686 13.2631 2.86183 13.138C2.73681 13.013 2.66657 12.8434 2.66657 12.6666V3.33333C2.66657 3.15652 2.73681 2.98695 2.86183 2.86192C2.98686 2.7369 3.15642 2.66666 3.33323 2.66666H12.6665C12.8434 2.66666 13.0129 2.7369 13.1379 2.86192C13.263 2.98695 13.3332 3.15652 13.3332 3.33333V12.6666Z" fill="#FF5B5B"/>
<path d="M10.3333 4.66666H5.66665C5.40143 4.66666 5.14708 4.77202 4.95954 4.95955C4.77201 5.14709 4.66665 5.40144 4.66665 5.66666V10.3333C4.66665 10.5985 4.77201 10.8529 4.95954 11.0404C5.14708 11.228 5.40143 11.3333 5.66665 11.3333H10.3333C10.5985 11.3333 10.8529 11.228 11.0404 11.0404C11.2279 10.8529 11.3333 10.5985 11.3333 10.3333V5.66666C11.3333 5.40144 11.2279 5.14709 11.0404 4.95955C10.8529 4.77202 10.5985 4.66666 10.3333 4.66666Z" fill="#FF5B5B"/>
</svg>
