<svg width="55" height="56" viewBox="0 0 55 56" fill="none" xmlns="http://www.w3.org/2000/svg">
<ellipse cx="27.5" cy="27.7248" rx="27.5" ry="27.7248" fill="#30BCED"/>
<path d="M24.45 26.4506C24.325 26.4381 24.175 26.4381 24.0375 26.4506C21.0625 26.3506 18.7 23.9131 18.7 20.9131C18.7 17.8506 21.175 15.3631 24.25 15.3631C27.3125 15.3631 29.8 17.8506 29.8 20.9131C29.7875 23.9131 27.425 26.3506 24.45 26.4506Z" stroke="white" stroke-width="1.5" stroke-linecap="round" stroke-linejoin="round"/>
<path d="M33.5125 17.8631C35.9375 17.8631 37.8875 19.8256 37.8875 22.2381C37.8875 24.6006 36.0125 26.5256 33.675 26.6131C33.575 26.6006 33.4625 26.6006 33.35 26.6131" stroke="white" stroke-width="1.5" stroke-linecap="round" stroke-linejoin="round"/>
<path d="M18.2 31.0631C15.175 33.0881 15.175 36.3881 18.2 38.4006C21.6375 40.7006 27.275 40.7006 30.7125 38.4006C33.7375 36.3756 33.7375 33.0756 30.7125 31.0631C27.2875 28.7756 21.65 28.7756 18.2 31.0631Z" stroke="white" stroke-width="1.5" stroke-linecap="round" stroke-linejoin="round"/>
<path d="M35.925 37.8631C36.825 37.6756 37.675 37.3131 38.375 36.7756C40.325 35.3131 40.325 32.9006 38.375 31.4381C37.6875 30.9131 36.8501 30.5631 35.9625 30.3631" stroke="white" stroke-width="1.5" stroke-linecap="round" stroke-linejoin="round"/>
</svg>
