<svg width="13" height="13" viewBox="0 0 13 13" fill="none"
    xmlns="http://www.w3.org/2000/svg">
    <path d="M12.1301 11.0962L9.37353 8.33966C10.0372 7.45617 10.3954 6.38077 10.3942 5.27579C10.3942 2.45333 8.09795 0.157043 5.27549 0.157043C2.45303 0.157043 0.156738 2.45333 0.156738 5.27579C0.156738 8.09825 2.45303 10.3945 5.27549 10.3945C6.38047 10.3957 7.45586 10.0375 8.33935 9.37384L11.0959 12.1304C11.2354 12.2551 11.4174 12.3217 11.6045 12.3165C11.7916 12.3112 11.9696 12.2346 12.1019 12.1022C12.2343 11.9699 12.3109 11.7919 12.3162 11.6048C12.3214 11.4177 12.2548 11.2357 12.1301 11.0962ZM1.61924 5.27579C1.61924 4.55265 1.83367 3.84576 2.23543 3.24449C2.63718 2.64322 3.20821 2.17459 3.8763 1.89786C4.54439 1.62113 5.27954 1.54872 5.98878 1.6898C6.69803 1.83087 7.34951 2.1791 7.86084 2.69043C8.37218 3.20177 8.7204 3.85325 8.86148 4.56249C9.00256 5.27174 8.93015 6.00688 8.65342 6.67498C8.37669 7.34307 7.90806 7.9141 7.30679 8.31585C6.70552 8.7176 5.99862 8.93204 5.27549 8.93204C4.30615 8.93088 3.37684 8.54529 2.69141 7.85987C2.00598 7.17444 1.6204 6.24513 1.61924 5.27579Z" fill="#2D3748"/>
</svg>
