<svg width="31" height="31" viewBox="0 0 31 31" fill="none" xmlns="http://www.w3.org/2000/svg">
<path d="M15.2252 3.68604C11.0326 3.68604 7.62525 7.09337 7.62525 11.286V14.9467C7.62525 15.7194 7.29592 16.8974 6.90325 17.556L5.44658 19.9754C4.54725 21.47 5.16792 23.1294 6.81458 23.6867C12.2739 25.5107 18.1639 25.5107 23.6232 23.6867C25.1559 23.18 25.8272 21.3687 24.9912 19.9754L23.5346 17.556C23.1546 16.8974 22.8252 15.7194 22.8252 14.9467V11.286C22.8252 7.10604 19.4052 3.68604 15.2252 3.68604Z" stroke="white" stroke-width="1.5" stroke-miterlimit="10" stroke-linecap="round"/>
<path d="M17.5687 4.05352C17.1761 3.93952 16.7707 3.85085 16.3527 3.80019C15.1367 3.64819 13.9714 3.73685 12.8821 4.05352C13.2494 3.11619 14.1614 2.45752 15.2254 2.45752C16.2894 2.45752 17.2014 3.11619 17.5687 4.05352Z" stroke="white" stroke-width="1.5" stroke-miterlimit="10" stroke-linecap="round" stroke-linejoin="round"/>
<path d="M19.0253 24.1426C19.0253 26.2326 17.3153 27.9426 15.2253 27.9426C14.1866 27.9426 13.224 27.5119 12.54 26.8279C11.856 26.1439 11.4253 25.1812 11.4253 24.1426" stroke="white" stroke-width="1.5" stroke-miterlimit="10"/>
</svg>
