<svg width="475" height="104" viewBox="0 0 475 104" fill="none" xmlns="http://www.w3.org/2000/svg">
<path d="M45.0002 34.1061L5.28854 75.509C1.89486 79.0472 0 83.7601 0 88.6628V103.431H475V21.9107C475 15.0852 471.339 8.78411 465.41 5.40318L459.235 1.88176C452.808 -1.78273 444.666 0.0496314 440.405 6.11908L410.677 48.4705C406.148 54.9239 397.304 56.5241 390.821 52.0634L385.333 48.2869C378.799 43.7911 369.88 45.4563 365.386 52.0112L352.544 70.7425C346.936 78.9232 334.981 79.1036 329.131 71.0958L305.405 38.6182C299.879 31.0543 288.761 30.7112 282.785 37.9202L265.934 58.2455C261.856 63.1653 255.043 64.7983 249.196 62.2577L229.336 53.6286C224.507 51.5304 218.888 52.7084 215.295 56.5724C210.308 61.9349 201.826 61.8558 196.939 56.4012L153.844 8.29969C147.839 1.59781 137.264 2.00453 131.786 9.14803L102.477 47.3702C97.2603 54.1731 87.3292 54.9251 81.1584 48.9843L65.2819 33.6998C59.5639 28.1949 50.4956 28.3766 45.0002 34.1061Z" fill="url(#paint0_linear_976_2396)"/>
<defs>
<linearGradient id="paint0_linear_976_2396" x1="237.483" y1="-75.3112" x2="237.5" y2="103.431" gradientUnits="userSpaceOnUse">
<stop stop-color="#6EC8EF"/>
<stop offset="1" stop-color="white"/>
</linearGradient>
</defs>
</svg>
