<svg width="24" height="24" viewBox="0 0 24 24" fill="none" xmlns="http://www.w3.org/2000/svg" xmlns:xlink="http://www.w3.org/1999/xlink">
<path d="M3,12C3,7.029 7.029,3 12,3L12,3C16.971,3 21,7.029 21,12L21,12C21,16.971 16.971,21 12,21L12,21C7.029,21 3,16.971 3,12L3,12Z" fill="#31A24C"/>
<path d="M12,24C5.373,24 0,18.627 0,12C0,5.373 5.373,0 12,0C18.627,0 24,5.373 24,12C24,18.627 18.627,24 12,24ZM12,3C7.029,3 3,7.029 3,12C3,16.971 7.029,21 12,21C16.971,21 21,16.971 21,12C21,7.029 16.971,3 12,3Z" clip-rule="evenodd" fill-rule="evenodd" fill="#FFFFFF"/>
</svg>
