<svg width="62" height="62" viewBox="0 0 62 62" fill="none" xmlns="http://www.w3.org/2000/svg" xmlns:xlink="http://www.w3.org/1999/xlink">
<line x1="18.767" y1="5.067" x2="18.767" y2="12.667" stroke="#FFFFFF" stroke-width="1.5" stroke-miterlimit="10" stroke-linecap="round" stroke-linejoin="round"/>
<line x1="39.033" y1="5.067" x2="39.033" y2="12.667" stroke="#FFFFFF" stroke-width="1.5" stroke-miterlimit="10" stroke-linecap="round" stroke-linejoin="round"/>
<line x1="8.867" y1="21.528" x2="51.933" y2="21.528" stroke="#FFFFFF" stroke-width="1.5" stroke-miterlimit="10" stroke-linecap="round" stroke-linejoin="round"/>
<path d="M51.7,21.533L51.7,43.067L54.7,43.067L54.7,21.533L51.7,21.533ZM51.7,43.067C51.7,46.637 50.807,49.383 49.092,51.229C47.396,53.056 44.681,54.233 40.533,54.233L40.533,57.233C45.253,57.233 48.87,55.877 51.291,53.271C53.693,50.684 54.7,47.097 54.7,43.067L51.7,43.067ZM40.533,54.233L20.267,54.233L20.267,57.233L40.533,57.233L40.533,54.233ZM20.267,54.233C16.119,54.233 13.404,53.056 11.708,51.229C9.993,49.383 9.1,46.637 9.1,43.067L6.1,43.067C6.1,47.097 7.107,50.684 9.509,53.271C11.93,55.877 15.548,57.233 20.267,57.233L20.267,54.233ZM9.1,43.067L9.1,21.533L6.1,21.533L6.1,43.067L9.1,43.067ZM9.1,21.533C9.1,17.963 9.993,15.217 11.708,13.371C13.404,11.544 16.119,10.367 20.267,10.367L20.267,7.367C15.548,7.367 11.93,8.723 9.509,11.329C7.107,13.916 6.1,17.503 6.1,21.533L9.1,21.533ZM20.267,10.367L40.533,10.367L40.533,7.367L20.267,7.367L20.267,10.367ZM40.533,10.367C44.681,10.367 47.396,11.544 49.092,13.371C50.807,15.217 51.7,17.963 51.7,21.533L54.7,21.533C54.7,17.503 53.693,13.916 51.291,11.329C48.87,8.723 45.253,7.367 40.533,7.367L40.533,10.367Z" fill="#FFFFFF"/>
<path d="M30.388,32.707C29.284,32.707 28.388,33.602 28.388,34.707C28.388,35.811 29.284,36.707 30.388,36.707L30.388,32.707ZM30.411,36.707C31.516,36.707 32.411,35.811 32.411,34.707C32.411,33.602 31.516,32.707 30.411,32.707L30.411,36.707ZM30.388,36.707L30.411,36.707L30.411,32.707L30.388,32.707L30.388,36.707Z" fill="#FFFFFF"/>
<path d="M21.012,32.707C19.908,32.707 19.012,33.602 19.012,34.707C19.012,35.811 19.908,36.707 21.012,36.707L21.012,32.707ZM21.035,36.707C22.14,36.707 23.035,35.811 23.035,34.707C23.035,33.602 22.14,32.707 21.035,32.707L21.035,36.707ZM21.012,36.707L21.035,36.707L21.035,32.707L21.012,32.707L21.012,36.707Z" fill="#FFFFFF"/>
<path d="M21.012,40.307C19.908,40.307 19.012,41.202 19.012,42.307C19.012,43.411 19.908,44.307 21.012,44.307L21.012,40.307ZM21.035,44.307C22.14,44.307 23.035,43.411 23.035,42.307C23.035,41.202 22.14,40.307 21.035,40.307L21.035,44.307ZM21.012,44.307L21.035,44.307L21.035,40.307L21.012,40.307L21.012,44.307Z" fill="#FFFFFF"/>
</svg>
