<svg width="50" height="48" viewBox="0 0 50 48" fill="none" xmlns="http://www.w3.org/2000/svg" xmlns:xlink="http://www.w3.org/1999/xlink">
<path d="M14.31,21.5L10.221,21.5C5.274,21.5 2.555,18.84 2.555,14L2.555,10C2.555,5.16 5.274,2.5 10.221,2.5L14.31,2.5C19.258,2.5 21.977,5.16 21.977,10L21.977,14C21.977,18.84 19.258,21.5 14.31,21.5ZM10.221,5.5C6.991,5.5 5.621,6.84 5.621,10L5.621,14C5.621,17.16 6.991,18.5 10.221,18.5L14.31,18.5C17.54,18.5 18.91,17.16 18.91,14L18.91,10C18.91,6.84 17.54,5.5 14.31,5.5L10.221,5.5Z" fill="#FFFFFF"/>
<path d="M38.845,21.5L34.757,21.5C29.809,21.5 27.09,18.84 27.09,14L27.09,10C27.09,5.16 29.809,2.5 34.757,2.5L38.845,2.5C43.793,2.5 46.512,5.16 46.512,10L46.512,14C46.512,18.84 43.793,21.5 38.845,21.5ZM34.757,5.5C31.526,5.5 30.157,6.84 30.157,10L30.157,14C30.157,17.16 31.526,18.5 34.757,18.5L38.845,18.5C42.076,18.5 43.445,17.16 43.445,14L43.445,10C43.445,6.84 42.076,5.5 38.845,5.5L34.757,5.5Z" fill="#FFFFFF"/>
<path d="M38.845,45.5L34.757,45.5C29.809,45.5 27.09,42.84 27.09,38L27.09,34C27.09,29.16 29.809,26.5 34.757,26.5L38.845,26.5C43.793,26.5 46.512,29.16 46.512,34L46.512,38C46.512,42.84 43.793,45.5 38.845,45.5ZM34.757,29.5C31.526,29.5 30.157,30.84 30.157,34L30.157,38C30.157,41.16 31.526,42.5 34.757,42.5L38.845,42.5C42.076,42.5 43.445,41.16 43.445,38L43.445,34C43.445,30.84 42.076,29.5 38.845,29.5L34.757,29.5Z" fill="#FFFFFF"/>
<path d="M14.31,45.5L10.221,45.5C5.274,45.5 2.555,42.84 2.555,38L2.555,34C2.555,29.16 5.274,26.5 10.221,26.5L14.31,26.5C19.258,26.5 21.977,29.16 21.977,34L21.977,38C21.977,42.84 19.258,45.5 14.31,45.5ZM10.221,29.5C6.991,29.5 5.621,30.84 5.621,34L5.621,38C5.621,41.16 6.991,42.5 10.221,42.5L14.31,42.5C17.54,42.5 18.91,41.16 18.91,38L18.91,34C18.91,30.84 17.54,29.5 14.31,29.5L10.221,29.5Z" fill="#FFFFFF"/>
</svg>
