<svg width="50" height="48" viewBox="0 0 50 48" fill="none" xmlns="http://www.w3.org/2000/svg" xmlns:xlink="http://www.w3.org/1999/xlink">
<path d="M14.311,21.5L10.222,21.5C5.275,21.5 2.556,18.84 2.556,14L2.556,10C2.556,5.16 5.275,2.5 10.222,2.5L14.311,2.5C19.259,2.5 21.978,5.16 21.978,10L21.978,14C21.978,18.84 19.259,21.5 14.311,21.5ZM10.222,5.5C6.992,5.5 5.622,6.84 5.622,10L5.622,14C5.622,17.16 6.992,18.5 10.222,18.5L14.311,18.5C17.541,18.5 18.911,17.16 18.911,14L18.911,10C18.911,6.84 17.541,5.5 14.311,5.5L10.222,5.5Z" fill="#2E294E"/>
<path d="M38.844,21.5L34.756,21.5C29.808,21.5 27.089,18.84 27.089,14L27.089,10C27.089,5.16 29.808,2.5 34.756,2.5L38.844,2.5C43.792,2.5 46.511,5.16 46.511,10L46.511,14C46.511,18.84 43.792,21.5 38.844,21.5ZM34.756,5.5C31.525,5.5 30.156,6.84 30.156,10L30.156,14C30.156,17.16 31.525,18.5 34.756,18.5L38.844,18.5C42.075,18.5 43.444,17.16 43.444,14L43.444,10C43.444,6.84 42.075,5.5 38.844,5.5L34.756,5.5Z" fill="#2E294E"/>
<path d="M38.844,45.5L34.756,45.5C29.808,45.5 27.089,42.84 27.089,38L27.089,34C27.089,29.16 29.808,26.5 34.756,26.5L38.844,26.5C43.792,26.5 46.511,29.16 46.511,34L46.511,38C46.511,42.84 43.792,45.5 38.844,45.5ZM34.756,29.5C31.525,29.5 30.156,30.84 30.156,34L30.156,38C30.156,41.16 31.525,42.5 34.756,42.5L38.844,42.5C42.075,42.5 43.444,41.16 43.444,38L43.444,34C43.444,30.84 42.075,29.5 38.844,29.5L34.756,29.5Z" fill="#2E294E"/>
<path d="M14.311,45.5L10.222,45.5C5.275,45.5 2.556,42.84 2.556,38L2.556,34C2.556,29.16 5.275,26.5 10.222,26.5L14.311,26.5C19.259,26.5 21.978,29.16 21.978,34L21.978,38C21.978,42.84 19.259,45.5 14.311,45.5ZM10.222,29.5C6.992,29.5 5.622,30.84 5.622,34L5.622,38C5.622,41.16 6.992,42.5 10.222,42.5L14.311,42.5C17.541,42.5 18.911,41.16 18.911,38L18.911,34C18.911,30.84 17.541,29.5 14.311,29.5L10.222,29.5Z" fill="#2E294E"/>
</svg>
