<svg width="60" height="50" viewBox="0 0 60 50" fill="none" xmlns="http://www.w3.org/2000/svg" xmlns:xlink="http://www.w3.org/1999/xlink">
<path d="M51.457,4.562L8.826,4.562C6.565,4.565 4.398,5.484 2.8,7.118C1.201,8.753 0.302,10.969 0.3,13.281L0.3,39.437C0.302,41.749 1.201,43.965 2.8,45.599C4.398,47.234 6.565,48.153 8.826,48.156L51.457,48.156C53.718,48.153 55.885,47.234 57.483,45.599C59.082,43.965 59.981,41.749 59.983,39.437L59.983,13.281C59.981,10.969 59.082,8.753 57.483,7.118C55.885,5.484 53.718,4.565 51.457,4.562L51.457,4.562ZM45.129,30.718C44.286,30.718 43.462,30.463 42.761,29.984C42.059,29.505 41.513,28.824 41.19,28.027C40.868,27.231 40.783,26.354 40.948,25.508C41.112,24.663 41.518,23.886 42.114,23.276C42.711,22.667 43.47,22.251 44.297,22.083C45.124,21.915 45.981,22.001 46.76,22.331C47.539,22.661 48.205,23.22 48.674,23.937C49.142,24.654 49.392,25.497 49.392,26.359C49.392,27.515 48.943,28.624 48.143,29.441C47.344,30.259 46.26,30.718 45.129,30.718Z" fill="#FFD237"/>
<path d="M0.366,22.469L0.366,8.914C0.366,5.962 1.965,1.013 7.514,-0.059C12.223,-0.962 16.886,-0.962 16.886,-0.962C16.886,-0.962 19.95,1.217 17.419,1.217C14.887,1.217 14.954,4.555 17.419,4.555C19.883,4.555 17.419,7.756 17.419,7.756L7.494,19.268L0.366,22.469Z" fill="#FFD237"/>
</svg>
