<svg width="60" height="50" viewBox="0 0 60 50" fill="none" xmlns="http://www.w3.org/2000/svg" xmlns:xlink="http://www.w3.org/1999/xlink">
<path d="M51.459,6.313L8.828,6.313C6.568,6.315 4.401,7.234 2.802,8.869C1.204,10.503 0.305,12.72 0.302,15.031L0.302,41.188C0.305,43.499 1.204,45.715 2.802,47.35C4.401,48.984 6.568,49.904 8.828,49.906L51.459,49.906C53.72,49.904 55.887,48.984 57.486,47.35C59.084,45.715 59.983,43.499 59.986,41.188L59.986,15.031C59.983,12.72 59.084,10.503 57.486,8.869C55.887,7.234 53.72,6.315 51.459,6.313L51.459,6.313ZM45.131,32.469C44.288,32.469 43.464,32.213 42.763,31.734C42.062,31.255 41.515,30.574 41.193,29.778C40.87,28.981 40.786,28.104 40.95,27.259C41.115,26.413 41.521,25.637 42.117,25.027C42.713,24.417 43.473,24.002 44.3,23.834C45.127,23.666 45.984,23.752 46.763,24.082C47.542,24.412 48.208,24.971 48.676,25.687C49.144,26.404 49.394,27.247 49.394,28.109C49.394,29.265 48.945,30.374 48.146,31.192C47.346,32.01 46.262,32.469 45.131,32.469Z" fill="#F92A82"/>
<path d="M0.368,24.219L0.368,10.664C0.368,7.712 1.967,2.762 7.516,1.69C12.225,0.787 16.888,0.787 16.888,0.787C16.888,0.787 19.952,2.967 17.421,2.967C14.889,2.967 14.956,6.304 17.421,6.304C19.885,6.304 17.421,9.506 17.421,9.506L7.496,21.017L0.368,24.219Z" fill="#F92A82"/>
</svg>
