<svg width="60" height="50" viewBox="0 0 60 50" fill="none" xmlns="http://www.w3.org/2000/svg" xmlns:xlink="http://www.w3.org/1999/xlink">
<path d="M51.458,4.562L8.827,4.562C6.566,4.565 4.399,5.484 2.801,7.118C1.202,8.753 0.303,10.969 0.301,13.281L0.301,39.437C0.303,41.749 1.202,43.965 2.801,45.599C4.399,47.234 6.566,48.153 8.827,48.156L51.458,48.156C53.719,48.153 55.886,47.234 57.484,45.599C59.083,43.965 59.982,41.749 59.984,39.437L59.984,13.281C59.982,10.969 59.083,8.753 57.484,7.118C55.886,5.484 53.719,4.565 51.458,4.562L51.458,4.562ZM45.13,30.718C44.287,30.718 43.463,30.463 42.762,29.984C42.06,29.505 41.514,28.824 41.191,28.027C40.869,27.231 40.784,26.354 40.949,25.508C41.113,24.663 41.519,23.886 42.115,23.276C42.712,22.667 43.471,22.251 44.298,22.083C45.125,21.915 45.982,22.001 46.761,22.331C47.54,22.661 48.206,23.22 48.675,23.937C49.143,24.654 49.393,25.497 49.393,26.359C49.393,27.515 48.944,28.624 48.144,29.441C47.345,30.259 46.261,30.718 45.13,30.718Z" fill="#30BCED"/>
<path d="M0.366,22.469L0.366,8.914C0.366,5.962 1.965,1.013 7.514,-0.059C12.223,-0.962 16.886,-0.962 16.886,-0.962C16.886,-0.962 19.95,1.217 17.419,1.217C14.887,1.217 14.954,4.555 17.419,4.555C19.883,4.555 17.419,7.756 17.419,7.756L7.494,19.268L0.366,22.469Z" fill="#30BCED"/>
</svg>
