<svg width="66" height="38" viewBox="0 0 66 38" fill="none" xmlns="http://www.w3.org/2000/svg" xmlns:xlink="http://www.w3.org/1999/xlink">
<rect  x="0" y="0" width="38" height="38" rx="1001" stroke="#FFFFFF" stroke-width="1" stroke-miterlimit="3.999327"/>
<path d="M20,2C15.226,2 10.648,3.896 7.272,7.272C3.896,10.648 2,15.226 2,20C2,24.774 3.896,29.352 7.272,32.728C10.648,36.104 15.226,38 20,38C24.774,38 29.352,36.104 32.728,32.728C36.104,29.352 38,24.774 38,20C38,15.226 36.104,10.648 32.728,7.272C29.352,3.896 24.774,2 20,2L20,2Z" fill="url(#pf_0_267_2711)"/>
<path d="M29.365,18.511C29.76,18.787 30.125,19.062 30.125,20.027C30.125,20.995 29.61,21.386 29.059,21.658C29.284,22.026 29.356,22.467 29.259,22.887C29.085,23.661 28.377,24.262 27.747,24.439C28.019,24.876 28.104,25.306 27.781,25.834C27.364,26.498 27.002,26.75 25.4,26.75L18.875,26.75C16.652,26.75 15.5,25.522 15.5,24.5L15.5,19.246C15.5,16.479 18.801,14.128 18.801,12.204L18.562,9.808C18.551,9.661 18.58,9.303 18.693,9.2C18.873,9.022 19.37,8.75 20.121,8.75C20.612,8.75 20.938,8.842 21.323,9.027C22.63,9.65 22.97,11.227 22.97,12.496C22.97,13.106 22.039,14.933 21.913,15.565C21.913,15.565 23.863,15.133 26.14,15.118C28.528,15.104 30.075,15.545 30.075,17.012C30.075,17.599 29.583,18.189 29.365,18.511ZM10.1,17.75L11.9,17.75C12.258,17.75 12.601,17.892 12.855,18.145C13.108,18.399 13.25,18.742 13.25,19.1L13.25,27.65C13.25,28.008 13.108,28.351 12.855,28.605C12.601,28.858 12.258,29 11.9,29L10.1,29C9.742,29 9.399,28.858 9.145,28.605C8.892,28.351 8.75,28.008 8.75,27.65L8.75,19.1C8.75,18.742 8.892,18.399 9.145,18.145C9.399,17.892 9.742,17.75 10.1,17.75Z" fill="#FFFFFF"/>
<rect  x="28" y="0" width="38" height="38" rx="1001" stroke="#FFFFFF" stroke-width="1" stroke-miterlimit="3.999327"/>
<path d="M48,2C43.226,2 38.648,3.896 35.272,7.272C31.896,10.648 30,15.226 30,20C30,24.774 31.896,29.352 35.272,32.728C38.648,36.104 43.226,38 48,38C52.774,38 57.352,36.104 60.728,32.728C64.104,29.352 66,24.774 66,20C66,15.226 64.104,10.648 60.728,7.272C57.352,3.896 52.774,2 48,2Z" fill="url(#pf_0_267_2715)"/>
<path d="M53.565,11C48.619,11 48,15.104 48,15.104C48,15.104 47.384,11 42.438,11C37.682,11 36.296,15.999 36.876,18.673C38.406,25.737 48,30.688 48,30.688C48,30.688 57.597,25.737 59.127,18.673C59.705,15.999 58.317,11 53.565,11Z" fill="#FFFFFF"/>
<defs>
<linearGradient id="pf_0_267_2711" x1="20" y1="2" x2="20" y2="38" gradientUnits="userSpaceOnUse">
<stop stop-color="#18AFFF"/>
<stop offset="1" stop-color="#0062DF"/>
</linearGradient>
<linearGradient id="pf_0_267_2715" x1="48" y1="2" x2="48" y2="38" gradientUnits="userSpaceOnUse">
<stop stop-color="#FF6680"/>
<stop offset="1" stop-color="#E61739"/>
</linearGradient>
</defs>
</svg>
