<svg width="74" height="90" viewBox="0 0 74 90" fill="none" xmlns="http://www.w3.org/2000/svg" xmlns:xlink="http://www.w3.org/1999/xlink">
<path d="M36,84L32.464,87.536C34.417,89.488 37.583,89.488 39.536,87.536L36,84ZM39.536,87.536C47.369,79.702 55.706,71.8 61.961,63.678C68.266,55.492 73,46.422 73,36L63,36C63,43.251 59.734,50.181 54.039,57.577C48.294,65.036 40.631,72.298 32.464,80.464L39.536,87.536ZM73,36C73,15.565 56.435,-1 36,-1L36,9C50.912,9 63,21.088 63,36L73,36ZM36,-1C15.565,-1 -1,15.565 -1,36L9,36C9,21.088 21.088,9 36,9L36,-1ZM-1,36C-1,46.422 3.734,55.492 10.039,63.678C16.294,71.8 24.631,79.702 32.464,87.536L39.536,80.464C31.369,72.298 23.706,65.036 17.961,57.577C12.266,50.181 9,43.251 9,36L-1,36Z" fill="#06C5E4"/>
<path d="M36,51C44.284,51 51,44.284 51,36L41,36C41,38.762 38.762,41 36,41L36,51ZM51,36C51,27.716 44.284,21 36,21L36,31C38.762,31 41,33.239 41,36L51,36ZM36,21C27.716,21 21,27.716 21,36L31,36C31,33.239 33.238,31 36,31L36,21ZM21,36C21,44.284 27.716,51 36,51L36,41C33.238,41 31,38.762 31,36L21,36Z" fill="#06C5E4"/>
</svg>
