<svg width="110" height="112" viewBox="0 0 110 112" fill="none" xmlns="http://www.w3.org/2000/svg" xmlns:xlink="http://www.w3.org/1999/xlink">
<path d="M110,55.723C110,86.347 85.376,111.173 55,111.173C24.624,111.173 0,86.347 0,55.723C0,25.099 24.624,0.274 55,0.274C85.376,0.274 110,25.099 110,55.723Z" fill="#30BCED"/>
<path d="M48.9,53.175L48.751,54.668C48.817,54.674 48.884,54.676 48.95,54.674L48.9,53.175ZM48.075,53.175L48.025,54.674C48.087,54.676 48.149,54.674 48.211,54.669L48.075,53.175ZM59.6,42.1L61.1,42.106L61.1,42.1L59.6,42.1ZM49.049,51.682C48.696,51.647 48.3,51.648 47.939,51.681L48.211,54.669C48.4,54.652 48.604,54.653 48.751,54.668L49.049,51.682ZM48.125,51.676C42.986,51.503 38.9,47.293 38.9,42.1L35.9,42.1C35.9,48.907 41.264,54.447 48.025,54.674L48.125,51.676ZM38.9,42.1C38.9,36.801 43.181,32.5 48.5,32.5L48.5,29.5C41.519,29.5 35.9,35.149 35.9,42.1L38.9,42.1ZM48.5,32.5C53.796,32.5 58.1,36.803 58.1,42.1L61.1,42.1C61.1,35.147 55.453,29.5 48.5,29.5L48.5,32.5ZM58.1,42.094C58.078,47.293 53.988,51.503 48.85,51.676L48.95,54.674C55.712,54.447 61.072,48.907 61.1,42.106L58.1,42.094Z" fill="#FFFFFF"/>
<path d="M67.025,34.5C66.197,34.5 65.525,35.172 65.525,36C65.525,36.828 66.197,37.5 67.025,37.5L67.025,34.5ZM67.35,53.5L67.164,54.988C67.244,54.998 67.325,55.002 67.406,54.999L67.35,53.5ZM66.534,52.009C65.711,52.101 65.118,52.842 65.209,53.666C65.301,54.489 66.042,55.082 66.866,54.991L66.534,52.009ZM67.025,37.5C71.044,37.5 74.275,40.751 74.275,44.75L77.275,44.75C77.275,39.099 72.706,34.5 67.025,34.5L67.025,37.5ZM74.275,44.75C74.275,48.664 71.167,51.856 67.294,52.001L67.406,54.999C72.883,54.794 77.275,50.286 77.275,44.75L74.275,44.75ZM67.536,52.012C67.206,51.97 66.862,51.973 66.534,52.009L66.866,54.991C66.988,54.977 67.094,54.98 67.164,54.988L67.536,52.012Z" fill="#FFFFFF"/>
<path d="M36.4,62.4L35.571,61.15L35.566,61.154L36.4,62.4ZM36.4,77.075L37.234,75.828L37.231,75.826L36.4,77.075ZM61.425,77.075L62.259,78.322L62.26,78.321L61.425,77.075ZM61.425,62.4L60.592,63.647L60.594,63.649L61.425,62.4ZM35.566,61.154C32.23,63.386 30.363,66.472 30.363,69.747C30.363,73.022 32.231,76.103 35.569,78.324L37.231,75.826C34.519,74.022 33.363,71.79 33.363,69.747C33.363,67.703 34.52,65.464 37.234,63.646L35.566,61.154ZM35.566,78.322C39.302,80.821 44.147,82.025 48.913,82.025C53.678,82.025 58.523,80.821 62.259,78.322L60.591,75.828C57.452,77.929 53.222,79.025 48.913,79.025C44.603,79.025 40.373,77.929 37.234,75.828L35.566,78.322ZM62.26,78.321C65.595,76.089 67.463,73.003 67.463,69.728C67.463,66.453 65.594,63.372 62.256,61.151L60.594,63.649C63.306,65.453 64.463,67.685 64.463,69.728C64.463,71.772 63.305,74.011 60.591,75.829L62.26,78.321ZM62.258,61.153C58.534,58.665 53.695,57.469 48.931,57.469C44.167,57.469 39.318,58.666 35.571,61.15L37.229,63.65C40.382,61.559 44.621,60.469 48.931,60.469C53.242,60.469 57.466,61.56 60.592,63.647L62.258,61.153Z" fill="#FFFFFF"/>
<path d="M71.544,74.532C70.733,74.701 70.213,75.495 70.382,76.306C70.551,77.117 71.345,77.637 72.156,77.468L71.544,74.532ZM76.75,73.825L75.85,72.625L75.837,72.635L76.75,73.825ZM76.75,63.15L75.84,64.342L75.85,64.35L76.75,63.15ZM72.255,59.537C71.447,59.355 70.644,59.862 70.462,60.67C70.28,61.478 70.787,62.281 71.595,62.463L72.255,59.537ZM72.156,77.468C74.143,77.054 76.059,76.247 77.664,75.015L75.837,72.635C74.641,73.553 73.157,74.196 71.544,74.532L72.156,77.468ZM77.65,75.025C79.925,73.318 81.175,70.959 81.175,68.487C81.175,66.016 79.925,63.657 77.65,61.95L75.85,64.35C77.475,65.568 78.175,67.084 78.175,68.487C78.175,69.891 77.475,71.407 75.85,72.625L77.65,75.025ZM77.66,61.958C76.077,60.749 74.191,59.973 72.255,59.537L71.595,62.463C73.209,62.827 74.673,63.451 75.84,64.342L77.66,61.958Z" fill="#FFFFFF"/>
</svg>
