<svg width="90" height="90" viewBox="0 0 90 90" fill="none" xmlns="http://www.w3.org/2000/svg" xmlns:xlink="http://www.w3.org/1999/xlink">
<path d="M86.25,15C86.25,8.787 81.213,3.75 75,3.75L15,3.75C8.787,3.75 3.75,8.787 3.75,15L3.75,75C3.75,81.213 8.787,86.25 15,86.25L75,86.25C81.213,86.25 86.25,81.213 86.25,75L86.25,15ZM78.75,15C78.75,12.929 77.071,11.25 75,11.25L15,11.25C12.929,11.25 11.25,12.929 11.25,15L11.25,75C11.25,77.071 12.929,78.75 15,78.75L75,78.75C77.071,78.75 78.75,77.071 78.75,75L78.75,15Z" clip-rule="evenodd" fill-rule="evenodd" fill="#06C5E4"/>
<path d="M18.025,65.704L34.208,36.035C35.629,33.43 39.371,33.43 40.792,36.035L52.674,57.82L56.744,50.698C58.184,48.178 61.816,48.178 63.256,50.698L71.794,65.639C73.222,68.139 71.417,71.25 68.538,71.25L21.317,71.25C18.47,71.25 16.662,68.203 18.025,65.704Z" fill="#06C5E4"/>
<path d="M67.5,30C67.5,34.142 64.142,37.5 60,37.5C55.858,37.5 52.5,34.142 52.5,30C52.5,25.858 55.858,22.5 60,22.5C64.142,22.5 67.5,25.858 67.5,30Z" fill="#06C5E4"/>
</svg>
