<svg width="30" height="30" viewBox="0 0 30 30" fill="none" xmlns="http://www.w3.org/2000/svg" xmlns:xlink="http://www.w3.org/1999/xlink">
<path d="M15.325,4.935C15.238,4.852 15.122,4.805 15.001,4.805C14.881,4.805 14.764,4.852 14.677,4.935L3.89,15.24C3.844,15.284 3.808,15.337 3.783,15.395C3.758,15.453 3.745,15.516 3.745,15.579L3.744,25.251C3.744,25.748 3.941,26.225 4.293,26.577C4.644,26.928 5.121,27.126 5.619,27.126L11.25,27.126C11.498,27.126 11.737,27.027 11.912,26.851C12.088,26.675 12.187,26.437 12.187,26.188L12.187,18.22C12.187,18.095 12.236,17.976 12.324,17.888C12.412,17.8 12.531,17.751 12.656,17.751L17.343,17.751C17.468,17.751 17.587,17.8 17.675,17.888C17.763,17.976 17.812,18.095 17.812,18.22L17.812,26.188C17.812,26.437 17.911,26.675 18.087,26.851C18.262,27.027 18.501,27.126 18.75,27.126L24.378,27.126C24.875,27.126 25.352,26.928 25.704,26.577C26.055,26.225 26.253,25.748 26.253,25.251L26.253,15.579C26.253,15.516 26.24,15.453 26.215,15.395C26.19,15.337 26.154,15.284 26.108,15.24L15.325,4.935Z" fill="#30BCED"/>
<path d="M28.764,13.308L24.382,9.115L24.382,2.752C24.382,2.503 24.283,2.265 24.107,2.089C23.931,1.913 23.693,1.814 23.444,1.814L20.631,1.814C20.383,1.814 20.144,1.913 19.969,2.089C19.793,2.265 19.694,2.503 19.694,2.752L19.694,4.627L16.3,1.382C15.983,1.061 15.51,0.877 15,0.877C14.491,0.877 14.02,1.061 13.703,1.383L1.24,13.306C0.875,13.658 0.83,14.236 1.161,14.617C1.245,14.713 1.347,14.791 1.461,14.847C1.576,14.902 1.7,14.934 1.827,14.94C1.954,14.946 2.081,14.926 2.2,14.881C2.319,14.836 2.428,14.767 2.52,14.679L14.678,3.061C14.765,2.978 14.881,2.931 15.002,2.931C15.123,2.931 15.239,2.978 15.326,3.061L27.485,14.679C27.664,14.851 27.904,14.945 28.152,14.94C28.4,14.935 28.636,14.832 28.809,14.654C29.168,14.281 29.139,13.666 28.764,13.308Z" fill="#30BCED"/>
</svg>
