<svg width="62" height="64" viewBox="0 0 62 64" fill="none" xmlns="http://www.w3.org/2000/svg" xmlns:xlink="http://www.w3.org/1999/xlink">
<path d="M41.277,17.569C36.395,17.569 34.331,19.899 30.931,19.899C27.445,19.899 24.786,17.586 20.555,17.586C16.413,17.586 11.997,20.115 9.192,24.422C5.254,30.496 5.923,41.936 12.301,51.681C14.582,55.17 17.629,59.083 21.625,59.125L21.698,59.125C25.171,59.125 26.202,56.851 30.982,56.824L31.055,56.824C35.763,56.824 36.707,59.112 40.166,59.112L40.238,59.112C44.234,59.069 47.445,54.734 49.726,51.259C51.368,48.759 51.978,47.505 53.238,44.677C44.012,41.175 42.529,28.096 51.654,23.081C48.869,19.594 44.955,17.574 41.265,17.574L41.277,17.569Z" fill="#2D3748"/>
<path d="M40.202,4.878C37.296,5.075 33.905,6.926 31.919,9.342C30.118,11.531 28.635,14.779 29.217,17.928L29.449,17.928C32.544,17.928 35.712,16.065 37.562,13.677C39.345,11.404 40.696,8.183 40.202,4.878Z" fill="#2D3748"/>
</svg>
