<svg width="24" height="26" viewBox="0 0 24 26" fill="none" xmlns="http://www.w3.org/2000/svg" xmlns:xlink="http://www.w3.org/1999/xlink">
<path d="M19.629,16.998C19.551,16.904 19.474,16.81 19.399,16.72C18.368,15.473 17.744,14.72 17.744,11.189C17.744,9.361 17.307,7.861 16.445,6.736C15.809,5.904 14.95,5.274 13.818,4.808C13.803,4.8 13.79,4.789 13.779,4.777C13.372,3.413 12.257,2.499 11,2.499C9.743,2.499 8.628,3.413 8.221,4.775C8.21,4.787 8.197,4.798 8.183,4.806C5.54,5.894 4.256,7.981 4.256,11.187C4.256,14.72 3.633,15.473 2.601,16.719C2.526,16.809 2.449,16.901 2.372,16.997C2.171,17.239 2.043,17.534 2.005,17.846C1.966,18.159 2.018,18.476 2.154,18.76C2.443,19.369 3.059,19.748 3.763,19.748L18.242,19.748C18.942,19.748 19.555,19.37 19.845,18.763C19.981,18.479 20.033,18.162 19.995,17.849C19.957,17.536 19.83,17.241 19.629,16.998L19.629,16.998Z" fill="#FFFFFF"/>
<path d="M11,23.499C11.677,23.499 12.342,23.315 12.923,22.967C13.504,22.62 13.981,22.121 14.302,21.525C14.317,21.496 14.324,21.464 14.323,21.432C14.323,21.399 14.313,21.368 14.297,21.34C14.28,21.312 14.256,21.29 14.228,21.274C14.2,21.258 14.168,21.249 14.136,21.249L7.865,21.249C7.833,21.249 7.801,21.258 7.772,21.273C7.744,21.289 7.721,21.312 7.704,21.34C7.687,21.368 7.678,21.399 7.677,21.432C7.676,21.464 7.683,21.496 7.699,21.525C8.019,22.121 8.496,22.62 9.077,22.967C9.658,23.315 10.323,23.499 11,23.499Z" fill="#FFFFFF"/>
</svg>
