<svg width="30" height="30" viewBox="0 0 30 30" fill="none" xmlns="http://www.w3.org/2000/svg" xmlns:xlink="http://www.w3.org/1999/xlink">
<path d="M19.491,2.784C18.35,1.553 16.758,0.875 15,0.875C13.233,0.875 11.635,1.548 10.5,2.772C9.353,4.009 8.794,5.69 8.925,7.505C9.185,11.086 11.91,14 15,14C18.09,14 20.81,11.087 21.074,7.506C21.207,5.707 20.645,4.03 19.491,2.784Z" fill="#30BCED"/>
<path d="M25.313,27.123L4.688,27.123C4.418,27.127 4.151,27.07 3.905,26.957C3.66,26.844 3.443,26.678 3.27,26.471C2.889,26.016 2.735,25.394 2.849,24.765C3.344,22.022 4.887,19.718 7.313,18.1C9.468,16.664 12.198,15.873 15,15.873C17.803,15.873 20.533,16.664 22.688,18.1C25.114,19.717 26.657,22.021 27.151,24.765C27.265,25.394 27.112,26.015 26.731,26.471C26.558,26.678 26.341,26.844 26.095,26.957C25.85,27.07 25.583,27.127 25.313,27.123L25.313,27.123Z" fill="#30BCED"/>
</svg>
