<svg width="30" height="30" viewBox="0 0 30 30" fill="none" xmlns="http://www.w3.org/2000/svg" xmlns:xlink="http://www.w3.org/1999/xlink">
<path d="M1.875,21.03C1.875,21.901 2.221,22.735 2.836,23.351C3.451,23.966 4.286,24.312 5.156,24.312L24.844,24.312C25.714,24.312 26.549,23.966 27.164,23.351C27.779,22.735 28.125,21.901 28.125,21.03L28.125,12.007L1.875,12.007L1.875,21.03ZM5.742,16.577C5.742,16.111 5.927,15.664 6.257,15.334C6.587,15.005 7.034,14.819 7.5,14.819L10.313,14.819C10.779,14.819 11.226,15.005 11.555,15.334C11.885,15.664 12.07,16.111 12.07,16.577L12.07,17.749C12.07,18.215 11.885,18.662 11.555,18.992C11.226,19.322 10.779,19.507 10.313,19.507L7.5,19.507C7.034,19.507 6.587,19.322 6.257,18.992C5.927,18.662 5.742,18.215 5.742,17.749L5.742,16.577Z" fill="#FFFFFF"/>
<path d="M24.844,3.686L5.156,3.686C4.286,3.686 3.451,4.032 2.836,4.647C2.221,5.262 1.875,6.097 1.875,6.967L1.875,8.491L28.125,8.491L28.125,6.967C28.125,6.097 27.779,5.262 27.164,4.647C26.549,4.032 25.714,3.686 24.844,3.686L24.844,3.686Z" fill="#FFFFFF"/>
</svg>
