<svg width="46" height="48" viewBox="0 0 46 48" fill="none" xmlns="http://www.w3.org/2000/svg" xmlns:xlink="http://www.w3.org/1999/xlink">
<path d="M23.5,9.496C23.366,9.363 23.188,9.288 23.003,9.288C22.818,9.288 22.64,9.363 22.506,9.496L5.966,25.984C5.896,26.054 5.84,26.138 5.802,26.232C5.763,26.325 5.744,26.425 5.744,26.527L5.741,42.001C5.741,42.797 6.044,43.56 6.583,44.122C7.122,44.685 7.854,45.001 8.616,45.001L17.25,45.001C17.631,45.001 17.997,44.843 18.267,44.562C18.536,44.28 18.688,43.899 18.688,43.501L18.688,30.751C18.688,30.552 18.763,30.361 18.898,30.221C19.033,30.08 19.216,30.001 19.406,30.001L26.594,30.001C26.785,30.001 26.967,30.08 27.102,30.221C27.237,30.361 27.313,30.552 27.313,30.751L27.313,43.501C27.313,43.899 27.464,44.28 27.734,44.562C28.003,44.843 28.369,45.001 28.75,45.001L37.381,45.001C38.143,45.001 38.874,44.685 39.413,44.122C39.953,43.56 40.256,42.797 40.256,42.001L40.256,26.527C40.256,26.425 40.236,26.325 40.198,26.232C40.16,26.138 40.104,26.054 40.034,25.984L23.5,9.496Z" stroke="#FFFFFF" stroke-width="1" stroke-miterlimit="3.999327"/>
<path d="M44.106,22.892L37.386,16.183L37.386,6.003C37.386,5.605 37.234,5.224 36.965,4.942C36.695,4.661 36.33,4.503 35.948,4.503L31.636,4.503C31.255,4.503 30.889,4.661 30.619,4.942C30.35,5.224 30.198,5.605 30.198,6.003L30.198,9.003L24.995,3.811C24.508,3.297 23.783,3.003 23.001,3.003C22.221,3.003 21.499,3.297 21.012,3.812L1.902,22.89C1.343,23.453 1.273,24.378 1.782,24.987C1.909,25.141 2.066,25.266 2.241,25.355C2.417,25.444 2.608,25.494 2.803,25.504C2.997,25.513 3.192,25.481 3.375,25.409C3.557,25.337 3.724,25.228 3.864,25.087L22.507,6.498C22.641,6.364 22.819,6.29 23.004,6.29C23.189,6.29 23.367,6.364 23.5,6.498L42.145,25.087C42.419,25.362 42.787,25.512 43.168,25.504C43.548,25.496 43.91,25.331 44.174,25.045C44.726,24.449 44.68,23.465 44.106,22.892Z" stroke="#FFFFFF" stroke-width="1" stroke-miterlimit="3.999327"/>
</svg>
