<svg width="24" height="26" viewBox="0 0 24 26" fill="none" xmlns="http://www.w3.org/2000/svg" xmlns:xlink="http://www.w3.org/1999/xlink">
<path d="M19.629,16.998C19.551,16.904 19.474,16.81 19.399,16.72C18.368,15.472 17.744,14.72 17.744,11.189C17.744,9.36 17.307,7.86 16.445,6.735C15.809,5.904 14.95,5.274 13.818,4.808C13.803,4.8 13.79,4.789 13.779,4.777C13.372,3.412 12.257,2.499 11,2.499C9.743,2.499 8.628,3.412 8.221,4.775C8.21,4.787 8.197,4.798 8.183,4.806C5.54,5.894 4.256,7.981 4.256,11.187C4.256,14.72 3.633,15.472 2.601,16.718C2.526,16.809 2.449,16.901 2.372,16.996C2.171,17.239 2.043,17.534 2.005,17.846C1.966,18.159 2.018,18.476 2.154,18.76C2.443,19.369 3.059,19.747 3.763,19.747L18.242,19.747C18.942,19.747 19.555,19.37 19.845,18.763C19.981,18.479 20.033,18.162 19.995,17.849C19.957,17.536 19.83,17.241 19.629,16.998L19.629,16.998Z" fill="#FFFFFF"/>
<path d="M11,23.499C11.677,23.499 12.342,23.315 12.923,22.967C13.504,22.619 13.981,22.121 14.302,21.524C14.317,21.496 14.324,21.464 14.323,21.431C14.323,21.399 14.313,21.368 14.297,21.34C14.28,21.312 14.256,21.289 14.228,21.273C14.2,21.258 14.168,21.249 14.136,21.249L7.865,21.249C7.833,21.249 7.801,21.257 7.772,21.273C7.744,21.289 7.721,21.312 7.704,21.34C7.687,21.367 7.678,21.399 7.677,21.431C7.676,21.464 7.683,21.496 7.699,21.524C8.019,22.121 8.496,22.619 9.077,22.967C9.658,23.315 10.323,23.499 11,23.499Z" fill="#FFFFFF"/>
</svg>
