<svg width="24" height="24" viewBox="0 0 24 24" fill="none" xmlns="http://www.w3.org/2000/svg" xmlns:xlink="http://www.w3.org/1999/xlink">
<path d="M14.593,3.026C13.68,2.042 12.406,1.499 11,1.499C9.586,1.499 8.308,2.038 7.4,3.017C6.482,4.007 6.035,5.351 6.14,6.804C6.348,9.669 8.528,11.999 11,11.999C13.472,11.999 15.648,9.669 15.86,6.805C15.966,5.366 15.516,4.023 14.593,3.026Z" fill="#FFFFFF"/>
<path d="M19.25,22.498L2.75,22.498C2.534,22.501 2.32,22.456 2.124,22.365C1.928,22.275 1.754,22.142 1.616,21.976C1.311,21.612 1.188,21.115 1.279,20.612C1.675,18.417 2.91,16.574 4.85,15.279C6.574,14.131 8.758,13.498 11,13.498C13.242,13.498 15.426,14.131 17.15,15.279C19.091,16.573 20.326,18.417 20.721,20.611C20.812,21.114 20.689,21.612 20.385,21.976C20.246,22.142 20.073,22.275 19.876,22.365C19.68,22.455 19.466,22.501 19.25,22.498L19.25,22.498Z" fill="#FFFFFF"/>
</svg>
