<svg width="30" height="32" viewBox="0 0 30 32" fill="none" xmlns="http://www.w3.org/2000/svg" xmlns:xlink="http://www.w3.org/1999/xlink">
<path d="M25.078,14.125L16.875,14.125C16.129,14.125 15.414,13.829 14.886,13.302C14.359,12.774 14.063,12.059 14.063,11.313L14.063,3.11C14.063,3.047 14.038,2.988 13.994,2.944C13.95,2.9 13.89,2.875 13.828,2.875L8.438,2.875C7.443,2.875 6.489,3.27 5.786,3.974C5.083,4.677 4.688,5.631 4.688,6.625L4.688,25.375C4.688,26.37 5.083,27.324 5.786,28.027C6.489,28.73 7.443,29.125 8.438,29.125L21.563,29.125C22.557,29.125 23.511,28.73 24.214,28.027C24.917,27.324 25.313,26.37 25.313,25.375L25.313,14.36C25.313,14.297 25.288,14.238 25.244,14.194C25.2,14.15 25.14,14.125 25.078,14.125Z" fill="#30BCED"/>
<path d="M24.564,12.052L16.137,3.626C16.121,3.609 16.1,3.598 16.077,3.594C16.055,3.589 16.031,3.592 16.01,3.6C15.989,3.609 15.97,3.624 15.957,3.643C15.945,3.663 15.938,3.685 15.938,3.708L15.938,11.314C15.938,11.563 16.036,11.801 16.212,11.977C16.388,12.153 16.626,12.252 16.875,12.252L24.481,12.252C24.504,12.252 24.527,12.245 24.546,12.232C24.565,12.219 24.58,12.201 24.589,12.179C24.598,12.158 24.6,12.134 24.596,12.112C24.591,12.089 24.58,12.068 24.564,12.052L24.564,12.052Z" fill="#30BCED"/>
</svg>
