<svg width="30" height="30" viewBox="0 0 30 30" fill="none" xmlns="http://www.w3.org/2000/svg" xmlns:xlink="http://www.w3.org/1999/xlink">
<path d="M27.987,1.243C27.976,1.191 27.951,1.144 27.914,1.106C27.877,1.068 27.83,1.041 27.778,1.029C24.347,0.19 16.417,3.18 12.121,7.474C11.355,8.234 10.656,9.059 10.033,9.941C8.709,9.824 7.384,9.921 6.255,10.414C3.069,11.816 2.141,15.474 1.883,17.048C1.868,17.134 1.874,17.223 1.899,17.306C1.924,17.39 1.969,17.467 2.029,17.53C2.089,17.594 2.162,17.643 2.244,17.673C2.326,17.703 2.414,17.714 2.501,17.704L7.617,17.14C7.621,17.526 7.644,17.911 7.687,18.294C7.712,18.561 7.831,18.809 8.021,18.998L10.002,20.974C10.19,21.164 10.439,21.282 10.705,21.308C11.086,21.351 11.469,21.374 11.853,21.378L11.291,26.487C11.282,26.574 11.293,26.662 11.323,26.744C11.353,26.826 11.402,26.899 11.466,26.959C11.529,27.019 11.606,27.063 11.69,27.089C11.773,27.114 11.862,27.12 11.948,27.105C13.519,26.853 17.184,25.926 18.578,22.74C19.07,21.611 19.171,20.292 19.057,18.974C19.94,18.351 20.768,17.652 21.53,16.886C25.84,12.598 28.813,4.845 27.987,1.243ZM17.23,11.771C16.837,11.377 16.569,10.876 16.46,10.331C16.352,9.785 16.407,9.219 16.62,8.705C16.833,8.191 17.193,7.752 17.656,7.443C18.118,7.134 18.662,6.969 19.219,6.969C19.775,6.969 20.319,7.134 20.781,7.443C21.244,7.752 21.604,8.191 21.817,8.705C22.03,9.219 22.086,9.785 21.977,10.331C21.868,10.876 21.6,11.377 21.207,11.771C20.946,12.032 20.636,12.239 20.295,12.381C19.954,12.522 19.588,12.595 19.219,12.595C18.849,12.595 18.484,12.522 18.142,12.381C17.801,12.239 17.491,12.032 17.23,11.771Z" fill="#30BCED"/>
<path d="M9.867,22.406C9.546,22.727 9.031,22.853 8.411,22.96C7.018,23.197 5.788,21.994 6.039,20.586C6.134,20.052 6.417,19.304 6.592,19.128C6.631,19.09 6.656,19.041 6.665,18.988C6.675,18.935 6.667,18.881 6.643,18.832C6.619,18.784 6.581,18.744 6.534,18.719C6.486,18.694 6.432,18.684 6.379,18.691C5.6,18.787 4.875,19.14 4.32,19.694C2.943,21.073 2.813,26.189 2.813,26.189C2.813,26.189 7.931,26.059 9.309,24.68C9.865,24.126 10.219,23.4 10.313,22.62C10.334,22.375 10.036,22.229 9.867,22.406Z" fill="#30BCED"/>
</svg>
