<svg width="30" height="30" viewBox="0 0 30 30" fill="none" xmlns="http://www.w3.org/2000/svg" xmlns:xlink="http://www.w3.org/1999/xlink">
<path d="M25.078,12.125L16.875,12.125C16.129,12.125 15.414,11.829 14.886,11.302C14.359,10.774 14.063,10.059 14.063,9.313L14.063,1.11C14.063,1.048 14.038,0.988 13.994,0.944C13.95,0.9 13.89,0.875 13.828,0.875L8.438,0.875C7.443,0.875 6.489,1.27 5.786,1.974C5.083,2.677 4.688,3.631 4.688,4.625L4.688,23.375C4.688,24.37 5.083,25.324 5.786,26.027C6.489,26.73 7.443,27.125 8.438,27.125L21.563,27.125C22.557,27.125 23.511,26.73 24.214,26.027C24.917,25.324 25.313,24.37 25.313,23.375L25.313,12.36C25.313,12.298 25.288,12.238 25.244,12.194C25.2,12.15 25.14,12.125 25.078,12.125Z" fill="#30BCED"/>
<path d="M24.564,10.052L16.137,1.626C16.121,1.609 16.1,1.598 16.077,1.594C16.055,1.589 16.031,1.592 16.01,1.6C15.989,1.609 15.97,1.624 15.957,1.643C15.945,1.663 15.938,1.685 15.938,1.708L15.938,9.314C15.938,9.563 16.036,9.801 16.212,9.977C16.388,10.153 16.626,10.252 16.875,10.252L24.481,10.252C24.504,10.252 24.527,10.245 24.546,10.232C24.565,10.219 24.58,10.201 24.589,10.179C24.598,10.158 24.6,10.135 24.596,10.112C24.591,10.089 24.58,10.068 24.564,10.052L24.564,10.052Z" fill="#30BCED"/>
</svg>
