<svg width="664" height="214" viewBox="0 0 664 214" fill="none" xmlns="http://www.w3.org/2000/svg" xmlns:xlink="http://www.w3.org/1999/xlink">
<circle cx="652.907" cy="141.758" r="11.093" fill="#FFD237"/>
<path d="M179.986,78.036C184.936,76.055 190.232,75.087 195.562,75.19L195.562,95.672C193.093,95.48 191.438,95.385 190.584,95.385C187.864,95.228 185.141,95.62 182.575,96.537C180.01,97.453 177.654,98.876 175.649,100.72C172.045,104.274 170.242,109.608 170.242,116.72L170.242,152.849L148.053,152.849L148.053,76.328L169.249,76.328L169.249,86.428C171.969,82.677 175.69,79.769 179.986,78.036Z" fill="#FFFFFF"/>
<path d="M290.293,76.328L290.293,152.854L269.1,152.854L269.1,144.032C263.596,150.669 255.631,153.988 245.203,153.99C238.377,154.085 231.641,152.42 225.646,149.154C219.845,145.962 215.08,141.173 211.918,135.355C208.646,128.922 206.94,121.807 206.94,114.59C206.94,107.372 208.646,100.257 211.918,93.825C215.079,88.007 219.844,83.218 225.646,80.028C231.641,76.761 238.377,75.095 245.203,75.19C254.967,75.19 262.599,78.272 268.101,84.436L268.101,76.326L290.293,76.328ZM262.984,130.022C266.569,125.678 268.53,120.222 268.53,114.59C268.53,108.958 266.569,103.501 262.984,99.158C259.256,95.466 254.221,93.395 248.974,93.395C243.727,93.395 238.692,95.466 234.963,99.158C231.378,103.501 229.417,108.958 229.417,114.59C229.417,120.222 231.378,125.678 234.963,130.022C238.692,133.713 243.727,135.784 248.974,135.784C254.221,135.784 259.256,133.713 262.984,130.022Z" fill="#FFFFFF"/>
<rect  x="315.323" y="76.328" width="22.187" height="76.523" fill="#FFFFFF"/>
<circle cx="326.417" cy="51.369" r="11.093" fill="#FFD237"/>
<path d="M432.172,83.725C438.004,89.414 440.919,97.854 440.918,109.042L440.918,152.851L418.734,152.851L418.734,112.457C419.111,107.594 417.694,102.762 414.749,98.873C413.274,97.329 411.479,96.128 409.488,95.354C407.498,94.58 405.363,94.252 403.232,94.394C400.764,94.275 398.298,94.676 395.995,95.57C393.691,96.464 391.601,97.832 389.859,99.585C386.541,103.049 384.881,108.192 384.879,115.015L384.879,152.854L362.692,152.854L362.692,76.328L383.883,76.328L383.883,85.287C386.921,81.999 390.668,79.445 394.839,77.82C399.413,76.024 404.29,75.129 409.203,75.185C413.408,75.001 417.607,75.662 421.552,77.129C425.497,78.596 429.108,80.839 432.172,83.725Z" fill="#FFFFFF"/>
<path d="M515.52,134.433C518.737,133.158 521.664,131.247 524.126,128.815L535.93,141.616C528.728,149.872 518.203,154 504.355,154C496.428,154.159 488.577,152.429 481.452,148.952C475.098,145.845 469.768,140.983 466.092,134.941C462.441,128.793 460.57,121.751 460.688,114.602C460.587,107.486 462.432,100.478 466.021,94.333C469.51,88.376 474.581,83.501 480.672,80.252C487.127,76.826 494.344,75.089 501.652,75.203C508.564,75.111 515.397,76.694 521.564,79.817C527.486,82.848 532.438,87.48 535.857,93.187C539.531,99.454 541.379,106.623 541.193,113.885L484.585,124.836C486.055,128.476 488.744,131.493 492.192,133.371C496.132,135.377 500.516,136.353 504.935,136.206C508.542,136.27 512.13,135.669 515.52,134.433ZM487.997,97.379C484.302,101.462 482.316,106.809 482.45,112.314L519.717,105.063C518.773,101.231 516.507,97.856 513.317,95.532C509.919,93.111 505.825,91.864 501.654,91.98C499.128,91.883 496.609,92.312 494.258,93.242C491.907,94.171 489.775,95.581 487.997,97.379Z" fill="#FFFFFF"/>
<path d="M567.788,151.642C562.665,150.472 557.766,148.478 553.282,145.739L560.679,129.808C564.524,132.181 568.697,133.978 573.063,135.141C577.687,136.488 582.476,137.183 587.292,137.205C596.68,137.205 601.374,134.881 601.374,130.235C601.347,129.137 600.955,128.079 600.26,127.229C599.564,126.379 598.605,125.786 597.534,125.542C593.695,124.322 589.737,123.511 585.727,123.123C580.489,122.395 575.308,121.302 570.223,119.851C566.177,118.639 562.522,116.382 559.627,113.308C556.436,109.613 554.827,104.81 555.148,99.938C555.083,95.301 556.559,90.774 559.343,87.066C562.51,83.049 566.752,80.016 571.577,78.318C577.658,76.109 584.097,75.048 590.565,75.19C595.994,75.193 601.407,75.789 606.707,76.966C611.37,77.894 615.858,79.55 620.006,81.875L612.609,97.664C605.884,93.875 598.284,91.913 590.565,91.975C586.899,91.754 583.235,92.438 579.896,93.967C578.881,94.399 578.008,95.108 577.379,96.014C576.75,96.92 576.389,97.985 576.338,99.087C576.328,100.227 576.7,101.339 577.397,102.242C578.094,103.145 579.074,103.788 580.18,104.067C584.165,105.342 588.259,106.246 592.409,106.768C597.593,107.572 602.724,108.688 607.774,110.109C611.753,111.295 615.339,113.53 618.156,116.581C621.269,120.204 622.85,124.897 622.562,129.666C622.616,134.248 621.112,138.712 618.296,142.327C615.042,146.312 610.726,149.295 605.848,150.93C599.61,153.098 593.035,154.134 586.433,153.99C580.144,154 573.879,153.211 567.788,151.642Z" fill="#FFFFFF"/>
<path d="M108.017,21.992L72.782,21.992L64.713,20.44L64.376,0L124.902,0L124.902,5.101C124.903,7.319 124.467,9.516 123.619,11.565C122.771,13.615 121.527,15.477 119.959,17.045C118.391,18.614 116.529,19.858 114.48,20.707C112.431,21.556 110.235,21.992 108.017,21.992Z" fill="#FFFFFF"/>
<path d="M62.436,124.926C50.086,124.923 38.013,121.258 27.745,114.395C17.477,107.531 9.475,97.777 4.75,86.365C0.025,74.954 -1.21,62.398 1.202,50.285C3.613,38.172 9.561,27.045 18.296,18.313C27.03,9.58 38.158,3.634 50.271,1.225C62.385,-1.183 74.941,0.054 86.351,4.781C97.762,9.508 107.514,17.513 114.375,27.782C121.237,38.052 124.899,50.125 124.899,62.476C124.878,79.034 118.289,94.908 106.58,106.615C94.87,118.323 78.995,124.908 62.436,124.926ZM62.436,23.741C54.779,23.741 47.293,26.012 40.925,30.267C34.558,34.521 29.596,40.568 26.665,47.643C23.734,54.718 22.968,62.503 24.462,70.014C25.956,77.525 29.643,84.424 35.058,89.839C40.473,95.253 47.372,98.941 54.883,100.435C62.394,101.929 70.179,101.162 77.253,98.232C84.328,95.301 90.375,90.338 94.63,83.971C98.884,77.604 101.155,70.118 101.155,62.46C101.143,52.195 97.06,42.354 89.802,35.096C82.543,27.838 72.701,23.753 62.436,23.741Z" fill="#FFFFFF"/>
<path d="M30.353,152.577L123.68,152.577L123.68,151.26C123.674,145.892 121.539,140.745 117.743,136.949C113.947,133.153 108.8,131.018 103.432,131.012L29.652,131.012C23.407,131.01 17.332,133.043 12.347,136.803C7.361,140.564 3.737,145.846 2.023,151.851C0.309,157.856 0.599,164.256 2.849,170.081C5.098,175.906 9.185,180.84 14.49,184.134C19.028,187.002 24.284,188.528 29.652,188.537L54.45,188.537L54.429,187.22C54.346,181.998 52.282,177.004 48.654,173.248C45.026,169.491 40.106,167.255 34.891,166.991L29.652,166.991C28.605,166.985 27.571,166.751 26.624,166.304C25.677,165.857 24.839,165.208 24.169,164.404C23.499,163.599 23.013,162.657 22.744,161.645C22.476,160.633 22.433,159.574 22.617,158.543C23.022,156.81 24.014,155.27 25.423,154.183C26.833,153.096 28.574,152.529 30.353,152.577Z" fill="#FFFFFF"/>
<path d="M62.439,175.017L79.733,175.017C83.521,174.943 87.273,175.755 90.692,177.389C93.742,178.857 96.308,181.169 98.086,184.05C99.818,187.103 100.729,190.553 100.729,194.063C100.729,197.573 99.818,201.023 98.086,204.076C96.309,206.958 93.743,209.27 90.692,210.737C87.274,212.371 83.521,213.183 79.733,213.109L62.439,213.109L62.439,175.017ZM79.303,205.847C82.636,206.016 85.904,204.875 88.407,202.669C90.592,200.33 91.807,197.25 91.807,194.05C91.807,190.85 90.592,187.769 88.407,185.431C85.903,183.22 82.634,182.078 79.298,182.247L71.251,182.247L71.251,205.849L79.303,205.847Z" fill="#FFD237"/>
<path d="M104.586,175.017L111.819,175.017L111.221,190.461L105.131,190.461L104.586,175.017Z" fill="#FFD237"/>
<path d="M148.414,206.015L148.414,213.085L118.941,213.085L118.941,175.017L147.71,175.017L147.71,182.084L127.684,182.084L127.684,190.35L145.357,190.35L145.357,197.201L127.684,197.201L127.684,206.013L148.414,206.015Z" fill="#FFD237"/>
<path d="M190.343,175.017L190.343,213.082L183.11,213.082L164.138,189.971L164.138,213.082L155.442,213.082L155.442,175.017L162.728,175.017L181.65,198.129L181.65,175.017L190.343,175.017Z" fill="#FFD237"/>
<path d="M207.257,182.195L195.072,182.195L195.072,175.017L228.244,175.017L228.244,182.195L216.063,182.195L216.063,213.082L207.254,213.082L207.257,182.195Z" fill="#FFD237"/>
<path d="M257.229,213.082L249.888,202.476L241.785,202.476L241.785,213.082L232.977,213.082L232.977,175.017L249.453,175.017C252.467,174.946 255.462,175.52 258.236,176.701C260.573,177.703 262.567,179.366 263.972,181.486C265.35,183.682 266.049,186.236 265.983,188.827C266.086,191.395 265.388,193.932 263.985,196.085C262.583,198.238 260.545,199.902 258.154,200.845L266.694,213.082L257.229,213.082ZM255,183.908C253.248,182.651 251.113,182.045 248.963,182.195L241.785,182.195L241.785,195.465L248.963,195.465C251.118,195.615 253.256,194.998 255,193.723C255.655,193.085 256.176,192.321 256.532,191.478C256.888,190.636 257.071,189.73 257.071,188.815C257.071,187.9 256.888,186.995 256.532,186.152C256.176,185.309 255.655,184.546 255,183.908Z" fill="#FFD237"/>
<path d="M302.43,206.015L302.43,213.085L272.944,213.085L272.944,175.017L301.713,175.017L301.713,182.084L281.687,182.084L281.687,190.35L299.363,190.35L299.363,197.201L281.687,197.201L281.687,206.013L302.43,206.015Z" fill="#FFD237"/>
<path d="M334.694,176.701C337.031,177.703 339.025,179.366 340.43,181.486C341.746,183.704 342.44,186.234 342.44,188.813C342.44,191.391 341.746,193.922 340.43,196.139C339.036,198.269 337.039,199.935 334.694,200.924C331.915,202.088 328.923,202.654 325.911,202.585L318.243,202.585L318.243,213.08L309.435,213.08L309.435,175.017L325.911,175.017C328.925,174.946 331.92,175.52 334.694,176.701ZM331.458,193.697C332.153,193.098 332.701,192.348 333.059,191.504C333.417,190.66 333.576,189.745 333.524,188.83C333.58,187.906 333.423,186.981 333.065,186.128C332.707,185.274 332.157,184.515 331.458,183.908C329.706,182.651 327.571,182.046 325.421,182.195L318.243,182.195L318.243,195.409L325.421,195.409C327.571,195.559 329.706,194.953 331.458,193.697Z" fill="#FFD237"/>
<path d="M372.953,213.082L365.615,202.476L357.515,202.476L357.515,213.082L348.703,213.082L348.703,175.017L365.182,175.017C368.196,174.946 371.191,175.52 373.965,176.701C376.303,177.703 378.298,179.366 379.704,181.486C381.081,183.682 381.78,186.236 381.715,188.827C381.815,191.394 381.116,193.93 379.714,196.082C378.311,198.235 376.275,199.9 373.886,200.845L382.423,213.082L372.953,213.082ZM370.724,183.908C368.974,182.651 366.839,182.045 364.69,182.195L357.515,182.195L357.515,195.465L364.692,195.465C366.846,195.615 368.984,194.998 370.727,193.723C371.382,193.085 371.903,192.321 372.258,191.479C372.614,190.636 372.797,189.73 372.797,188.815C372.797,187.9 372.614,186.995 372.258,186.152C371.903,185.309 371.379,184.546 370.724,183.908Z" fill="#FFD237"/>
<path d="M418.142,206.015L418.142,213.085L388.669,213.085L388.669,175.017L417.43,175.017L417.43,182.084L397.417,182.084L397.417,190.35L415.09,190.35L415.09,197.201L397.417,197.201L397.417,206.013L418.142,206.015Z" fill="#FFD237"/>
<path d="M460.07,175.017L460.07,213.082L452.837,213.082L433.864,189.971L433.864,213.082L425.169,213.082L425.169,175.017L432.457,175.017L451.382,198.129L451.382,175.017L460.07,175.017Z" fill="#FFD237"/>
<path d="M498.572,206.015L498.572,213.085L469.097,213.085L469.097,175.017L497.866,175.017L497.866,182.084L477.853,182.084L477.853,190.35L495.526,190.35L495.526,197.201L477.853,197.201L477.853,206.013L498.572,206.015Z" fill="#FFD237"/>
<path d="M509.8,209.222C508.212,207.491 506.991,205.457 506.21,203.241C505.43,201.026 505.107,198.675 505.26,196.331L505.26,175.014L514.068,175.014L514.068,196.005C514.068,202.821 516.897,206.229 522.553,206.229C523.722,206.306 524.893,206.124 525.984,205.696C527.074,205.268 528.057,204.605 528.861,203.754C530.492,201.516 531.264,198.765 531.035,196.005L531.035,175.014L539.731,175.014L539.731,196.331C539.618,199.748 538.536,203.062 536.61,205.886C534.684,208.71 531.994,210.928 528.855,212.28C525.715,213.632 522.255,214.062 518.88,213.521C515.505,212.979 512.354,211.488 509.794,209.222L509.8,209.222Z" fill="#FFD237"/>
<path d="M572.692,213.082L565.351,202.476L557.248,202.476L557.248,213.082L548.439,213.082L548.439,175.017L564.913,175.017C567.928,174.946 570.924,175.52 573.699,176.701C576.073,177.689 578.087,179.38 579.472,181.547C580.857,183.714 581.546,186.252 581.445,188.822C581.546,191.39 580.846,193.925 579.443,196.078C578.041,198.231 576.004,199.895 573.614,200.84L582.152,213.077L572.692,213.082ZM570.465,183.908C568.714,182.652 566.579,182.046 564.429,182.195L557.251,182.195L557.251,195.465L564.418,195.465C566.573,195.614 568.711,194.997 570.455,193.723C571.109,193.084 571.628,192.32 571.983,191.478C572.337,190.635 572.52,189.73 572.52,188.815C572.52,187.901 572.337,186.996 571.983,186.153C571.628,185.31 571.109,184.547 570.455,183.908L570.465,183.908Z" fill="#FFD237"/>
<path d="M592.186,212.511C589.753,211.875 587.457,210.797 585.414,209.33L588.405,202.695C590.177,203.961 592.142,204.935 594.223,205.578C596.4,206.291 598.675,206.657 600.966,206.664C602.877,206.791 604.787,206.406 606.499,205.549C607.039,205.264 607.491,204.838 607.807,204.317C608.123,203.795 608.291,203.197 608.294,202.587C608.302,202.155 608.211,201.727 608.028,201.336C607.846,200.945 607.576,200.6 607.24,200.329C606.434,199.678 605.511,199.189 604.52,198.888C603.412,198.526 601.919,198.127 600.041,197.691C597.631,197.144 595.255,196.454 592.927,195.625C591.086,194.94 589.449,193.799 588.17,192.308C586.78,190.591 586.074,188.422 586.186,186.216C586.164,184.077 586.79,181.981 587.983,180.205C589.333,178.287 591.213,176.804 593.393,175.937C596.2,174.81 599.208,174.272 602.231,174.356C604.629,174.353 607.018,174.646 609.345,175.228C611.493,175.738 613.548,176.582 615.435,177.728L612.715,184.419C609.524,182.516 605.89,181.485 602.175,181.428C600.276,181.292 598.379,181.707 596.71,182.624C596.166,182.952 595.716,183.416 595.406,183.97C595.096,184.525 594.936,185.151 594.942,185.786C594.942,186.42 595.138,187.039 595.503,187.557C595.867,188.076 596.383,188.47 596.979,188.685C598.987,189.519 601.074,190.148 603.208,190.561C605.618,191.108 607.994,191.798 610.323,192.627C612.153,193.304 613.787,194.425 615.079,195.889C616.473,197.581 617.181,199.734 617.063,201.923C617.078,204.048 616.442,206.126 615.24,207.878C613.869,209.799 611.972,211.282 609.777,212.147C606.961,213.271 603.945,213.809 600.913,213.728C597.961,213.738 595.023,213.328 592.186,212.511Z" fill="#FFD237"/>
</svg>
