<svg width="48" height="48" viewBox="0 0 48 48" fill="none" xmlns="http://www.w3.org/2000/svg" xmlns:xlink="http://www.w3.org/1999/xlink">
<path d="M29.4,38.8L28.206,37.892L28.2,37.9L29.4,38.8ZM26.4,42.8L27.6,43.7L26.4,42.8ZM21.6,42.8L20.4,43.7L21.6,42.8ZM18.6,38.8L17.387,39.682L17.4,39.7L18.6,38.8ZM17,36.5L16,36.5L16,39.5L17,39.5L17,36.5ZM16,36.5C12.027,36.5 9.538,35.977 7.988,34.621C6.487,33.308 5.5,30.871 5.5,26L2.5,26C2.5,31.129 3.513,34.692 6.012,36.879C8.462,39.023 11.973,39.5 16,39.5L16,36.5ZM5.5,26L5.5,16L2.5,16L2.5,26L5.5,26ZM5.5,16C5.5,12.231 6.441,9.68 8.061,8.061C9.68,6.441 12.231,5.5 16,5.5L16,2.5C11.769,2.5 8.32,3.559 5.939,5.939C3.559,8.32 2.5,11.769 2.5,16L5.5,16ZM16,5.5L32,5.5L32,2.5L16,2.5L16,5.5ZM32,5.5C35.769,5.5 38.32,6.441 39.939,8.061C41.559,9.68 42.5,12.231 42.5,16L45.5,16C45.5,11.769 44.441,8.32 42.061,5.939C39.68,3.559 36.231,2.5 32,2.5L32,5.5ZM42.5,16L42.5,26L45.5,26L45.5,16L42.5,16ZM42.5,26C42.5,29.769 41.559,32.32 39.939,33.939C38.32,35.559 35.769,36.5 32,36.5L32,39.5C36.231,39.5 39.68,38.441 42.061,36.061C44.441,33.68 45.5,30.231 45.5,26L42.5,26ZM32,36.5L31,36.5L31,39.5L32,39.5L32,36.5ZM31,36.5C29.904,36.5 28.865,37.025 28.206,37.892L30.594,39.708C30.695,39.575 30.856,39.5 31,39.5L31,36.5ZM28.2,37.9L25.2,41.9L27.6,43.7L30.6,39.7L28.2,37.9ZM25.2,41.9C24.782,42.458 24.333,42.62 24,42.62C23.667,42.62 23.218,42.458 22.8,41.9L20.4,43.7C21.302,44.902 22.593,45.62 24,45.62C25.407,45.62 26.698,44.902 27.6,43.7L25.2,41.9ZM22.8,41.9L19.8,37.9L17.4,39.7L20.4,43.7L22.8,41.9ZM19.813,37.918C19.467,37.441 18.979,37.105 18.549,36.891C18.116,36.677 17.566,36.5 17,36.5L17,39.5C16.975,39.5 16.989,39.497 17.041,39.511C17.091,39.524 17.152,39.547 17.216,39.579C17.281,39.611 17.333,39.645 17.369,39.673C17.408,39.703 17.407,39.711 17.387,39.682L19.813,37.918Z" fill="#2E294E"/>
<path d="M31.993,20C30.888,20 29.993,20.895 29.993,22C29.993,23.105 30.888,24 31.993,24L31.993,20ZM32.011,24C33.115,24 34.011,23.105 34.011,22C34.011,20.895 33.115,20 32.011,20L32.011,24ZM31.993,24L32.011,24L32.011,20L31.993,20L31.993,24Z" fill="#2E294E"/>
<path d="M23.991,20C22.886,20 21.991,20.895 21.991,22C21.991,23.105 22.886,24 23.991,24L23.991,20ZM24.009,24C25.113,24 26.009,23.105 26.009,22C26.009,20.895 25.113,20 24.009,20L24.009,24ZM23.991,24L24.009,24L24.009,20L23.991,20L23.991,24Z" fill="#2E294E"/>
<path d="M15.989,20C14.884,20 13.989,20.895 13.989,22C13.989,23.105 14.884,24 15.989,24L15.989,20ZM16.007,24C17.112,24 18.007,23.105 18.007,22C18.007,20.895 17.112,20 16.007,20L16.007,24ZM15.989,24L16.007,24L16.007,20L15.989,20L15.989,24Z" fill="#2E294E"/>
</svg>
