<svg width="48" height="48" viewBox="0 0 48 48" fill="none" xmlns="http://www.w3.org/2000/svg" xmlns:xlink="http://www.w3.org/1999/xlink">
<path d="M18.32,21.74L18.171,23.233C18.237,23.239 18.304,23.241 18.371,23.239L18.32,21.74ZM17.66,21.74L17.61,23.239C17.672,23.241 17.734,23.239 17.796,23.234L17.66,21.74ZM26.88,12.88L28.38,12.886L28.38,12.88L26.88,12.88ZM18.469,20.247C18.166,20.217 17.83,20.218 17.524,20.246L17.796,23.234C17.93,23.222 18.074,23.223 18.171,23.233L18.469,20.247ZM17.711,20.241C13.761,20.108 10.62,16.873 10.62,12.88L7.62,12.88C7.62,18.487 12.039,23.052 17.61,23.239L17.711,20.241ZM10.62,12.88C10.62,8.806 13.911,5.5 18,5.5L18,2.5C12.249,2.5 7.62,7.154 7.62,12.88L10.62,12.88ZM18,5.5C22.072,5.5 25.38,8.808 25.38,12.88L28.38,12.88C28.38,7.152 23.729,2.5 18,2.5L18,5.5ZM25.38,12.874C25.363,16.873 22.218,20.108 18.27,20.241L18.371,23.239C23.942,23.052 28.357,18.487 28.38,12.886L25.38,12.874Z" fill="#FFFFFF"/>
<path d="M32.82,6.5C31.991,6.5 31.32,7.172 31.32,8C31.32,8.828 31.991,9.5 32.82,9.5L32.82,6.5ZM33.08,22L32.894,23.488C32.974,23.498 33.055,23.502 33.136,23.499L33.08,22ZM32.394,20.509C31.571,20.601 30.977,21.342 31.069,22.166C31.16,22.989 31.902,23.582 32.725,23.491L32.394,20.509ZM32.82,9.5C35.868,9.5 38.32,11.966 38.32,15L41.32,15C41.32,10.314 37.531,6.5 32.82,6.5L32.82,9.5ZM38.32,15C38.32,17.969 35.962,20.391 33.023,20.501L33.136,23.499C37.677,23.329 41.32,19.591 41.32,15L38.32,15ZM33.266,20.512C32.976,20.475 32.677,20.478 32.394,20.509L32.725,23.491C32.802,23.482 32.864,23.485 32.894,23.488L33.266,20.512Z" fill="#FFFFFF"/>
<path d="M8.32,29.12L7.492,27.87L7.486,27.874L8.32,29.12ZM8.32,40.86L9.155,39.613L9.151,39.611L8.32,40.86ZM28.34,40.86L29.175,42.107L29.175,42.106L28.34,40.86ZM28.34,29.12L27.507,30.367L27.51,30.369L28.34,29.12ZM7.486,27.874C4.755,29.701 3.19,32.255 3.19,34.997C3.19,37.741 4.756,40.291 7.49,42.109L9.151,39.611C7.044,38.209 6.19,36.509 6.19,34.997C6.19,33.485 7.046,31.779 9.155,30.366L7.486,27.874ZM7.486,42.107C10.535,44.146 14.472,45.12 18.33,45.12C22.189,45.12 26.126,44.146 29.175,42.107L27.506,39.613C25.055,41.254 21.732,42.12 18.33,42.12C14.929,42.12 11.606,41.254 9.155,39.613L7.486,42.107ZM29.175,42.106C31.906,40.279 33.47,37.725 33.47,34.983C33.47,32.239 31.904,29.689 29.171,27.871L27.51,30.369C29.616,31.771 30.47,33.471 30.47,34.983C30.47,36.495 29.615,38.201 27.506,39.614L29.175,42.106ZM29.174,27.873C26.134,25.843 22.202,24.875 18.345,24.875C14.489,24.875 10.548,25.843 7.492,27.87L9.149,30.37C11.612,28.737 14.942,27.875 18.345,27.875C21.749,27.875 25.066,28.737 27.507,30.367L29.174,27.873Z" fill="#FFFFFF"/>
<path d="M36.374,38.532C35.563,38.701 35.042,39.495 35.211,40.306C35.38,41.117 36.175,41.637 36.986,41.468L36.374,38.532ZM40.6,38.26L39.7,37.06L39.686,37.07L40.6,38.26ZM40.6,29.72L39.689,30.912L39.7,30.92L40.6,29.72ZM37.069,26.537C36.261,26.355 35.459,26.862 35.276,27.67C35.094,28.478 35.602,29.281 36.41,29.463L37.069,26.537ZM36.986,41.468C38.613,41.129 40.189,40.467 41.513,39.45L39.686,37.07C38.77,37.773 37.626,38.271 36.374,38.532L36.986,41.468ZM41.5,39.46C43.385,38.046 44.44,36.074 44.44,33.99C44.44,31.906 43.385,29.934 41.5,28.52L39.7,30.92C40.934,31.846 41.44,32.974 41.44,33.99C41.44,35.006 40.934,36.134 39.7,37.06L41.5,39.46ZM41.51,28.528C40.202,27.529 38.65,26.893 37.069,26.537L36.41,29.463C37.669,29.747 38.798,30.231 39.689,30.912L41.51,28.528Z" fill="#FFFFFF"/>
</svg>
