<svg width="48" height="48" viewBox="0 0 48 48" fill="none" xmlns="http://www.w3.org/2000/svg" xmlns:xlink="http://www.w3.org/1999/xlink">
<path d="M18.319,21.74L18.17,23.233C18.236,23.239 18.303,23.241 18.37,23.239L18.319,21.74ZM17.659,21.74L17.609,23.239C17.671,23.241 17.733,23.239 17.795,23.234L17.659,21.74ZM26.879,12.88L28.379,12.886L28.379,12.88L26.879,12.88ZM18.468,20.247C18.165,20.217 17.829,20.218 17.523,20.246L17.795,23.234C17.929,23.222 18.073,23.223 18.17,23.233L18.468,20.247ZM17.71,20.241C13.76,20.108 10.619,16.873 10.619,12.88L7.619,12.88C7.619,18.487 12.038,23.052 17.609,23.239L17.71,20.241ZM10.619,12.88C10.619,8.806 13.91,5.5 17.999,5.5L17.999,2.5C12.249,2.5 7.619,7.154 7.619,12.88L10.619,12.88ZM17.999,5.5C22.071,5.5 25.379,8.808 25.379,12.88L28.379,12.88C28.379,7.152 23.728,2.5 17.999,2.5L17.999,5.5ZM25.379,12.874C25.362,16.873 22.217,20.108 18.269,20.241L18.37,23.239C23.941,23.052 28.356,18.487 28.379,12.886L25.379,12.874Z" fill="#FFFFFF"/>
<path d="M32.821,6.5C31.992,6.5 31.321,7.172 31.321,8C31.321,8.828 31.992,9.5 32.821,9.5L32.821,6.5ZM33.081,22L32.894,23.488C32.975,23.498 33.056,23.502 33.137,23.499L33.081,22ZM32.395,20.509C31.572,20.601 30.978,21.342 31.07,22.166C31.161,22.989 31.903,23.582 32.726,23.491L32.395,20.509ZM32.821,9.5C35.869,9.5 38.321,11.966 38.321,15L41.321,15C41.321,10.314 37.532,6.5 32.821,6.5L32.821,9.5ZM38.321,15C38.321,17.969 35.963,20.391 33.024,20.501L33.137,23.499C37.678,23.329 41.321,19.591 41.321,15L38.321,15ZM33.267,20.512C32.977,20.475 32.678,20.478 32.395,20.509L32.726,23.491C32.803,23.482 32.865,23.485 32.894,23.488L33.267,20.512Z" fill="#FFFFFF"/>
<path d="M8.319,29.12L7.491,27.87L7.485,27.874L8.319,29.12ZM8.319,40.86L9.154,39.613L9.15,39.611L8.319,40.86ZM28.339,40.86L29.174,42.107L29.174,42.106L28.339,40.86ZM28.339,29.12L27.506,30.367L27.509,30.369L28.339,29.12ZM7.485,27.874C4.754,29.701 3.189,32.255 3.189,34.997C3.189,37.741 4.755,40.291 7.489,42.109L9.15,39.611C7.043,38.209 6.189,36.509 6.189,34.997C6.189,33.485 7.045,31.778 9.154,30.366L7.485,27.874ZM7.485,42.107C10.534,44.146 14.471,45.12 18.329,45.12C22.188,45.12 26.125,44.146 29.174,42.107L27.505,39.613C25.054,41.254 21.731,42.12 18.329,42.12C14.928,42.12 11.605,41.254 9.154,39.613L7.485,42.107ZM29.174,42.106C31.905,40.278 33.469,37.725 33.469,34.983C33.469,32.239 31.903,29.689 29.17,27.871L27.509,30.369C29.615,31.771 30.469,33.471 30.469,34.983C30.469,36.495 29.614,38.201 27.505,39.614L29.174,42.106ZM29.173,27.873C26.133,25.843 22.201,24.875 18.344,24.875C14.488,24.875 10.547,25.843 7.491,27.87L9.148,30.37C11.611,28.737 14.941,27.875 18.344,27.875C21.748,27.875 25.065,28.737 27.506,30.367L29.173,27.873Z" fill="#FFFFFF"/>
<path d="M36.374,38.532C35.563,38.7 35.042,39.495 35.211,40.306C35.38,41.117 36.175,41.637 36.986,41.468L36.374,38.532ZM40.6,38.26L39.7,37.06L39.686,37.07L40.6,38.26ZM40.6,29.72L39.689,30.912L39.7,30.92L40.6,29.72ZM37.069,26.537C36.261,26.355 35.459,26.862 35.276,27.67C35.094,28.478 35.602,29.281 36.41,29.463L37.069,26.537ZM36.986,41.468C38.613,41.129 40.189,40.467 41.513,39.45L39.686,37.07C38.77,37.773 37.626,38.271 36.374,38.532L36.986,41.468ZM41.5,39.46C43.385,38.046 44.44,36.074 44.44,33.99C44.44,31.906 43.385,29.934 41.5,28.52L39.7,30.92C40.934,31.846 41.44,32.974 41.44,33.99C41.44,35.006 40.934,36.134 39.7,37.06L41.5,39.46ZM41.51,28.528C40.202,27.529 38.65,26.893 37.069,26.537L36.41,29.463C37.669,29.747 38.798,30.231 39.689,30.912L41.51,28.528Z" fill="#FFFFFF"/>
</svg>
