<svg width="612" height="104" viewBox="0 0 612 104" fill="none" xmlns="http://www.w3.org/2000/svg" xmlns:xlink="http://www.w3.org/1999/xlink">
<path d="M603.13,-1L6.869,-1C3.076,-1 0,3.477 0,9L0,93C0,98.523 3.076,103 6.869,103L603.13,103C606.924,103 610,98.523 610,93L610,9C610,3.477 606.924,-1 603.13,-1Z" fill="#FFFFFF"/>
<path d="M6.869,1L603.131,1L603.131,-1L6.869,-1L6.869,1ZM603.131,1C604.413,1 605.685,1.756 606.679,3.202C607.669,4.644 608.313,6.691 608.313,9L610.313,9C610.313,6.339 609.573,3.885 608.327,2.07C607.083,0.259 605.263,-1 603.131,-1L603.131,1ZM608.313,9L608.313,93L610.313,93L610.313,9L608.313,9ZM608.313,93C608.313,95.309 607.669,97.356 606.679,98.798C605.685,100.244 604.413,101 603.131,101L603.131,103C605.263,103 607.083,101.741 608.327,99.93C609.573,98.115 610.313,95.661 610.313,93L608.313,93ZM603.131,101L6.869,101L6.869,103L603.131,103L603.131,101ZM6.869,101C5.586,101 4.315,100.244 3.322,98.798C2.331,97.356 1.687,95.309 1.687,93L-0.313,93C-0.313,95.661 0.426,98.115 1.673,99.93C2.917,101.741 4.737,103 6.869,103L6.869,101ZM1.687,93L1.687,9L-0.313,9L-0.313,93L1.687,93ZM1.687,9C1.687,6.691 2.331,4.644 3.322,3.202C4.315,1.756 5.586,1 6.869,1L6.869,-1C4.737,-1 2.917,0.259 1.673,2.07C0.426,3.885 -0.313,6.339 -0.313,9L1.687,9Z" fill="#D7D7D7"/>
</svg>
