<svg width="634" height="84" viewBox="0 0 634 84" fill="none" xmlns="http://www.w3.org/2000/svg" xmlns:xlink="http://www.w3.org/1999/xlink">
<path d="M624.882,0.747L7.117,0.747C3.186,0.747 0,4.276 0,8.629L0,74.834C0,79.187 3.186,82.715 7.117,82.715L624.882,82.715C628.814,82.715 632,79.187 632,74.834L632,8.629C632,4.276 628.814,0.747 624.882,0.747Z" fill="#FFFFFF"/>
<path d="M7.117,2.535L624.883,2.535L624.883,0.535L7.117,0.535L7.117,2.535ZM624.883,2.535C627.773,2.535 630.287,5.165 630.287,8.629L632.287,8.629C632.287,4.257 629.065,0.535 624.883,0.535L624.883,2.535ZM630.287,8.629L630.287,74.834L632.287,74.834L632.287,8.629L630.287,8.629ZM630.287,74.834C630.287,78.298 627.773,80.927 624.883,80.927L624.883,82.927C629.065,82.927 632.287,79.205 632.287,74.834L630.287,74.834ZM624.883,80.927L7.117,80.927L7.117,82.927L624.883,82.927L624.883,80.927ZM7.117,80.927C4.225,80.927 1.711,78.298 1.711,74.834L-0.289,74.834C-0.289,79.205 2.933,82.927 7.117,82.927L7.117,80.927ZM1.711,74.834L1.711,8.629L-0.289,8.629L-0.289,74.834L1.711,74.834ZM1.711,8.629C1.711,5.165 4.225,2.535 7.117,2.535L7.117,0.535C2.933,0.535 -0.289,4.257 -0.289,8.629L1.711,8.629Z" fill="#D7D7D7"/>
</svg>
