<svg width="1286" height="104" viewBox="0 0 1286 104" fill="none" xmlns="http://www.w3.org/2000/svg" xmlns:xlink="http://www.w3.org/1999/xlink">
<path d="M1271.518,-1L14.482,-1C6.484,-1 0,3.477 0,9L0,93C0,98.523 6.484,103 14.482,103L1271.518,103C1279.516,103 1286,98.523 1286,93L1286,9C1286,3.477 1279.516,-1 1271.518,-1Z" fill="#FFFFFF"/>
<path d="M14.482,1L1271.518,1L1271.518,-1L14.482,-1L14.482,1ZM1271.518,1C1274.94,1 1277.994,1.959 1280.166,3.459C1282.342,4.961 1283.552,6.937 1283.552,9L1285.552,9C1285.552,6.093 1283.844,3.568 1281.302,1.813C1278.756,0.055 1275.294,-1 1271.518,-1L1271.518,1ZM1283.552,9L1283.552,93L1285.552,93L1285.552,9L1283.552,9ZM1283.552,93C1283.552,95.063 1282.342,97.039 1280.166,98.541C1277.994,100.041 1274.94,101 1271.518,101L1271.518,103C1275.294,103 1278.756,101.945 1281.302,100.187C1283.844,98.432 1285.552,95.907 1285.552,93L1283.552,93ZM1271.518,101L14.482,101L14.482,103L1271.518,103L1271.518,101ZM14.482,101C11.06,101 8.005,100.041 5.834,98.541C3.658,97.039 2.448,95.063 2.448,93L0.448,93C0.448,95.907 2.156,98.432 4.698,100.187C7.243,101.945 10.706,103 14.482,103L14.482,101ZM2.448,93L2.448,9L0.448,9L0.448,93L2.448,93ZM2.448,9C2.448,6.937 3.658,4.961 5.834,3.459C8.005,1.959 11.06,1 14.482,1L14.482,-1C10.706,-1 7.243,0.055 4.698,1.813C2.156,3.568 0.448,6.093 0.448,9L2.448,9Z" fill="#D7D7D7"/>
</svg>
