<svg width="1286" height="104" viewBox="0 0 1286 104" fill="none" xmlns="http://www.w3.org/2000/svg" xmlns:xlink="http://www.w3.org/1999/xlink">
<path d="M1271.518,0L14.482,0C6.484,0 0,4.477 0,10L0,94C0,99.523 6.484,104 14.482,104L1271.518,104C1279.516,104 1286,99.523 1286,94L1286,10C1286,4.477 1279.516,0 1271.518,0Z" fill="#FFFFFF"/>
<path d="M14.482,2L1271.518,2L1271.518,0L14.482,0L14.482,2ZM1271.518,2C1274.94,2 1277.994,2.959 1280.166,4.459C1282.342,5.961 1283.552,7.937 1283.552,10L1285.552,10C1285.552,7.093 1283.844,4.568 1281.302,2.813C1278.756,1.055 1275.294,0 1271.518,0L1271.518,2ZM1283.552,10L1283.552,94L1285.552,94L1285.552,10L1283.552,10ZM1283.552,94C1283.552,96.063 1282.342,98.039 1280.166,99.541C1277.994,101.041 1274.94,102 1271.518,102L1271.518,104C1275.294,104 1278.756,102.945 1281.302,101.187C1283.844,99.432 1285.552,96.907 1285.552,94L1283.552,94ZM1271.518,102L14.482,102L14.482,104L1271.518,104L1271.518,102ZM14.482,102C11.06,102 8.005,101.041 5.834,99.541C3.658,98.039 2.448,96.063 2.448,94L0.448,94C0.448,96.907 2.156,99.432 4.698,101.187C7.243,102.945 10.706,104 14.482,104L14.482,102ZM2.448,94L2.448,10L0.448,10L0.448,94L2.448,94ZM2.448,10C2.448,7.937 3.658,5.961 5.834,4.459C8.005,2.959 11.06,2 14.482,2L14.482,0C10.706,0 7.243,1.055 4.698,2.813C2.156,4.568 0.448,7.093 0.448,10L2.448,10Z" fill="#D7D7D7"/>
</svg>
