<svg width="634" height="104" viewBox="0 0 634 104" fill="none" xmlns="http://www.w3.org/2000/svg" xmlns:xlink="http://www.w3.org/1999/xlink">
<path d="M624.882,-1L7.117,-1C3.186,-1 0,3.477 0,9L0,93C0,98.523 3.186,103 7.117,103L624.882,103C628.814,103 632,98.523 632,93L632,9C632,3.477 628.814,-1 624.882,-1Z" fill="#FFFFFF"/>
<path d="M7.117,1L624.884,1L624.884,-1L7.117,-1L7.117,1ZM624.884,1C626.244,1 627.572,1.773 628.598,3.216C629.624,4.657 630.288,6.698 630.288,9L632.288,9C632.288,6.331 631.52,3.873 630.228,2.056C628.936,0.242 627.06,-1 624.884,-1L624.884,1ZM630.288,9L630.288,93L632.288,93L632.288,9L630.288,9ZM630.288,93C630.288,95.302 629.624,97.343 628.598,98.784C627.572,100.227 626.244,101 624.884,101L624.884,103C627.06,103 628.936,101.758 630.228,99.944C631.52,98.127 632.288,95.669 632.288,93L630.288,93ZM624.884,101L7.117,101L7.117,103L624.884,103L624.884,101ZM7.117,101C5.757,101 4.43,100.227 3.403,98.784C2.377,97.343 1.712,95.302 1.712,93L-0.288,93C-0.288,95.669 0.48,98.127 1.773,99.944C3.065,101.758 4.94,103 7.117,103L7.117,101ZM1.712,93L1.712,9L-0.288,9L-0.288,93L1.712,93ZM1.712,9C1.712,6.698 2.377,4.657 3.403,3.216C4.43,1.773 5.757,1 7.117,1L7.117,-1C4.94,-1 3.065,0.242 1.773,2.056C0.48,3.873 -0.288,6.331 -0.288,9L1.712,9Z" fill="#D7D7D7"/>
</svg>
