<svg width="1520" height="374" viewBox="0 0 1520 374" fill="none" xmlns="http://www.w3.org/2000/svg" xmlns:xlink="http://www.w3.org/1999/xlink">
<path d="M1502.882,0L17.117,0C7.664,0 0,16.101 0,35.962L0,338.038C0,357.9 7.664,374 17.117,374L1502.882,374C1512.336,374 1520,357.9 1520,338.038L1520,35.962C1520,16.101 1512.336,0 1502.882,0Z" fill="#FFFFFF"/>
<path d="M17.116,4.596L1502.883,4.596L1502.883,2.596L17.116,2.596L17.116,4.596ZM1502.883,4.596C1506.527,4.596 1510.127,7.735 1512.873,13.505C1515.583,19.2 1517.287,27.139 1517.287,35.961L1519.287,35.961C1519.287,26.909 1517.543,18.664 1514.679,12.646C1511.849,6.702 1507.745,2.596 1502.883,2.596L1502.883,4.596ZM1517.287,35.961L1517.287,338.038L1519.287,338.038L1519.287,35.961L1517.287,35.961ZM1517.287,338.038C1517.287,346.86 1515.583,354.8 1512.873,360.494C1510.127,366.264 1506.527,369.404 1502.883,369.404L1502.883,371.404C1507.745,371.404 1511.849,367.298 1514.679,361.354C1517.543,355.336 1519.287,347.09 1519.287,338.038L1517.287,338.038ZM1502.883,369.404L17.116,369.404L17.116,371.404L1502.883,371.404L1502.883,369.404ZM17.116,369.404C13.471,369.404 9.872,366.264 7.126,360.494C4.415,354.8 2.711,346.86 2.711,338.038L0.711,338.038C0.711,347.09 2.455,355.336 5.32,361.354C8.149,367.298 12.253,371.404 17.116,371.404L17.116,369.404ZM2.711,338.038L2.711,35.961L0.711,35.961L0.711,338.038L2.711,338.038ZM2.711,35.961C2.711,27.139 4.415,19.2 7.126,13.505C9.872,7.735 13.471,4.596 17.116,4.596L17.116,2.596C12.253,2.596 8.149,6.702 5.32,12.646C2.455,18.664 0.711,26.909 0.711,35.961L2.711,35.961Z" fill="#D7D7D7"/>
</svg>
