<svg width="634" height="84" viewBox="0 0 634 84" fill="none" xmlns="http://www.w3.org/2000/svg" xmlns:xlink="http://www.w3.org/1999/xlink">
<path d="M624.882,1.049L7.117,1.049C3.186,1.049 0,4.578 0,8.931L0,75.136C0,79.489 3.186,83.018 7.117,83.018L624.882,83.018C628.814,83.018 632,79.489 632,75.136L632,8.931C632,4.578 628.814,1.049 624.882,1.049Z" fill="#FFFFFF"/>
<path d="M7.117,2.837L624.883,2.837L624.883,0.837L7.117,0.837L7.117,2.837ZM624.883,2.837C627.773,2.837 630.287,5.467 630.287,8.931L632.287,8.931C632.287,4.559 629.065,0.837 624.883,0.837L624.883,2.837ZM630.287,8.931L630.287,75.136L632.287,75.136L632.287,8.931L630.287,8.931ZM630.287,75.136C630.287,78.6 627.773,81.229 624.883,81.229L624.883,83.229C629.065,83.229 632.287,79.507 632.287,75.136L630.287,75.136ZM624.883,81.229L7.117,81.229L7.117,83.229L624.883,83.229L624.883,81.229ZM7.117,81.229C4.225,81.229 1.711,78.6 1.711,75.136L-0.289,75.136C-0.289,79.507 2.933,83.229 7.117,83.229L7.117,81.229ZM1.711,75.136L1.711,8.931L-0.289,8.931L-0.289,75.136L1.711,75.136ZM1.711,8.931C1.711,5.467 4.225,2.837 7.117,2.837L7.117,0.837C2.933,0.837 -0.289,4.559 -0.289,8.931L1.711,8.931Z" fill="#D7D7D7"/>
</svg>
