<svg width="1288" height="104" viewBox="0 0 1288 104" fill="none" xmlns="http://www.w3.org/2000/svg" xmlns:xlink="http://www.w3.org/1999/xlink">
<path d="M1273.496,-1L14.504,-1C6.494,-1 0,3.477 0,9L0,93C0,98.523 6.494,103 14.504,103L1273.496,103C1281.506,103 1288,98.523 1288,93L1288,9C1288,3.477 1281.506,-1 1273.496,-1Z" fill="#FFFFFF"/>
<path d="M14.504,1L1273.496,1L1273.496,-1L14.504,-1L14.504,1ZM1273.496,1C1276.924,1 1279.982,1.96 1282.158,3.459C1284.338,4.962 1285.55,6.938 1285.55,9L1287.55,9C1287.55,6.092 1285.838,3.568 1283.294,1.813C1280.744,0.055 1277.276,-1 1273.496,-1L1273.496,1ZM1285.55,9L1285.55,93L1287.55,93L1287.55,9L1285.55,9ZM1285.55,93C1285.55,95.062 1284.338,97.038 1282.158,98.541C1279.982,100.04 1276.924,101 1273.496,101L1273.496,103C1277.276,103 1280.744,101.945 1283.294,100.187C1285.838,98.433 1287.55,95.908 1287.55,93L1285.55,93ZM1273.496,101L14.504,101L14.504,103L1273.496,103L1273.496,101ZM14.504,101C11.076,101 8.016,100.04 5.841,98.541C3.662,97.038 2.45,95.062 2.45,93L0.45,93C0.45,95.908 2.161,98.433 4.706,100.187C7.255,101.945 10.723,103 14.504,103L14.504,101ZM2.45,93L2.45,9L0.45,9L0.45,93L2.45,93ZM2.45,9C2.45,6.938 3.662,4.962 5.841,3.459C8.016,1.96 11.076,1 14.504,1L14.504,-1C10.723,-1 7.255,0.055 4.706,1.813C2.161,3.568 0.45,6.092 0.45,9L2.45,9Z" fill="#D7D7D7"/>
</svg>
