<svg width="1296" height="104" viewBox="0 0 1296 104" fill="none" xmlns="http://www.w3.org/2000/svg" xmlns:xlink="http://www.w3.org/1999/xlink">
<path d="M1281.406,0L14.595,0C6.534,0 0,4.477 0,10L0,94C0,99.523 6.534,104 14.595,104L1281.406,104C1289.466,104 1296,99.523 1296,94L1296,10C1296,4.477 1289.466,0 1281.406,0Z" fill="#FFFFFF"/>
<path d="M14.595,2L1281.406,2L1281.406,0L14.595,0L14.595,2ZM1281.406,2C1284.858,2 1287.938,2.96 1290.128,4.461C1292.324,5.965 1293.542,7.94 1293.542,10L1295.542,10C1295.542,7.089 1293.818,4.565 1291.26,2.811C1288.696,1.054 1285.208,0 1281.406,0L1281.406,2ZM1293.542,10L1293.542,94L1295.542,94L1295.542,10L1293.542,10ZM1293.542,94C1293.542,96.06 1292.324,98.035 1290.128,99.539C1287.938,101.04 1284.858,102 1281.406,102L1281.406,104C1285.208,104 1288.696,102.946 1291.26,101.189C1293.818,99.435 1295.542,96.911 1295.542,94L1293.542,94ZM1281.406,102L14.595,102L14.595,104L1281.406,104L1281.406,102ZM14.595,102C11.143,102 8.063,101.04 5.872,99.539C3.678,98.035 2.46,96.06 2.46,94L0.46,94C0.46,96.911 2.183,99.435 4.742,101.189C7.306,102.946 10.792,104 14.595,104L14.595,102ZM2.46,94L2.46,10L0.46,10L0.46,94L2.46,94ZM2.46,10C2.46,7.94 3.678,5.965 5.872,4.461C8.063,2.96 11.143,2 14.595,2L14.595,0C10.792,0 7.306,1.054 4.742,2.811C2.183,4.565 0.46,7.089 0.46,10L2.46,10Z" fill="#D7D7D7"/>
</svg>
