<svg width="612" height="84" viewBox="0 0 612 84" fill="none" xmlns="http://www.w3.org/2000/svg" xmlns:xlink="http://www.w3.org/1999/xlink">
<path d="M603.13,0.853L6.869,0.853C3.076,0.853 0,4.381 0,8.734L0,74.939C0,79.292 3.076,82.821 6.869,82.821L603.13,82.821C606.924,82.821 610,79.292 610,74.939L610,8.734C610,4.381 606.924,0.853 603.13,0.853Z" fill="#FFFFFF"/>
<path d="M6.869,2.641L603.131,2.641L603.131,0.641L6.869,0.641L6.869,2.641ZM603.131,2.641C605.869,2.641 608.313,5.235 608.313,8.734L610.313,8.734C610.313,4.398 607.223,0.641 603.131,0.641L603.131,2.641ZM608.313,8.734L608.313,74.939L610.313,74.939L610.313,8.734L608.313,8.734ZM608.313,74.939C608.313,78.438 605.869,81.033 603.131,81.033L603.131,83.033C607.223,83.033 610.313,79.276 610.313,74.939L608.313,74.939ZM603.131,81.033L6.869,81.033L6.869,83.033L603.131,83.033L603.131,81.033ZM6.869,81.033C4.132,81.033 1.687,78.438 1.687,74.939L-0.313,74.939C-0.313,79.276 2.778,83.033 6.869,83.033L6.869,81.033ZM1.687,74.939L1.687,8.734L-0.313,8.734L-0.313,74.939L1.687,74.939ZM1.687,8.734C1.687,5.235 4.132,2.641 6.869,2.641L6.869,0.641C2.778,0.641 -0.313,4.398 -0.313,8.734L1.687,8.734Z" fill="#D7D7D7"/>
</svg>
