<svg width="608" height="104" viewBox="0 0 608 104" fill="none" xmlns="http://www.w3.org/2000/svg" xmlns:xlink="http://www.w3.org/1999/xlink">
<path d="M599.176,0L6.824,0C3.055,0 0,4.477 0,10L0,94C0,99.523 3.055,104 6.824,104L599.176,104C602.944,104 606,99.523 606,94L606,10C606,4.477 602.944,0 599.176,0Z" fill="#FFFFFF"/>
<path d="M6.824,2L599.176,2L599.176,0L6.824,0L6.824,2ZM599.176,2C600.444,2 601.704,2.753 602.692,4.2C603.676,5.642 604.318,7.689 604.318,10L606.318,10C606.318,7.34 605.584,4.888 604.344,3.072C603.108,1.262 601.298,0 599.176,0L599.176,2ZM604.318,10L604.318,94L606.318,94L606.318,10L604.318,10ZM604.318,94C604.318,96.311 603.676,98.358 602.692,99.8C601.704,101.247 600.444,102 599.176,102L599.176,104C601.298,104 603.108,102.738 604.344,100.928C605.584,99.112 606.318,96.66 606.318,94L604.318,94ZM599.176,102L6.824,102L6.824,104L599.176,104L599.176,102ZM6.824,102C5.555,102 4.294,101.247 3.307,99.8C2.323,98.358 1.682,96.311 1.682,94L-0.318,94C-0.318,96.66 0.416,99.112 1.655,100.928C2.891,102.738 4.7,104 6.824,104L6.824,102ZM1.682,94L1.682,10L-0.318,10L-0.318,94L1.682,94ZM1.682,10C1.682,7.689 2.323,5.642 3.307,4.2C4.294,2.753 5.555,2 6.824,2L6.824,0C4.7,0 2.891,1.262 1.655,3.072C0.416,4.888 -0.318,7.34 -0.318,10L1.682,10Z" fill="#D7D7D7"/>
</svg>
