<svg width="612" height="84" viewBox="0 0 612 84" fill="none" xmlns="http://www.w3.org/2000/svg" xmlns:xlink="http://www.w3.org/1999/xlink">
<path d="M603.13,1.049L6.869,1.049C3.076,1.049 0,4.578 0,8.931L0,75.136C0,79.489 3.076,83.018 6.869,83.018L603.13,83.018C606.924,83.018 610,79.489 610,75.136L610,8.931C610,4.578 606.924,1.049 603.13,1.049Z" fill="#FFFFFF"/>
<path d="M6.869,2.837L603.131,2.837L603.131,0.837L6.869,0.837L6.869,2.837ZM603.131,2.837C605.869,2.837 608.313,5.432 608.313,8.931L610.313,8.931C610.313,4.594 607.223,0.837 603.131,0.837L603.131,2.837ZM608.313,8.931L608.313,75.136L610.313,75.136L610.313,8.931L608.313,8.931ZM608.313,75.136C608.313,78.635 605.869,81.229 603.131,81.229L603.131,83.229C607.223,83.229 610.313,79.472 610.313,75.136L608.313,75.136ZM603.131,81.229L6.869,81.229L6.869,83.229L603.131,83.229L603.131,81.229ZM6.869,81.229C4.132,81.229 1.687,78.635 1.687,75.136L-0.313,75.136C-0.313,79.472 2.778,83.229 6.869,83.229L6.869,81.229ZM1.687,75.136L1.687,8.931L-0.313,8.931L-0.313,75.136L1.687,75.136ZM1.687,8.931C1.687,5.432 4.132,2.837 6.869,2.837L6.869,0.837C2.778,0.837 -0.313,4.594 -0.313,8.931L1.687,8.931Z" fill="#D7D7D7"/>
</svg>
