<svg width="608" height="104" viewBox="0 0 608 104" fill="none" xmlns="http://www.w3.org/2000/svg" xmlns:xlink="http://www.w3.org/1999/xlink">
<path d="M599.176,0L6.824,0C3.055,0 0,4.477 0,10L0,94C0,99.523 3.055,104 6.824,104L599.176,104C602.944,104 606,99.523 606,94L606,10C606,4.477 602.944,0 599.176,0Z" fill="#FFFFFF"/>
<path d="M6.825,2L599.177,2L599.177,0L6.825,0L6.825,2ZM599.177,2C600.445,2 601.705,2.753 602.693,4.2C603.677,5.642 604.319,7.689 604.319,10L606.319,10C606.319,7.34 605.585,4.888 604.345,3.072C603.109,1.262 601.299,0 599.177,0L599.177,2ZM604.319,10L604.319,94L606.319,94L606.319,10L604.319,10ZM604.319,94C604.319,96.311 603.677,98.358 602.693,99.8C601.705,101.247 600.445,102 599.177,102L599.177,104C601.299,104 603.109,102.738 604.345,100.928C605.585,99.112 606.319,96.66 606.319,94L604.319,94ZM599.177,102L6.825,102L6.825,104L599.177,104L599.177,102ZM6.825,102C5.556,102 4.295,101.247 3.308,99.8C2.323,98.358 1.683,96.311 1.683,94L-0.317,94C-0.317,96.66 0.417,99.112 1.656,100.928C2.891,102.738 4.701,104 6.825,104L6.825,102ZM1.683,94L1.683,10L-0.317,10L-0.317,94L1.683,94ZM1.683,10C1.683,7.689 2.323,5.642 3.308,4.2C4.295,2.753 5.556,2 6.825,2L6.825,0C4.701,0 2.891,1.262 1.656,3.072C0.417,4.888 -0.317,7.34 -0.317,10L1.683,10Z" fill="#D7D7D7"/>
</svg>
