<svg width="634" height="84" viewBox="0 0 634 84" fill="none" xmlns="http://www.w3.org/2000/svg" xmlns:xlink="http://www.w3.org/1999/xlink">
<path d="M624.882,0.853L7.117,0.853C3.186,0.853 0,4.381 0,8.734L0,74.939C0,79.292 3.186,82.821 7.117,82.821L624.882,82.821C628.814,82.821 632,79.292 632,74.939L632,8.734C632,4.381 628.814,0.853 624.882,0.853Z" fill="#FFFFFF"/>
<path d="M7.117,2.641L624.883,2.641L624.883,0.641L7.117,0.641L7.117,2.641ZM624.883,2.641C627.773,2.641 630.287,5.27 630.287,8.734L632.287,8.734C632.287,4.363 629.065,0.641 624.883,0.641L624.883,2.641ZM630.287,8.734L630.287,74.939L632.287,74.939L632.287,8.734L630.287,8.734ZM630.287,74.939C630.287,78.403 627.773,81.033 624.883,81.033L624.883,83.033C629.065,83.033 632.287,79.311 632.287,74.939L630.287,74.939ZM624.883,81.033L7.117,81.033L7.117,83.033L624.883,83.033L624.883,81.033ZM7.117,81.033C4.225,81.033 1.711,78.403 1.711,74.939L-0.289,74.939C-0.289,79.311 2.933,83.033 7.117,83.033L7.117,81.033ZM1.711,74.939L1.711,8.734L-0.289,8.734L-0.289,74.939L1.711,74.939ZM1.711,8.734C1.711,5.27 4.225,2.641 7.117,2.641L7.117,0.641C2.933,0.641 -0.289,4.363 -0.289,8.734L1.711,8.734Z" fill="#D7D7D7"/>
</svg>
