<svg width="1288" height="104" viewBox="0 0 1288 104" fill="none" xmlns="http://www.w3.org/2000/svg" xmlns:xlink="http://www.w3.org/1999/xlink">
<path d="M1273.496,0L14.504,0C6.494,0 0,4.477 0,10L0,94C0,99.523 6.494,104 14.504,104L1273.496,104C1281.506,104 1288,99.523 1288,94L1288,10C1288,4.477 1281.506,0 1273.496,0Z" fill="#FFFFFF"/>
<path d="M14.504,2L1273.496,2L1273.496,0L14.504,0L14.504,2ZM1273.496,2C1276.924,2 1279.982,2.96 1282.158,4.459C1284.338,5.962 1285.55,7.938 1285.55,10L1287.55,10C1287.55,7.092 1285.838,4.568 1283.294,2.813C1280.744,1.055 1277.276,0 1273.496,0L1273.496,2ZM1285.55,10L1285.55,94L1287.55,94L1287.55,10L1285.55,10ZM1285.55,94C1285.55,96.062 1284.338,98.038 1282.158,99.541C1279.982,101.04 1276.924,102 1273.496,102L1273.496,104C1277.276,104 1280.744,102.945 1283.294,101.187C1285.838,99.433 1287.55,96.908 1287.55,94L1285.55,94ZM1273.496,102L14.504,102L14.504,104L1273.496,104L1273.496,102ZM14.504,102C11.076,102 8.016,101.04 5.841,99.541C3.662,98.038 2.45,96.062 2.45,94L0.45,94C0.45,96.908 2.161,99.433 4.706,101.187C7.255,102.945 10.723,104 14.504,104L14.504,102ZM2.45,94L2.45,10L0.45,10L0.45,94L2.45,94ZM2.45,10C2.45,7.938 3.662,5.962 5.841,4.459C8.016,2.96 11.076,2 14.504,2L14.504,0C10.723,0 7.255,1.055 4.706,2.813C2.161,4.568 0.45,7.092 0.45,10L2.45,10Z" fill="#D7D7D7"/>
</svg>
