<svg width="1296" height="104" viewBox="0 0 1296 104" fill="none" xmlns="http://www.w3.org/2000/svg" xmlns:xlink="http://www.w3.org/1999/xlink">
<path d="M1281.406,-1L14.595,-1C6.534,-1 0,3.477 0,9L0,93C0,98.523 6.534,103 14.595,103L1281.406,103C1289.466,103 1296,98.523 1296,93L1296,9C1296,3.477 1289.466,-1 1281.406,-1Z" fill="#FFFFFF"/>
<path d="M14.595,1L1281.406,1L1281.406,-1L14.595,-1L14.595,1ZM1281.406,1C1284.858,1 1287.938,1.96 1290.128,3.461C1292.324,4.965 1293.542,6.94 1293.542,9L1295.542,9C1295.542,6.089 1293.818,3.565 1291.26,1.811C1288.696,0.054 1285.208,-1 1281.406,-1L1281.406,1ZM1293.542,9L1293.542,93L1295.542,93L1295.542,9L1293.542,9ZM1293.542,93C1293.542,95.06 1292.324,97.035 1290.128,98.539C1287.938,100.04 1284.858,101 1281.406,101L1281.406,103C1285.208,103 1288.696,101.946 1291.26,100.189C1293.818,98.435 1295.542,95.911 1295.542,93L1293.542,93ZM1281.406,101L14.595,101L14.595,103L1281.406,103L1281.406,101ZM14.595,101C11.143,101 8.063,100.04 5.872,98.539C3.678,97.035 2.46,95.06 2.46,93L0.46,93C0.46,95.911 2.183,98.435 4.742,100.189C7.306,101.946 10.792,103 14.595,103L14.595,101ZM2.46,93L2.46,9L0.46,9L0.46,93L2.46,93ZM2.46,9C2.46,6.94 3.678,4.965 5.872,3.461C8.063,1.96 11.143,1 14.595,1L14.595,-1C10.792,-1 7.306,0.054 4.742,1.811C2.183,3.565 0.46,6.089 0.46,9L2.46,9Z" fill="#D7D7D7"/>
</svg>
