<svg width="634" height="104" viewBox="0 0 634 104" fill="none" xmlns="http://www.w3.org/2000/svg" xmlns:xlink="http://www.w3.org/1999/xlink">
<path d="M624.882,0L7.117,0C3.186,0 0,4.477 0,10L0,94C0,99.523 3.186,104 7.117,104L624.882,104C628.814,104 632,99.523 632,94L632,10C632,4.477 628.814,0 624.882,0Z" fill="#FFFFFF"/>
<path d="M7.117,2L624.884,2L624.884,0L7.117,0L7.117,2ZM624.884,2C626.244,2 627.572,2.773 628.598,4.216C629.624,5.656 630.288,7.698 630.288,10L632.288,10C632.288,7.331 631.52,4.873 630.228,3.056C628.936,1.242 627.06,0 624.884,0L624.884,2ZM630.288,10L630.288,94L632.288,94L632.288,10L630.288,10ZM630.288,94C630.288,96.302 629.624,98.343 628.598,99.784C627.572,101.227 626.244,102 624.884,102L624.884,104C627.06,104 628.936,102.758 630.228,100.944C631.52,99.127 632.288,96.669 632.288,94L630.288,94ZM624.884,102L7.117,102L7.117,104L624.884,104L624.884,102ZM7.117,102C5.757,102 4.43,101.227 3.403,99.784C2.377,98.343 1.712,96.302 1.712,94L-0.288,94C-0.288,96.669 0.48,99.127 1.773,100.944C3.065,102.758 4.94,104 7.117,104L7.117,102ZM1.712,94L1.712,10L-0.288,10L-0.288,94L1.712,94ZM1.712,10C1.712,7.698 2.377,5.656 3.403,4.216C4.43,2.773 5.757,2 7.117,2L7.117,0C4.94,0 3.065,1.242 1.773,3.056C0.48,4.873 -0.288,7.331 -0.288,10L1.712,10Z" fill="#D7D7D7"/>
</svg>
