<svg width="634" height="84" viewBox="0 0 634 84" fill="none" xmlns="http://www.w3.org/2000/svg" xmlns:xlink="http://www.w3.org/1999/xlink">
<path d="M624.882,1.112L7.117,1.112C3.186,1.112 0,4.641 0,8.993L0,75.199C0,79.551 3.186,83.08 7.117,83.08L624.882,83.08C628.814,83.08 632,79.551 632,75.199L632,8.993C632,4.641 628.814,1.112 624.882,1.112Z" fill="#FFFFFF"/>
<path d="M7.117,2.9L624.883,2.9L624.883,0.9L7.117,0.9L7.117,2.9ZM624.883,2.9C627.773,2.9 630.287,5.53 630.287,8.993L632.287,8.993C632.287,4.622 629.065,0.9 624.883,0.9L624.883,2.9ZM630.287,8.993L630.287,75.199L632.287,75.199L632.287,8.993L630.287,8.993ZM630.287,75.199C630.287,78.662 627.773,81.292 624.883,81.292L624.883,83.292C629.065,83.292 632.287,79.57 632.287,75.199L630.287,75.199ZM624.883,81.292L7.117,81.292L7.117,83.292L624.883,83.292L624.883,81.292ZM7.117,81.292C4.225,81.292 1.711,78.662 1.711,75.199L-0.289,75.199C-0.289,79.57 2.933,83.292 7.117,83.292L7.117,81.292ZM1.711,75.199L1.711,8.993L-0.289,8.993L-0.289,75.199L1.711,75.199ZM1.711,8.993C1.711,5.53 4.225,2.9 7.117,2.9L7.117,0.9C2.933,0.9 -0.289,4.622 -0.289,8.993L1.711,8.993Z" fill="#D7D7D7"/>
</svg>
