<svg width="1296" height="104" viewBox="0 0 1296 104" fill="none" xmlns="http://www.w3.org/2000/svg" xmlns:xlink="http://www.w3.org/1999/xlink">
<path d="M1281.406,0L14.595,0C6.534,0 0,4.477 0,10L0,94C0,99.523 6.534,104 14.595,104L1281.406,104C1289.466,104 1296,99.523 1296,94L1296,10C1296,4.477 1289.466,0 1281.406,0Z" fill="#FFFFFF"/>
<path d="M14.595,2L1281.405,2L1281.405,0L14.595,0L14.595,2ZM1281.405,2C1284.857,2 1287.937,2.96 1290.127,4.461C1292.323,5.965 1293.541,7.94 1293.541,10L1295.541,10C1295.541,7.089 1293.817,4.565 1291.259,2.811C1288.695,1.054 1285.207,0 1281.405,0L1281.405,2ZM1293.541,10L1293.541,94L1295.541,94L1295.541,10L1293.541,10ZM1293.541,94C1293.541,96.06 1292.323,98.035 1290.127,99.539C1287.937,101.04 1284.857,102 1281.405,102L1281.405,104C1285.207,104 1288.695,102.946 1291.259,101.189C1293.817,99.435 1295.541,96.911 1295.541,94L1293.541,94ZM1281.405,102L14.595,102L14.595,104L1281.405,104L1281.405,102ZM14.595,102C11.143,102 8.062,101.04 5.872,99.539C3.677,98.035 2.459,96.06 2.459,94L0.459,94C0.459,96.911 2.182,99.435 4.741,101.189C7.305,102.946 10.792,104 14.595,104L14.595,102ZM2.459,94L2.459,10L0.459,10L0.459,94L2.459,94ZM2.459,10C2.459,7.94 3.677,5.965 5.872,4.461C8.062,2.96 11.143,2 14.595,2L14.595,0C10.792,0 7.305,1.054 4.741,2.811C2.182,4.565 0.459,7.089 0.459,10L2.459,10Z" fill="#D7D7D7"/>
</svg>
