<svg width="1286" height="84" viewBox="0 0 1286 84" fill="none" xmlns="http://www.w3.org/2000/svg" xmlns:xlink="http://www.w3.org/1999/xlink">
<path d="M1271.518,0.079L14.482,0.079C6.484,0.079 0,3.607 0,7.96L0,74.165C0,78.518 6.484,82.047 14.482,82.047L1271.518,82.047C1279.516,82.047 1286,78.518 1286,74.165L1286,7.96C1286,3.607 1279.516,0.079 1271.518,0.079Z" fill="#FFFFFF"/>
<path d="M14.482,1.867L1271.518,1.867L1271.518,-0.133L14.482,-0.133L14.482,1.867ZM1271.518,1.867C1274.984,1.867 1278.07,2.633 1280.256,3.823C1282.48,5.033 1283.552,6.54 1283.552,7.96L1285.552,7.96C1285.552,5.463 1283.706,3.423 1281.212,2.066C1278.68,0.688 1275.25,-0.133 1271.518,-0.133L1271.518,1.867ZM1283.552,7.96L1283.552,74.165L1285.552,74.165L1285.552,7.96L1283.552,7.96ZM1283.552,74.165C1283.552,75.585 1282.48,77.092 1280.256,78.303C1278.07,79.492 1274.984,80.259 1271.518,80.259L1271.518,82.259C1275.25,82.259 1278.68,81.437 1281.212,80.059C1283.706,78.702 1285.552,76.663 1285.552,74.165L1283.552,74.165ZM1271.518,80.259L14.482,80.259L14.482,82.259L1271.518,82.259L1271.518,80.259ZM14.482,80.259C11.017,80.259 7.929,79.492 5.744,78.303C3.52,77.092 2.448,75.585 2.448,74.165L0.448,74.165C0.448,76.663 2.294,78.702 4.788,80.059C7.32,81.437 10.749,82.259 14.482,82.259L14.482,80.259ZM2.448,74.165L2.448,7.96L0.448,7.96L0.448,74.165L2.448,74.165ZM2.448,7.96C2.448,6.54 3.52,5.033 5.744,3.823C7.929,2.633 11.017,1.867 14.482,1.867L14.482,-0.133C10.749,-0.133 7.32,0.688 4.788,2.066C2.294,3.423 0.448,5.463 0.448,7.96L2.448,7.96Z" fill="#D7D7D7"/>
</svg>
