<svg width="612" height="104" viewBox="0 0 612 104" fill="none" xmlns="http://www.w3.org/2000/svg" xmlns:xlink="http://www.w3.org/1999/xlink">
<path d="M603.13,0L6.869,0C3.076,0 0,4.477 0,10L0,94C0,99.523 3.076,104 6.869,104L603.13,104C606.924,104 610,99.523 610,94L610,10C610,4.477 606.924,0 603.13,0Z" fill="#FFFFFF"/>
<path d="M6.869,2L603.131,2L603.131,0L6.869,0L6.869,2ZM603.131,2C604.413,2 605.685,2.756 606.679,4.202C607.669,5.644 608.313,7.691 608.313,10L610.313,10C610.313,7.339 609.573,4.885 608.327,3.07C607.083,1.259 605.263,0 603.131,0L603.131,2ZM608.313,10L608.313,94L610.313,94L610.313,10L608.313,10ZM608.313,94C608.313,96.309 607.669,98.356 606.679,99.798C605.685,101.244 604.413,102 603.131,102L603.131,104C605.263,104 607.083,102.741 608.327,100.93C609.573,99.115 610.313,96.661 610.313,94L608.313,94ZM603.131,102L6.869,102L6.869,104L603.131,104L603.131,102ZM6.869,102C5.586,102 4.315,101.244 3.322,99.798C2.331,98.356 1.687,96.309 1.687,94L-0.313,94C-0.313,96.661 0.426,99.115 1.673,100.93C2.917,102.741 4.737,104 6.869,104L6.869,102ZM1.687,94L1.687,10L-0.313,10L-0.313,94L1.687,94ZM1.687,10C1.687,7.691 2.331,5.644 3.322,4.202C4.315,2.756 5.586,2 6.869,2L6.869,0C4.737,0 2.917,1.259 1.673,3.07C0.426,4.885 -0.313,7.339 -0.313,10L1.687,10Z" fill="#D7D7D7"/>
</svg>
