<svg width="1288" height="104" viewBox="0 0 1288 104" fill="none" xmlns="http://www.w3.org/2000/svg" xmlns:xlink="http://www.w3.org/1999/xlink">
<path d="M1273.496,0L14.505,0C6.494,0 0,4.477 0,10L0,94C0,99.523 6.494,104 14.505,104L1273.496,104C1281.506,104 1288,99.523 1288,94L1288,10C1288,4.477 1281.506,0 1273.496,0Z" fill="#FFFFFF"/>
<path d="M14.505,2L1273.497,2L1273.497,0L14.505,0L14.505,2ZM1273.497,2C1276.925,2 1279.983,2.96 1282.159,4.459C1284.339,5.962 1285.551,7.938 1285.551,10L1287.551,10C1287.551,7.092 1285.839,4.568 1283.295,2.813C1280.745,1.055 1277.277,0 1273.497,0L1273.497,2ZM1285.551,10L1285.551,94L1287.551,94L1287.551,10L1285.551,10ZM1285.551,94C1285.551,96.062 1284.339,98.038 1282.159,99.541C1279.983,101.04 1276.925,102 1273.497,102L1273.497,104C1277.277,104 1280.745,102.945 1283.295,101.187C1285.839,99.433 1287.551,96.908 1287.551,94L1285.551,94ZM1273.497,102L14.505,102L14.505,104L1273.497,104L1273.497,102ZM14.505,102C11.077,102 8.017,101.04 5.842,99.541C3.662,98.038 2.451,96.062 2.451,94L0.451,94C0.451,96.908 2.161,99.433 4.707,101.187C7.256,102.945 10.723,104 14.505,104L14.505,102ZM2.451,94L2.451,10L0.451,10L0.451,94L2.451,94ZM2.451,10C2.451,7.938 3.662,5.962 5.842,4.459C8.017,2.96 11.077,2 14.505,2L14.505,0C10.723,0 7.256,1.055 4.707,2.813C2.161,4.568 0.451,7.092 0.451,10L2.451,10Z" fill="#D7D7D7"/>
</svg>
