<svg width="634" height="84" viewBox="0 0 634 84" fill="none" xmlns="http://www.w3.org/2000/svg" xmlns:xlink="http://www.w3.org/1999/xlink">
<path d="M624.882,1.17L7.117,1.17C3.186,1.17 0,4.699 0,9.052L0,75.257C0,79.61 3.186,83.138 7.117,83.138L624.882,83.138C628.814,83.138 632,79.61 632,75.257L632,9.052C632,4.699 628.814,1.17 624.882,1.17Z" fill="#FFFFFF"/>
<path d="M7.117,2.958L624.883,2.958L624.883,0.958L7.117,0.958L7.117,2.958ZM624.883,2.958C627.773,2.958 630.287,5.588 630.287,9.051L632.287,9.051C632.287,4.68 629.065,0.958 624.883,0.958L624.883,2.958ZM630.287,9.051L630.287,75.257L632.287,75.257L632.287,9.051L630.287,9.051ZM630.287,75.257C630.287,78.72 627.773,81.35 624.883,81.35L624.883,83.35C629.065,83.35 632.287,79.628 632.287,75.257L630.287,75.257ZM624.883,81.35L7.117,81.35L7.117,83.35L624.883,83.35L624.883,81.35ZM7.117,81.35C4.225,81.35 1.711,78.72 1.711,75.257L-0.289,75.257C-0.289,79.628 2.933,83.35 7.117,83.35L7.117,81.35ZM1.711,75.257L1.711,9.051L-0.289,9.051L-0.289,75.257L1.711,75.257ZM1.711,9.051C1.711,5.588 4.225,2.958 7.117,2.958L7.117,0.958C2.933,0.958 -0.289,4.68 -0.289,9.051L1.711,9.051Z" fill="#D7D7D7"/>
</svg>
