<svg width="634" height="104" viewBox="0 0 634 104" fill="none" xmlns="http://www.w3.org/2000/svg" xmlns:xlink="http://www.w3.org/1999/xlink">
<path d="M624.882,-1L7.117,-1C3.186,-1 0,3.477 0,9L0,93C0,98.523 3.186,103 7.117,103L624.882,103C628.814,103 632,98.523 632,93L632,9C632,3.477 628.814,-1 624.882,-1Z" fill="#FFFFFF"/>
<path d="M7.117,1L624.883,1L624.883,-1L7.117,-1L7.117,1ZM624.883,1C626.243,1 627.571,1.773 628.597,3.216C629.623,4.657 630.287,6.698 630.287,9L632.287,9C632.287,6.331 631.519,3.873 630.227,2.056C628.935,0.242 627.059,-1 624.883,-1L624.883,1ZM630.287,9L630.287,93L632.287,93L632.287,9L630.287,9ZM630.287,93C630.287,95.302 629.623,97.343 628.597,98.784C627.571,100.227 626.243,101 624.883,101L624.883,103C627.059,103 628.935,101.758 630.227,99.944C631.519,98.127 632.287,95.669 632.287,93L630.287,93ZM624.883,101L7.117,101L7.117,103L624.883,103L624.883,101ZM7.117,101C5.756,101 4.429,100.227 3.402,98.784C2.377,97.343 1.711,95.302 1.711,93L-0.289,93C-0.289,95.669 0.48,98.127 1.773,99.944C3.064,101.758 4.94,103 7.117,103L7.117,101ZM1.711,93L1.711,9L-0.289,9L-0.289,93L1.711,93ZM1.711,9C1.711,6.698 2.377,4.657 3.402,3.216C4.429,1.773 5.756,1 7.117,1L7.117,-1C4.94,-1 3.064,0.242 1.773,2.056C0.48,3.873 -0.289,6.331 -0.289,9L1.711,9Z" fill="#D7D7D7"/>
</svg>
