<svg width="634" height="104" viewBox="0 0 634 104" fill="none" xmlns="http://www.w3.org/2000/svg" xmlns:xlink="http://www.w3.org/1999/xlink">
<path d="M624.882,0L7.117,0C3.186,0 0,4.477 0,10L0,94C0,99.523 3.186,104 7.117,104L624.882,104C628.814,104 632,99.523 632,94L632,10C632,4.477 628.814,0 624.882,0Z" fill="#FFFFFF"/>
<path d="M7.117,2L624.883,2L624.883,0L7.117,0L7.117,2ZM624.883,2C626.243,2 627.571,2.773 628.597,4.216C629.623,5.656 630.287,7.698 630.287,10L632.287,10C632.287,7.331 631.519,4.873 630.227,3.056C628.935,1.242 627.059,0 624.883,0L624.883,2ZM630.287,10L630.287,94L632.287,94L632.287,10L630.287,10ZM630.287,94C630.287,96.302 629.623,98.343 628.597,99.784C627.571,101.227 626.243,102 624.883,102L624.883,104C627.059,104 628.935,102.758 630.227,100.944C631.519,99.127 632.287,96.669 632.287,94L630.287,94ZM624.883,102L7.117,102L7.117,104L624.883,104L624.883,102ZM7.117,102C5.756,102 4.429,101.227 3.402,99.784C2.377,98.343 1.711,96.302 1.711,94L-0.289,94C-0.289,96.669 0.48,99.127 1.773,100.944C3.064,102.758 4.94,104 7.117,104L7.117,102ZM1.711,94L1.711,10L-0.289,10L-0.289,94L1.711,94ZM1.711,10C1.711,7.698 2.377,5.656 3.402,4.216C4.429,2.773 5.756,2 7.117,2L7.117,0C4.94,0 3.064,1.242 1.773,3.056C0.48,4.873 -0.289,7.331 -0.289,10L1.711,10Z" fill="#D7D7D7"/>
</svg>
