<svg width="44" height="44" viewBox="0 0 44 44" fill="none" xmlns="http://www.w3.org/2000/svg" xmlns:xlink="http://www.w3.org/1999/xlink">
<path d="M36.599,21.083C36.599,29.874 29.473,37 20.682,37L20.682,40C31.13,40 39.599,31.531 39.599,21.083L36.599,21.083ZM20.682,37C11.892,37 4.766,29.874 4.766,21.083L1.766,21.083C1.766,31.531 10.235,40 20.682,40L20.682,37ZM4.766,21.083C4.766,12.293 11.892,5.167 20.682,5.167L20.682,2.167C10.235,2.167 1.766,10.636 1.766,21.083L4.766,21.083ZM20.682,5.167C29.473,5.167 36.599,12.293 36.599,21.083L39.599,21.083C39.599,10.636 31.13,2.167 20.682,2.167L20.682,5.167Z" fill="#666666"/>
<path d="M38.872,41.394C39.457,41.98 40.407,41.98 40.993,41.394C41.579,40.808 41.579,39.858 40.993,39.273L38.872,41.394ZM37.326,35.606C36.74,35.02 35.791,35.02 35.205,35.606C34.619,36.192 34.619,37.141 35.205,37.727L37.326,35.606ZM40.993,39.273L37.326,35.606L35.205,37.727L38.872,41.394L40.993,39.273Z" fill="#666666"/>
</svg>
