<svg width="40" height="40" viewBox="0 0 40 40" fill="none" xmlns="http://www.w3.org/2000/svg" xmlns:xlink="http://www.w3.org/1999/xlink">
<path d="M33.501,19.167C33.501,27.083 27.083,33.5 19.167,33.5L19.167,36.5C28.74,36.5 36.501,28.74 36.501,19.167L33.501,19.167ZM19.167,33.5C11.251,33.5 4.834,27.083 4.834,19.167L1.834,19.167C1.834,28.74 9.594,36.5 19.167,36.5L19.167,33.5ZM4.834,19.167C4.834,11.251 11.251,4.833 19.167,4.833L19.167,1.833C9.594,1.833 1.834,9.594 1.834,19.167L4.834,19.167ZM19.167,4.833C27.083,4.833 33.501,11.251 33.501,19.167L36.501,19.167C36.501,9.594 28.74,1.833 19.167,1.833L19.167,4.833Z" fill="#2E294E"/>
<path d="M35.607,37.727C36.192,38.313 37.142,38.313 37.728,37.727C38.314,37.142 38.314,36.192 37.728,35.606L35.607,37.727ZM34.395,32.273C33.809,31.687 32.859,31.687 32.273,32.273C31.688,32.859 31.688,33.808 32.273,34.394L34.395,32.273ZM37.728,35.606L34.395,32.273L32.273,34.394L35.607,37.727L37.728,35.606Z" fill="#2E294E"/>
</svg>
