<svg width="44" height="44" viewBox="0 0 44 44" fill="none" xmlns="http://www.w3.org/2000/svg" xmlns:xlink="http://www.w3.org/1999/xlink">
<path d="M36.6,21.084C36.6,29.874 29.474,37 20.683,37L20.683,40C31.131,40 39.6,31.531 39.6,21.084L36.6,21.084ZM20.683,37C11.893,37 4.767,29.874 4.767,21.084L1.767,21.084C1.767,31.531 10.236,40 20.683,40L20.683,37ZM4.767,21.084C4.767,12.293 11.893,5.167 20.683,5.167L20.683,2.167C10.236,2.167 1.767,10.636 1.767,21.084L4.767,21.084ZM20.683,5.167C29.474,5.167 36.6,12.293 36.6,21.084L39.6,21.084C39.6,10.636 31.131,2.167 20.683,2.167L20.683,5.167Z" fill="#666666"/>
<path d="M38.873,41.394C39.458,41.98 40.408,41.98 40.994,41.394C41.58,40.809 41.58,39.859 40.994,39.273L38.873,41.394ZM37.327,35.606C36.741,35.021 35.792,35.021 35.206,35.606C34.62,36.192 34.62,37.142 35.206,37.728L37.327,35.606ZM40.994,39.273L37.327,35.606L35.206,37.728L38.873,41.394L40.994,39.273Z" fill="#666666"/>
</svg>
