<svg width="44" height="44" viewBox="0 0 44 44" fill="none" xmlns="http://www.w3.org/2000/svg" xmlns:xlink="http://www.w3.org/1999/xlink">
<path d="M36.6,21.083C36.6,29.874 29.474,37 20.684,37L20.684,40C31.131,40 39.6,31.531 39.6,21.083L36.6,21.083ZM20.684,37C11.893,37 4.767,29.874 4.767,21.083L1.767,21.083C1.767,31.531 10.236,40 20.684,40L20.684,37ZM4.767,21.083C4.767,12.293 11.893,5.167 20.684,5.167L20.684,2.167C10.236,2.167 1.767,10.636 1.767,21.083L4.767,21.083ZM20.684,5.167C29.474,5.167 36.6,12.293 36.6,21.083L39.6,21.083C39.6,10.636 31.131,2.167 20.684,2.167L20.684,5.167Z" fill="#666666"/>
<path d="M38.873,41.394C39.459,41.98 40.408,41.98 40.994,41.394C41.58,40.808 41.58,39.858 40.994,39.273L38.873,41.394ZM37.328,35.606C36.742,35.02 35.792,35.02 35.206,35.606C34.62,36.192 34.62,37.141 35.206,37.727L37.328,35.606ZM40.994,39.273L37.328,35.606L35.206,37.727L38.873,41.394L40.994,39.273Z" fill="#666666"/>
</svg>
