<svg width="48" height="48" viewBox="0 0 48 48" fill="none" xmlns="http://www.w3.org/2000/svg" xmlns:xlink="http://www.w3.org/1999/xlink">
<path d="M28.5,24C28.5,26.485 26.485,28.5 24,28.5L24,31.5C28.142,31.5 31.5,28.142 31.5,24L28.5,24ZM24,28.5C21.515,28.5 19.5,26.485 19.5,24L16.5,24C16.5,28.142 19.858,31.5 24,31.5L24,28.5ZM19.5,24C19.5,21.515 21.515,19.5 24,19.5L24,16.5C19.858,16.5 16.5,19.858 16.5,24L19.5,24ZM24,19.5C26.485,19.5 28.5,21.515 28.5,24L31.5,24C31.5,19.858 28.142,16.5 24,16.5L24,19.5Z" fill="#FFFFFF"/>
<path d="M11.08,12.74L9.781,13.491L9.782,13.492L11.08,12.74ZM12.48,7.56L13.224,8.862L13.225,8.862L12.48,7.56ZM15.94,5.58L16.685,6.882L16.707,6.869L15.94,5.58ZM20.5,6.78L21.798,6.029L21.789,6.013L20.5,6.78ZM20.72,7.16L22.021,6.414L22.018,6.409L20.72,7.16ZM27.3,7.16L28.598,7.912L28.598,7.912L27.3,7.16ZM27.52,6.78L26.231,6.013L26.222,6.029L27.52,6.78ZM32.08,5.58L31.313,6.869L31.335,6.882L32.08,5.58ZM35.54,7.56L34.795,8.862L34.796,8.862L35.54,7.56ZM36.94,12.74L38.238,13.492L38.239,13.491L36.94,12.74ZM36.94,35.26L38.242,34.516L38.238,34.508L36.94,35.26ZM35.54,40.44L34.796,39.138L34.795,39.138L35.54,40.44ZM32.08,42.42L31.335,41.118L31.313,41.131L32.08,42.42ZM27.52,41.22L26.222,41.972L26.231,41.987L27.52,41.22ZM27.3,40.84L25.999,41.586L26.002,41.592L27.3,40.84ZM20.72,40.84L19.422,40.088L19.422,40.089L20.72,40.84ZM20.5,41.22L21.789,41.987L21.798,41.972L20.5,41.22ZM15.94,42.42L16.707,41.131L16.685,41.118L15.94,42.42ZM12.48,40.44L13.225,39.138L13.224,39.138L12.48,40.44ZM11.08,35.26L9.782,34.508L9.781,34.51L11.08,35.26ZM7.8,29.56L7.8,31.06L7.8,29.56ZM5.5,25.76L5.5,22.24L2.5,22.24L2.5,25.76L5.5,25.76ZM5.5,22.24C5.5,20.983 6.534,19.94 7.8,19.94L7.8,16.94C4.866,16.94 2.5,19.337 2.5,22.24L5.5,22.24ZM7.8,19.94C9.93,19.94 11.824,19.175 12.78,17.517C13.736,15.858 13.448,13.834 12.378,11.988L9.782,13.492C10.532,14.786 10.414,15.612 10.18,16.019C9.946,16.425 9.29,16.94 7.8,16.94L7.8,19.94ZM12.379,11.99C11.753,10.906 12.129,9.488 13.224,8.862L11.736,6.258C9.191,7.712 8.327,10.974 9.781,13.491L12.379,11.99ZM13.225,8.862L16.685,6.882L15.195,4.278L11.735,6.258L13.225,8.862ZM16.707,6.869C17.546,6.37 18.677,6.65 19.211,7.547L21.789,6.013C20.443,3.75 17.494,2.91 15.173,4.291L16.707,6.869ZM19.202,7.532L19.422,7.912L22.018,6.409L21.798,6.029L19.202,7.532ZM19.419,7.906C20.479,9.755 22.087,11.015 24.002,11.015C25.916,11.015 27.528,9.758 28.598,7.912L26.002,6.408C25.252,7.702 24.474,8.015 24.002,8.015C23.533,8.015 22.761,7.705 22.021,6.414L19.419,7.906ZM28.598,7.912L28.818,7.532L26.222,6.029L26.002,6.409L28.598,7.912ZM28.809,7.547C29.343,6.65 30.474,6.37 31.313,6.869L32.847,4.291C30.526,2.91 27.577,3.75 26.231,6.013L28.809,7.547ZM31.335,6.882L34.795,8.862L36.285,6.258L32.825,4.278L31.335,6.882ZM34.796,8.862C35.891,9.488 36.267,10.906 35.641,11.99L38.239,13.491C39.693,10.974 38.829,7.712 36.284,6.258L34.796,8.862ZM35.642,11.988C34.572,13.834 34.284,15.858 35.24,17.517C36.196,19.175 38.09,19.94 40.22,19.94L40.22,16.94C38.73,16.94 38.074,16.425 37.84,16.019C37.606,15.612 37.488,14.786 38.238,13.492L35.642,11.988ZM40.22,19.94C41.477,19.94 42.52,20.974 42.52,22.24L45.52,22.24C45.52,19.307 43.123,16.94 40.22,16.94L40.22,19.94ZM42.52,22.24L42.52,25.76L45.52,25.76L45.52,22.24L42.52,22.24ZM42.52,25.76C42.52,27.017 41.486,28.06 40.22,28.06L40.22,31.06C43.154,31.06 45.52,28.663 45.52,25.76L42.52,25.76ZM40.22,28.06C38.09,28.06 36.196,28.825 35.24,30.484C34.284,32.143 34.572,34.166 35.642,36.012L38.238,34.508C37.488,33.214 37.606,32.388 37.84,31.982C38.074,31.575 38.73,31.06 40.22,31.06L40.22,28.06ZM35.638,36.004C36.271,37.113 35.889,38.513 34.796,39.138L36.284,41.743C38.831,40.287 39.689,37.047 38.242,34.516L35.638,36.004ZM34.795,39.138L31.335,41.118L32.825,43.722L36.285,41.742L34.795,39.138ZM31.313,41.131C30.474,41.63 29.343,41.35 28.809,40.453L26.231,41.987C27.577,44.25 30.526,45.09 32.847,43.709L31.313,41.131ZM28.818,40.469L28.598,40.089L26.002,41.592L26.222,41.972L28.818,40.469ZM28.601,40.094C27.541,38.245 25.933,36.985 24.017,36.985C22.104,36.985 20.492,38.242 19.422,40.088L22.018,41.592C22.768,40.298 23.546,39.985 24.017,39.985C24.487,39.985 25.259,40.295 25.999,41.586L28.601,40.094ZM19.422,40.089L19.202,40.469L21.798,41.972L22.018,41.592L19.422,40.089ZM19.211,40.453C18.677,41.35 17.546,41.63 16.707,41.131L15.173,43.709C17.494,45.09 20.443,44.25 21.789,41.987L19.211,40.453ZM16.685,41.118L13.225,39.138L11.735,41.742L15.195,43.722L16.685,41.118ZM13.224,39.138C12.129,38.512 11.753,37.094 12.379,36.011L9.781,34.51C8.327,37.026 9.191,40.288 11.736,41.743L13.224,39.138ZM12.378,36.012C13.448,34.166 13.736,32.143 12.78,30.484C11.824,28.825 9.93,28.06 7.8,28.06L7.8,31.06C9.29,31.06 9.946,31.575 10.18,31.982C10.414,32.388 10.532,33.214 9.782,34.508L12.378,36.012ZM7.8,28.06C6.534,28.06 5.5,27.017 5.5,25.76L2.5,25.76C2.5,28.663 4.866,31.06 7.8,31.06L7.8,28.06Z" fill="#FFFFFF"/>
</svg>
