<svg width="18" height="24" viewBox="0 0 18 24" fill="none" xmlns="http://www.w3.org/2000/svg" xmlns:xlink="http://www.w3.org/1999/xlink">
<path d="M1.5,19.75C1.5,21.125 2.625,22.25 4,22.25L14,22.25C15.375,22.25 16.5,21.125 16.5,19.75L16.5,7.25C16.5,5.875 15.375,4.75 14,4.75L4,4.75C2.625,4.75 1.5,5.875 1.5,7.25L1.5,19.75ZM16.5,1L13.375,1L12.487,0.113C12.263,-0.113 11.938,-0.25 11.612,-0.25L6.388,-0.25C6.063,-0.25 5.737,-0.113 5.513,0.113L4.625,1L1.5,1C0.813,1 0.25,1.563 0.25,2.25C0.25,2.938 0.813,3.5 1.5,3.5L16.5,3.5C17.188,3.5 17.75,2.938 17.75,2.25C17.75,1.563 17.188,1 16.5,1Z" fill="#E53E3E"/>
</svg>
