<svg width="26" height="26" viewBox="0 0 26 26" fill="none" xmlns="http://www.w3.org/2000/svg" xmlns:xlink="http://www.w3.org/1999/xlink">
<path d="M24.26,22.193L18.747,16.679C20.074,14.913 20.791,12.762 20.788,10.552C20.788,4.907 16.196,0.314 10.551,0.314C4.906,0.314 0.313,4.907 0.313,10.552C0.313,16.197 4.906,20.789 10.551,20.789C12.761,20.792 14.912,20.075 16.679,18.748L22.192,24.261C22.471,24.51 22.835,24.643 23.209,24.633C23.583,24.623 23.939,24.469 24.204,24.205C24.468,23.94 24.622,23.584 24.632,23.21C24.643,22.836 24.51,22.472 24.26,22.193L24.26,22.193ZM3.238,10.552C3.238,9.105 3.667,7.692 4.471,6.489C5.274,5.287 6.416,4.349 7.753,3.796C9.089,3.242 10.559,3.098 11.978,3.38C13.396,3.662 14.699,4.358 15.722,5.381C16.744,6.404 17.441,7.707 17.723,9.125C18.005,10.544 17.86,12.014 17.307,13.35C16.753,14.686 15.816,15.828 14.614,16.632C13.411,17.435 11.997,17.864 10.551,17.864C8.612,17.862 6.754,17.091 5.383,15.72C4.012,14.349 3.241,12.49 3.238,10.552L3.238,10.552Z" fill="#2D3748"/>
</svg>
