<svg width="608" height="84" viewBox="0 0 608 84" fill="none" xmlns="http://www.w3.org/2000/svg" xmlns:xlink="http://www.w3.org/1999/xlink">
<path d="M6.824,1.809L599.176,1.809L599.176,-0.191L6.824,-0.191L6.824,1.809ZM599.176,1.809C601.884,1.809 604.318,4.397 604.318,7.902L606.318,7.902C606.318,3.572 603.25,-0.191 599.176,-0.191L599.176,1.809ZM604.318,7.902L604.318,74.107L606.318,74.107L606.318,7.902L604.318,7.902ZM604.318,74.107C604.318,77.613 601.884,80.201 599.176,80.201L599.176,82.201C603.25,82.201 606.318,78.437 606.318,74.107L604.318,74.107ZM599.176,80.201L6.824,80.201L6.824,82.201L599.176,82.201L599.176,80.201ZM6.824,80.201C4.115,80.201 1.682,77.613 1.682,74.107L-0.318,74.107C-0.318,78.437 2.749,82.201 6.824,82.201L6.824,80.201ZM1.682,74.107L1.682,7.902L-0.318,7.902L-0.318,74.107L1.682,74.107ZM1.682,7.902C1.682,4.397 4.115,1.809 6.824,1.809L6.824,-0.191C2.749,-0.191 -0.318,3.572 -0.318,7.902L1.682,7.902Z" fill="#D7D7D7"/>
</svg>
