<svg width="54" height="48" viewBox="0 0 54 48" fill="none" xmlns="http://www.w3.org/2000/svg" xmlns:xlink="http://www.w3.org/1999/xlink">
<path d="M52.364,32.509C52.364,26.4 49.091,21.6 44.291,19.2C46.473,17.018 48,14.182 48,10.909C48,4.8 43.2,0 37.091,0C32.509,0 28.8,2.618 27.055,6.545C26.836,6.545 26.4,6.545 26.182,6.545C25.964,6.545 25.527,6.545 25.309,6.545C23.564,2.618 19.855,0 15.273,0C9.164,0 4.364,4.8 4.364,10.909C4.364,14.182 5.891,17.018 8.073,19.2C3.273,21.6 0,26.618 0,32.509L0,41.455L10.909,41.455L10.909,48L41.455,48L41.455,41.455L52.364,41.455L52.364,32.509ZM37.091,4.364C40.8,4.364 43.636,7.2 43.636,10.909C43.636,14.4 40.8,17.455 37.091,17.455C37.091,13.309 34.691,9.818 31.2,7.855C32.291,5.673 34.473,4.364 37.091,4.364ZM32.727,17.455C32.727,21.164 29.891,24 26.182,24C22.473,24 19.636,21.164 19.636,17.455C19.636,13.745 22.473,10.909 26.182,10.909C29.891,10.909 32.727,13.745 32.727,17.455ZM15.273,4.364C17.891,4.364 20.073,5.673 21.164,7.855C17.673,9.818 15.273,13.309 15.273,17.455C11.564,17.455 8.727,14.618 8.727,10.909C8.727,7.2 11.564,4.364 15.273,4.364ZM11.127,37.091L4.364,37.091L4.364,32.509C4.364,26.4 8.945,21.818 15.273,21.818C15.491,21.818 15.709,21.818 15.927,21.818C16.582,23.345 17.673,24.655 18.764,25.745C14.618,27.927 11.782,32.073 11.127,37.091ZM37.091,43.636L15.273,43.636L15.273,39.055C15.273,32.945 20.073,28.364 26.182,28.364C32.509,28.364 37.091,32.945 37.091,39.055L37.091,43.636ZM48,37.091L41.236,37.091C40.582,32.073 37.527,27.927 33.164,25.745C34.473,24.655 35.345,23.345 36,21.818C36.218,21.818 36.436,21.818 36.873,21.818C43.2,21.818 47.782,26.4 47.782,32.509L47.782,37.091L48,37.091Z" fill="#FFFFFF"/>
</svg>
