<svg width="18" height="24" viewBox="0 0 18 24" fill="none" xmlns="http://www.w3.org/2000/svg" xmlns:xlink="http://www.w3.org/1999/xlink">
<path d="M0.5,19.75C0.5,21.125 1.625,22.25 3,22.25L13,22.25C14.375,22.25 15.5,21.125 15.5,19.75L15.5,7.25C15.5,5.875 14.375,4.75 13,4.75L3,4.75C1.625,4.75 0.5,5.875 0.5,7.25L0.5,19.75ZM15.5,1L12.375,1L11.487,0.113C11.263,-0.113 10.938,-0.25 10.612,-0.25L5.388,-0.25C5.063,-0.25 4.737,-0.113 4.513,0.113L3.625,1L0.5,1C-0.188,1 -0.75,1.563 -0.75,2.25C-0.75,2.938 -0.188,3.5 0.5,3.5L15.5,3.5C16.188,3.5 16.75,2.938 16.75,2.25C16.75,1.563 16.188,1 15.5,1Z" fill="#E53E3E"/>
</svg>
