<svg width="48" height="48" viewBox="0 0 48 48" fill="none" xmlns="http://www.w3.org/2000/svg" xmlns:xlink="http://www.w3.org/1999/xlink">
<path d="M24,0C10.746,0 0,10.746 0,24C0,36.032 8.864,45.968 20.412,47.704L20.412,30.36L14.474,30.36L14.474,24.052L20.412,24.052L20.412,19.854C20.412,12.904 23.798,9.854 29.574,9.854C32.34,9.854 33.804,10.06 34.496,10.152L34.496,15.658L30.556,15.658C28.104,15.658 27.248,17.984 27.248,20.604L27.248,24.052L34.434,24.052L33.46,30.36L27.248,30.36L27.248,47.754C38.962,46.166 48,36.15 48,24C48,10.746 37.254,0 24,0Z" fill="#000000"/>
</svg>
