<svg width="42" height="52" viewBox="0 0 42 52" fill="none" xmlns="http://www.w3.org/2000/svg" xmlns:xlink="http://www.w3.org/1999/xlink">
<path d="M40.017,17.613C39.795,17.752 34.525,20.677 34.525,27.162C34.773,34.558 41.176,37.152 41.286,37.152C41.176,37.291 40.319,40.685 37.781,44.244C35.767,47.309 33.531,50.4 30.136,50.4C26.907,50.4 25.748,48.357 22.022,48.357C18.021,48.357 16.889,50.4 13.825,50.4C10.43,50.4 8.029,47.144 5.905,44.107C3.146,40.133 0.8,33.896 0.717,27.907C0.662,24.734 1.27,21.614 2.814,18.965C4.994,15.266 8.886,12.755 13.136,12.672C16.392,12.562 19.29,14.908 21.277,14.908C23.181,14.908 26.742,12.672 30.77,12.672C32.509,12.674 37.146,13.198 40.017,17.613ZM21.001,12.038C20.422,9.14 22.022,6.242 23.512,4.394C25.417,2.158 28.425,0.641 31.018,0.641C31.184,3.539 30.135,6.381 28.259,8.451C26.576,10.687 23.678,12.37 21.001,12.038Z" fill="#000000"/>
</svg>
