<svg width="28" height="28" viewBox="0 0 28 28" fill="none" xmlns="http://www.w3.org/2000/svg" xmlns:xlink="http://www.w3.org/1999/xlink">
<path d="M25.513,6.063C25.445,5.931 25.348,5.818 25.228,5.731C25.108,5.645 24.97,5.588 24.824,5.565C24.678,5.542 24.529,5.554 24.389,5.6C24.248,5.646 24.121,5.724 24.016,5.828L20.416,9.431C20.239,9.605 20.001,9.702 19.753,9.702C19.505,9.702 19.267,9.605 19.09,9.431L17.534,7.872C17.447,7.785 17.378,7.682 17.331,7.568C17.284,7.454 17.259,7.332 17.259,7.209C17.259,7.086 17.284,6.964 17.331,6.85C17.378,6.737 17.447,6.633 17.534,6.546L21.119,2.961C21.226,2.853 21.306,2.721 21.351,2.576C21.396,2.431 21.405,2.277 21.378,2.128C21.35,1.978 21.287,1.838 21.193,1.718C21.099,1.599 20.977,1.504 20.839,1.442L20.839,1.442C18.131,0.231 14.751,0.863 12.62,2.978C10.81,4.776 10.27,7.585 11.141,10.685C11.188,10.85 11.188,11.026 11.142,11.191C11.095,11.357 11.004,11.506 10.878,11.623L1.123,20.532C0.743,20.873 0.436,21.288 0.222,21.752C0.008,22.215 -0.11,22.718 -0.124,23.228C-0.137,23.739 -0.047,24.247 0.142,24.721C0.331,25.195 0.615,25.626 0.976,25.988C1.337,26.349 1.768,26.633 2.242,26.822C2.716,27.011 3.224,27.102 3.735,27.088C4.245,27.075 4.748,26.957 5.211,26.743C5.675,26.529 6.09,26.223 6.432,25.843L15.436,16.066C15.551,15.942 15.698,15.851 15.861,15.804C16.024,15.757 16.196,15.755 16.36,15.799C17.243,16.04 18.153,16.166 19.068,16.172C21.026,16.172 22.743,15.538 23.982,14.318C26.276,12.058 26.625,8.225 25.513,6.063ZM3.829,25.201C3.444,25.243 3.054,25.165 2.715,24.976C2.376,24.787 2.103,24.498 1.935,24.148C1.767,23.798 1.712,23.404 1.778,23.022C1.843,22.639 2.025,22.286 2.3,22.012C2.574,21.737 2.927,21.555 3.31,21.489C3.693,21.424 4.086,21.479 4.436,21.646C4.786,21.814 5.076,22.086 5.264,22.425C5.453,22.765 5.532,23.154 5.49,23.54C5.444,23.965 5.254,24.361 4.952,24.663C4.65,24.965 4.254,25.155 3.829,25.201L3.829,25.201Z" fill="#30BCED"/>
</svg>
