<svg width="634" height="84" viewBox="0 0 634 84" fill="none" xmlns="http://www.w3.org/2000/svg" xmlns:xlink="http://www.w3.org/1999/xlink">
<path d="M7.117,1.929L624.883,1.929L624.883,-0.071L7.117,-0.071L7.117,1.929ZM624.883,1.929C627.773,1.929 630.287,4.558 630.287,8.022L632.287,8.022C632.287,3.651 629.065,-0.071 624.883,-0.071L624.883,1.929ZM630.287,8.022L630.287,74.227L632.287,74.227L632.287,8.022L630.287,8.022ZM630.287,74.227C630.287,77.691 627.773,80.321 624.883,80.321L624.883,82.321C629.065,82.321 632.287,78.599 632.287,74.227L630.287,74.227ZM624.883,80.321L7.117,80.321L7.117,82.321L624.883,82.321L624.883,80.321ZM7.117,80.321C4.225,80.321 1.711,77.691 1.711,74.227L-0.289,74.227C-0.289,78.599 2.933,82.321 7.117,82.321L7.117,80.321ZM1.711,74.227L1.711,8.022L-0.289,8.022L-0.289,74.227L1.711,74.227ZM1.711,8.022C1.711,4.558 4.225,1.929 7.117,1.929L7.117,-0.071C2.933,-0.071 -0.289,3.651 -0.289,8.022L1.711,8.022Z" fill="#D7D7D7"/>
</svg>
