<svg width="44" height="44" viewBox="0 0 44 44" fill="none" xmlns="http://www.w3.org/2000/svg" xmlns:xlink="http://www.w3.org/1999/xlink">
<path d="M40.08,38.88L41.191,39.888L41.191,39.887L40.08,38.88ZM36.8,41.24L36.231,39.852L36.223,39.855L36.8,41.24ZM19.5,36.58L18.615,37.791L18.617,37.793L19.5,36.58ZM12.94,30.98L11.874,32.036L11.884,32.046L12.94,30.98ZM7.36,24.44L6.142,25.316L6.147,25.323L7.36,24.44ZM3.44,17.62L2.058,18.202L2.059,18.206L3.44,17.62ZM2.72,7.22L4.113,7.777L4.116,7.769L2.72,7.22ZM5.02,3.88L6.049,4.971L6.061,4.96L6.072,4.949L5.02,3.88ZM10.8,2.36L10.151,3.712L10.171,3.722L10.8,2.36ZM12.14,3.48L10.907,4.334L10.917,4.348L12.14,3.48ZM16.78,10.02L15.557,10.888L15.563,10.896L16.78,10.02ZM17.58,11.42L16.191,11.988L16.201,12.011L17.58,11.42ZM17.44,14.06L16.159,13.28L16.146,13.301L16.134,13.322L17.44,14.06ZM16.32,15.48L15.259,14.419L15.249,14.43L15.239,14.44L16.32,15.48ZM14.8,17.06L15.861,18.121L15.871,18.11L15.881,18.1L14.8,17.06ZM14.54,18.32L13.085,18.684L13.106,18.767L13.136,18.847L14.54,18.32ZM14.7,18.72L13.277,19.194L13.319,19.321L13.383,19.438L14.7,18.72ZM16.56,21.28L15.415,22.249L15.426,22.262L16.56,21.28ZM19.46,24.44L18.389,25.491L18.399,25.501L18.409,25.511L19.46,24.44ZM22.64,27.38L21.669,28.523L21.671,28.525L22.64,27.38ZM25.22,29.22L24.518,30.546L24.589,30.583L24.663,30.613L25.22,29.22ZM25.58,29.38L24.989,30.759L25.021,30.772L25.053,30.784L25.58,29.38ZM26.9,29.12L25.846,28.052L25.839,28.059L26.9,29.12ZM28.42,27.62L29.474,28.688L29.481,28.681L28.42,27.62ZM29.86,26.5L30.554,27.83L30.598,27.807L30.64,27.781L29.86,26.5ZM33.9,27.12L34.768,25.897L34.756,25.888L34.743,25.88L33.9,27.12ZM40.52,31.82L39.652,33.043L39.666,33.053L40.52,31.82ZM41.62,33.1L43.013,32.543L43.003,32.519L42.993,32.496L41.62,33.1ZM40.44,34.66C40.44,35.155 40.331,35.677 40.084,36.199L42.796,37.481C43.229,36.563 43.44,35.605 43.44,34.66L40.44,34.66ZM40.084,36.199C39.803,36.793 39.444,37.348 38.969,37.873L41.191,39.887C41.876,39.132 42.397,38.327 42.796,37.481L40.084,36.199ZM38.969,37.872C38.121,38.806 37.221,39.446 36.231,39.852L37.369,42.628C38.819,42.034 40.079,41.114 41.191,39.888L38.969,37.872ZM36.223,39.855C35.213,40.276 34.11,40.5 32.9,40.5L32.9,43.5C34.49,43.5 35.987,43.204 37.377,42.625L36.223,39.855ZM32.9,40.5C31.097,40.5 29.117,40.076 26.968,39.16L25.792,41.92C28.243,42.964 30.623,43.5 32.9,43.5L32.9,40.5ZM26.968,39.16C24.783,38.229 22.581,36.968 20.383,35.367L18.617,37.793C20.979,39.512 23.377,40.891 25.792,41.92L26.968,39.16ZM20.385,35.369C18.147,33.734 16.024,31.923 13.996,29.914L11.884,32.046C14.016,34.157 16.253,36.066 18.615,37.791L20.385,35.369ZM14.006,29.924C11.997,27.896 10.186,25.774 8.573,23.557L6.147,25.323C7.854,27.666 9.763,29.904 11.874,32.036L14.006,29.924ZM8.578,23.564C6.99,21.358 5.73,19.174 4.821,17.034L2.059,18.206C3.07,20.586 4.449,22.963 6.142,25.316L8.578,23.564ZM4.822,17.038C3.926,14.908 3.5,12.926 3.5,11.08L0.5,11.08C0.5,13.394 1.034,15.772 2.058,18.202L4.822,17.038ZM3.5,11.08C3.5,9.898 3.708,8.788 4.113,7.777L1.327,6.663C0.772,8.052 0.5,9.542 0.5,11.08L3.5,11.08ZM4.116,7.769C4.51,6.767 5.14,5.829 6.049,4.971L3.991,2.789C2.78,3.931 1.89,5.233 1.324,6.671L4.116,7.769ZM6.072,4.949C7.126,3.912 8.164,3.5 9.18,3.5L9.18,0.5C7.236,0.5 5.474,1.328 3.968,2.811L6.072,4.949ZM9.18,3.5C9.53,3.5 9.866,3.576 10.151,3.712L11.449,1.008C10.734,0.664 9.95,0.5 9.18,0.5L9.18,3.5ZM10.171,3.722C10.469,3.859 10.712,4.052 10.907,4.334L13.373,2.626C12.848,1.868 12.171,1.341 11.429,0.998L10.171,3.722ZM10.917,4.348L15.557,10.888L18.003,9.152L13.363,2.612L10.917,4.348ZM15.563,10.896C15.868,11.321 16.065,11.678 16.192,11.988L18.968,10.852C18.735,10.282 18.412,9.719 17.997,9.144L15.563,10.896ZM16.201,12.011C16.323,12.294 16.36,12.512 16.36,12.64L19.36,12.64C19.36,12.008 19.197,11.386 18.959,10.829L16.201,12.011ZM16.36,12.64C16.36,12.818 16.31,13.031 16.159,13.28L18.721,14.84C19.13,14.169 19.36,13.422 19.36,12.64L16.36,12.64ZM16.134,13.322C15.958,13.634 15.671,14.007 15.259,14.419L17.381,16.541C17.929,15.993 18.402,15.406 18.746,14.798L16.134,13.322ZM15.239,14.44L13.719,16.02L15.881,18.1L17.401,16.52L15.239,14.44ZM13.739,15.999C13.215,16.524 12.98,17.176 12.98,17.86L15.98,17.86C15.98,17.859 15.98,17.905 15.952,17.975C15.923,18.048 15.884,18.097 15.861,18.121L13.739,15.999ZM12.98,17.86C12.98,18.162 13.02,18.425 13.085,18.684L15.995,17.956C15.98,17.895 15.98,17.878 15.98,17.86L12.98,17.86ZM13.136,18.847C13.179,18.962 13.222,19.063 13.246,19.119C13.275,19.188 13.278,19.198 13.277,19.194L16.123,18.246C16.082,18.122 16.035,18.012 16.009,17.951C15.978,17.877 15.961,17.838 15.945,17.793L13.136,18.847ZM13.383,19.438C13.814,20.228 14.508,21.178 15.415,22.249L17.705,20.311C16.852,19.302 16.306,18.532 16.017,18.002L13.383,19.438ZM15.426,22.262C16.341,23.319 17.322,24.403 18.389,25.491L20.531,23.389C19.518,22.357 18.579,21.321 17.694,20.298L15.426,22.262ZM18.409,25.511C19.501,26.582 20.57,27.59 21.669,28.523L23.611,26.237C22.59,25.37 21.579,24.418 20.511,23.369L18.409,25.511ZM21.671,28.525C22.755,29.443 23.707,30.116 24.518,30.546L25.922,27.894C25.373,27.604 24.605,27.077 23.609,26.235L21.671,28.525ZM24.663,30.613C24.673,30.617 24.695,30.626 24.76,30.656C24.815,30.681 24.898,30.72 24.989,30.759L26.171,28.001C26.122,27.98 26.075,27.959 26.01,27.929C25.955,27.904 25.867,27.863 25.777,27.827L24.663,30.613ZM25.053,30.784C25.433,30.927 25.784,30.96 26.08,30.96L26.08,27.96C26.045,27.96 26.038,27.958 26.047,27.959C26.052,27.96 26.061,27.962 26.072,27.965C26.083,27.967 26.095,27.971 26.107,27.976L25.053,30.784ZM26.08,30.96C26.839,30.96 27.475,30.667 27.961,30.181L25.839,28.059C25.844,28.054 25.88,28.021 25.947,27.992C26.015,27.963 26.068,27.96 26.08,27.96L26.08,30.96ZM27.954,30.188L29.474,28.688L27.366,26.552L25.846,28.052L27.954,30.188ZM29.481,28.681C29.92,28.241 30.278,27.974 30.554,27.83L29.166,25.17C28.522,25.506 27.92,25.999 27.359,26.559L29.481,28.681ZM30.64,27.781C30.894,27.626 31.088,27.58 31.28,27.58L31.28,24.58C30.472,24.58 29.746,24.814 29.08,25.219L30.64,27.781ZM31.28,27.58C31.44,27.58 31.648,27.612 31.932,27.728L33.068,24.952C32.472,24.708 31.88,24.58 31.28,24.58L31.28,27.58ZM31.932,27.728C32.246,27.857 32.612,28.058 33.057,28.36L34.743,25.88C34.188,25.502 33.634,25.183 33.068,24.952L31.932,27.728ZM33.032,28.343L39.652,33.043L41.388,30.597L34.768,25.897L33.032,28.343ZM39.666,33.053C39.993,33.28 40.155,33.494 40.247,33.704L42.993,32.496C42.645,31.706 42.087,31.08 41.374,30.587L39.666,33.053ZM40.227,33.657C40.372,34.02 40.44,34.33 40.44,34.66L43.44,34.66C43.44,33.87 43.268,33.18 43.013,32.543L40.227,33.657Z" fill="#8E92BC"/>
</svg>
