<svg width="10" height="14" viewBox="0 0 10 14" fill="none" xmlns="http://www.w3.org/2000/svg" xmlns:xlink="http://www.w3.org/1999/xlink">
<path d="M9.531,7.149C9.324,6.942 9.042,6.825 8.749,6.825C8.455,6.825 8.174,6.942 7.966,7.149L5.982,9.136L5.982,1.838C5.982,1.544 5.866,1.262 5.658,1.054C5.45,0.846 5.169,0.729 4.875,0.729C4.582,0.729 4.3,0.846 4.093,1.054C3.885,1.262 3.769,1.544 3.769,1.838L3.769,9.136L1.785,7.149C1.576,6.947 1.296,6.836 1.006,6.838C0.716,6.841 0.438,6.957 0.233,7.163C0.028,7.368 -0.088,7.646 -0.091,7.937C-0.093,8.227 0.018,8.507 0.22,8.716L4.093,12.595C4.301,12.803 4.582,12.92 4.875,12.92C5.169,12.92 5.45,12.803 5.658,12.595L9.531,8.716C9.739,8.509 9.855,8.227 9.855,7.933C9.855,7.639 9.739,7.357 9.531,7.149L9.531,7.149Z" transform="rotate(-360 4.882 6.825)" fill="#00A389"/>
</svg>
