<svg width="6" height="26" viewBox="0 0 6 26" fill="none" xmlns="http://www.w3.org/2000/svg" xmlns:xlink="http://www.w3.org/1999/xlink">
<path d="M3.781,24.062L1.906,24.062C1.533,24.062 1.176,23.914 0.912,23.65C0.648,23.387 0.5,23.029 0.5,22.656L0.5,2.031C0.5,1.658 0.648,1.3 0.912,1.037C1.176,0.773 1.533,0.625 1.906,0.625L3.781,0.625C4.154,0.625 4.512,0.773 4.776,1.037C5.039,1.3 5.188,1.658 5.188,2.031L5.188,22.656C5.188,23.029 5.039,23.387 4.776,23.65C4.512,23.914 4.154,24.062 3.781,24.062L3.781,24.062Z" fill="#FFFFFF"/>
</svg>
