<svg width="24" height="20" viewBox="0 0 24 20" fill="none" xmlns="http://www.w3.org/2000/svg" xmlns:xlink="http://www.w3.org/1999/xlink">
<path d="M17.279,-0.496L5.922,-0.496C2.515,-0.496 0.243,1.207 0.243,5.182L0.243,13.133C0.243,17.108 2.515,18.811 5.922,18.811L17.279,18.811C20.686,18.811 22.958,17.108 22.958,13.133L22.958,5.182C22.958,1.207 20.686,-0.496 17.279,-0.496ZM17.813,6.42L14.258,9.26C13.508,9.862 12.554,10.157 11.6,10.157C10.646,10.157 9.681,9.862 8.943,9.26L5.388,6.42C5.025,6.125 4.968,5.58 5.252,5.217C5.547,4.853 6.081,4.785 6.444,5.08L9.999,7.92C10.862,8.612 12.327,8.612 13.19,7.92L16.745,5.08C17.109,4.785 17.654,4.842 17.938,5.217C18.233,5.58 18.176,6.125 17.813,6.42Z" fill="#30BCED"/>
</svg>
