<svg width="6" height="18" viewBox="0 0 6 18" fill="none" xmlns="http://www.w3.org/2000/svg" xmlns:xlink="http://www.w3.org/1999/xlink">
<path d="M3.219,16.062L1.344,16.062C0.971,16.062 0.613,15.913 0.349,15.65C0.086,15.386 -0.063,15.028 -0.063,14.655L-0.063,0.593C-0.063,0.22 0.086,-0.138 0.349,-0.401C0.613,-0.665 0.971,-0.813 1.344,-0.813L3.219,-0.813C3.592,-0.813 3.949,-0.665 4.213,-0.401C4.477,-0.138 4.625,0.22 4.625,0.593L4.625,14.655C4.625,15.028 4.477,15.386 4.213,15.65C3.949,15.913 3.592,16.062 3.219,16.062L3.219,16.062Z" fill="#30BCED"/>
</svg>
