<svg width="22" height="22" viewBox="0 0 22 22" fill="none" xmlns="http://www.w3.org/2000/svg" xmlns:xlink="http://www.w3.org/1999/xlink">
<path d="M11,7.25C10.258,7.25 9.533,7.47 8.917,7.882C8.3,8.294 7.819,8.879 7.536,9.565C7.252,10.25 7.177,11.004 7.322,11.731C7.467,12.459 7.824,13.127 8.348,13.651C8.873,14.176 9.541,14.533 10.268,14.678C10.996,14.822 11.75,14.748 12.435,14.464C13.12,14.18 13.706,13.7 14.118,13.083C14.53,12.466 14.75,11.741 14.75,11C14.747,10.006 14.351,9.054 13.648,8.351C12.946,7.649 11.994,7.253 11,7.25L11,7.25ZM19.096,11C19.094,11.35 19.069,11.7 19.019,12.047L21.302,13.834C21.401,13.916 21.468,14.031 21.491,14.158C21.513,14.284 21.49,14.415 21.425,14.527L19.266,18.254C19.2,18.364 19.098,18.448 18.977,18.49C18.855,18.533 18.723,18.531 18.603,18.485L15.92,17.407C15.361,17.837 14.749,18.195 14.1,18.47L13.699,21.319C13.676,21.447 13.61,21.562 13.512,21.647C13.413,21.731 13.289,21.778 13.159,21.781L8.841,21.781C8.714,21.779 8.591,21.733 8.493,21.652C8.395,21.571 8.328,21.459 8.301,21.334L7.9,18.485C7.249,18.213 6.637,17.855 6.081,17.422L3.397,18.5C3.277,18.545 3.145,18.547 3.024,18.505C2.902,18.463 2.8,18.379 2.734,18.269L0.575,14.542C0.51,14.431 0.487,14.3 0.509,14.173C0.532,14.046 0.599,13.931 0.698,13.849L2.981,12.062C2.932,11.71 2.906,11.355 2.904,11C2.906,10.649 2.931,10.299 2.981,9.953L0.698,8.166C0.599,8.084 0.532,7.969 0.509,7.842C0.487,7.715 0.51,7.584 0.575,7.473L2.734,3.745C2.8,3.635 2.902,3.551 3.023,3.509C3.145,3.467 3.277,3.469 3.397,3.514L6.081,4.592C6.639,4.162 7.251,3.805 7.9,3.53L8.301,0.681C8.324,0.553 8.39,0.437 8.488,0.353C8.587,0.269 8.711,0.221 8.841,0.219L13.159,0.219C13.286,0.221 13.409,0.267 13.507,0.348C13.605,0.429 13.672,0.541 13.699,0.665L14.1,3.514C14.752,3.786 15.365,4.144 15.922,4.578L18.603,3.5C18.723,3.454 18.855,3.452 18.977,3.494C19.098,3.537 19.2,3.62 19.266,3.73L21.425,7.458C21.49,7.569 21.513,7.7 21.491,7.827C21.468,7.954 21.401,8.069 21.302,8.151L19.019,9.938C19.068,10.29 19.094,10.644 19.096,11L19.096,11Z" fill="#FFFFFF"/>
</svg>
