<svg width="24" height="22" viewBox="0 0 24 22" fill="none" xmlns="http://www.w3.org/2000/svg" xmlns:xlink="http://www.w3.org/1999/xlink">
<path d="M12.484,11.78C13.07,11.194 13.07,10.244 12.484,9.658C11.898,9.072 10.948,9.072 10.363,9.658L12.484,11.78ZM8.603,13.539L7.542,12.478L7.542,12.478L8.603,13.539ZM14.263,19.199L13.203,18.138L13.203,18.138L14.263,19.199ZM18.703,14.759L19.764,15.82L19.764,15.82L18.703,14.759ZM18.703,3.439L19.767,2.382L19.764,2.378L18.703,3.439ZM7.383,3.439L6.326,2.375L6.323,2.378L7.383,3.439ZM1.483,19.04C2.068,19.625 3.018,19.625 3.604,19.04C4.19,18.454 4.19,17.504 3.604,16.918L1.483,19.04ZM10.363,9.658L7.542,12.478L9.664,14.6L12.484,11.78L10.363,9.658ZM7.542,12.478C5.397,14.624 5.397,18.114 7.542,20.26L9.664,18.138C8.69,17.164 8.69,15.574 9.664,14.6L7.542,12.478ZM7.542,20.26C9.688,22.405 13.178,22.405 15.324,20.26L13.203,18.138C12.228,19.112 10.638,19.112 9.664,18.138L7.542,20.26ZM15.324,20.26L19.764,15.82L17.643,13.698L13.203,18.138L15.324,20.26ZM19.764,15.82C23.472,12.112 23.467,6.105 19.767,2.382L17.639,4.496C20.18,7.053 20.175,11.166 17.643,13.698L19.764,15.82ZM19.764,2.378C16.056,-1.329 10.049,-1.325 6.326,2.375L8.44,4.503C10.997,1.962 15.11,1.967 17.643,4.5L19.764,2.378ZM6.323,2.378L1.483,7.218L3.604,9.339L8.444,4.5L6.323,2.378ZM1.483,7.218C-1.783,10.484 -1.783,15.774 1.483,19.04L3.604,16.918C1.51,14.824 1.51,11.434 3.604,9.339L1.483,7.218Z" fill="#9C9CA4"/>
</svg>
