<svg width="6" height="30" viewBox="0 0 6 30" fill="none" xmlns="http://www.w3.org/2000/svg" xmlns:xlink="http://www.w3.org/1999/xlink">
<path d="M2.656,28.062L0.781,28.062C0.408,28.062 0.051,27.914 -0.213,27.65C-0.477,27.386 -0.625,27.029 -0.625,26.656L-0.625,1.343C-0.625,0.97 -0.477,0.613 -0.213,0.349C0.051,0.085 0.408,-0.063 0.781,-0.063L2.656,-0.063C3.029,-0.063 3.387,0.085 3.651,0.349C3.914,0.613 4.063,0.97 4.063,1.343L4.063,26.656C4.063,27.029 3.914,27.386 3.651,27.65C3.387,27.914 3.029,28.062 2.656,28.062L2.656,28.062Z" fill="#FFFFFF"/>
</svg>
