<svg width="22" height="12" viewBox="0 0 22 12" fill="none" xmlns="http://www.w3.org/2000/svg" xmlns:xlink="http://www.w3.org/1999/xlink">
<path d="M21.541,2.246C22.127,1.66 22.127,0.71 21.541,0.124C20.955,-0.461 20.005,-0.461 19.419,0.124L21.541,2.246ZM3.551,0.124C2.965,-0.461 2.015,-0.461 1.43,0.124C0.844,0.71 0.844,1.66 1.43,2.246L3.551,0.124ZM19.419,0.124L12.015,7.529L14.136,9.651L21.541,2.246L19.419,0.124ZM12.015,7.529C11.726,7.818 11.245,7.818 10.956,7.529L8.834,9.651C10.295,11.111 12.676,11.111 14.136,9.651L12.015,7.529ZM10.956,7.529L3.551,0.124L1.43,2.246L8.834,9.651L10.956,7.529Z" fill="#292D32"/>
</svg>
