<svg width="634" height="84" viewBox="0 0 634 84" fill="none" xmlns="http://www.w3.org/2000/svg" xmlns:xlink="http://www.w3.org/1999/xlink">
<path d="M7.117,1.871L624.883,1.871L624.883,-0.129L7.117,-0.129L7.117,1.871ZM624.883,1.871C627.773,1.871 630.287,4.501 630.287,7.965L632.287,7.965C632.287,3.593 629.065,-0.129 624.883,-0.129L624.883,1.871ZM630.287,7.965L630.287,74.17L632.287,74.17L632.287,7.965L630.287,7.965ZM630.287,74.17C630.287,77.633 627.773,80.263 624.883,80.263L624.883,82.263C629.065,82.263 632.287,78.541 632.287,74.17L630.287,74.17ZM624.883,80.263L7.117,80.263L7.117,82.263L624.883,82.263L624.883,80.263ZM7.117,80.263C4.225,80.263 1.711,77.633 1.711,74.17L-0.289,74.17C-0.289,78.541 2.933,82.263 7.117,82.263L7.117,80.263ZM1.711,74.17L1.711,7.965L-0.289,7.965L-0.289,74.17L1.711,74.17ZM1.711,7.965C1.711,4.501 4.225,1.871 7.117,1.871L7.117,-0.129C2.933,-0.129 -0.289,3.593 -0.289,7.965L1.711,7.965Z" fill="#D7D7D7"/>
</svg>
