<svg width="52" height="52" viewBox="0 0 52 52" fill="none" xmlns="http://www.w3.org/2000/svg" xmlns:xlink="http://www.w3.org/1999/xlink">
<path d="M51.834,26C51.834,11.74 40.26,0.167 26,0.167C11.74,0.167 0.167,11.74 0.167,26C0.167,38.503 9.054,48.914 20.834,51.317L20.834,33.75L15.667,33.75L15.667,26L20.834,26L20.834,19.542C20.834,14.556 24.889,10.5 29.875,10.5L36.334,10.5L36.334,18.25L31.167,18.25C29.746,18.25 28.584,19.413 28.584,20.833L28.584,26L36.334,26L36.334,33.75L28.584,33.75L28.584,51.704C41.629,50.412 51.834,39.407 51.834,26Z" fill="#2D3748"/>
</svg>
