<svg width="14" height="30" viewBox="0 0 14 30" fill="none" xmlns="http://www.w3.org/2000/svg" xmlns:xlink="http://www.w3.org/1999/xlink">
<path d="M0.011,26.361C-0.453,26.824 -0.453,27.576 0.011,28.039C0.474,28.503 1.226,28.503 1.69,28.039L0.011,26.361ZM1.69,-0.039C1.226,-0.503 0.474,-0.503 0.011,-0.039C-0.453,0.424 -0.453,1.176 0.011,1.639L1.69,-0.039ZM1.69,28.039L12.556,17.173L10.877,15.494L0.011,26.361L1.69,28.039ZM12.556,17.173C14.303,15.426 14.303,12.574 12.556,10.827L10.877,12.506C11.697,13.326 11.697,14.674 10.877,15.494L12.556,17.173ZM12.556,10.827L1.69,-0.039L0.011,1.639L10.877,12.506L12.556,10.827Z" fill="#54577A"/>
</svg>
