<svg width="38" height="40" viewBox="0 0 38 40" fill="none" xmlns="http://www.w3.org/2000/svg" xmlns:xlink="http://www.w3.org/1999/xlink">
<path d="M26.28,1.039L8.22,7.039C-3.92,11.099 -3.92,17.719 8.22,21.759L13.58,23.539L15.36,28.899C19.4,41.039 26.04,41.039 30.08,28.899L36.1,10.859C38.78,2.759 34.38,-1.661 26.28,1.039ZM26.92,11.799L19.32,19.439C19.02,19.739 18.64,19.879 18.26,19.879C17.88,19.879 17.5,19.739 17.2,19.439C16.62,18.859 16.62,17.899 17.2,17.319L24.8,9.679C25.38,9.099 26.34,9.099 26.92,9.679C27.5,10.259 27.5,11.219 26.92,11.799Z" fill="#FFFFFF"/>
</svg>
