<svg width="16" height="30" viewBox="0 0 16 30" fill="none" xmlns="http://www.w3.org/2000/svg" xmlns:xlink="http://www.w3.org/1999/xlink">
<path d="M12.161,28.039C12.624,28.503 13.376,28.503 13.84,28.039C14.303,27.576 14.303,26.824 13.84,26.361L12.161,28.039ZM2.133,16.333L2.973,15.494L2.133,16.333ZM2.133,11.667L2.973,12.506L2.133,11.667ZM13.84,1.639C14.303,1.176 14.303,0.424 13.84,-0.039C13.376,-0.503 12.624,-0.503 12.161,-0.039L13.84,1.639ZM13.84,26.361L2.973,15.494L1.294,17.173L12.161,28.039L13.84,26.361ZM2.973,15.494C2.153,14.674 2.153,13.326 2.973,12.506L1.294,10.827C-0.453,12.574 -0.453,15.426 1.294,17.173L2.973,15.494ZM2.973,12.506L13.84,1.639L12.161,-0.039L1.294,10.827L2.973,12.506Z" fill="#54577A"/>
</svg>
