<svg width="84" height="84" viewBox="0 0 84 84" fill="none" xmlns="http://www.w3.org/2000/svg" xmlns:xlink="http://www.w3.org/1999/xlink">
<path d="M82.25,11C82.25,4.787 77.213,-0.25 71,-0.25L11,-0.25C4.787,-0.25 -0.25,4.787 -0.25,11L-0.25,71C-0.25,77.213 4.787,82.25 11,82.25L71,82.25C77.213,82.25 82.25,77.213 82.25,71L82.25,11ZM74.75,11C74.75,8.929 73.071,7.25 71,7.25L11,7.25C8.929,7.25 7.25,8.929 7.25,11L7.25,71C7.25,73.071 8.929,74.75 11,74.75L71,74.75C73.071,74.75 74.75,73.071 74.75,71L74.75,11Z" clip-rule="evenodd" fill-rule="evenodd" fill="#06C5E4"/>
</svg>
