<svg width="6" height="14" viewBox="0 0 6 14" fill="none" xmlns="http://www.w3.org/2000/svg" xmlns:xlink="http://www.w3.org/1999/xlink">
<path d="M4.094,12.063L2.219,12.063C1.846,12.063 1.488,11.915 1.224,11.651C0.961,11.388 0.813,11.03 0.813,10.657L0.813,2.219C0.813,1.847 0.961,1.489 1.224,1.225C1.488,0.961 1.846,0.813 2.219,0.813L4.094,0.813C4.467,0.813 4.824,0.961 5.088,1.225C5.352,1.489 5.5,1.847 5.5,2.219L5.5,10.657C5.5,11.03 5.352,11.388 5.088,11.651C4.824,11.915 4.467,12.063 4.094,12.063L4.094,12.063Z" fill="#FFFFFF"/>
</svg>
