<svg width="42" height="44" viewBox="0 0 42 44" fill="none" xmlns="http://www.w3.org/2000/svg" xmlns:xlink="http://www.w3.org/1999/xlink">
<path d="M40.36,18.763L40.148,17.864L20.607,17.864L20.607,26.135L32.282,26.135C31.07,31.891 25.445,34.921 20.851,34.921C17.507,34.921 13.983,33.515 11.651,31.255C10.42,30.043 9.441,28.601 8.768,27.01C8.096,25.419 7.744,23.712 7.732,21.985C7.732,18.501 9.298,15.016 11.576,12.724C13.854,10.432 17.295,9.149 20.716,9.149C24.633,9.149 27.441,11.23 28.491,12.178L34.368,6.332C32.644,4.817 27.908,1 20.526,1C14.831,1 9.37,3.181 5.378,7.16C1.439,11.078 -0.6,16.743 -0.6,22C-0.6,27.256 1.329,32.639 5.147,36.587C9.226,40.799 15.002,43 20.951,43C26.363,43 31.493,40.879 35.149,37.032C38.744,33.244 40.603,28.004 40.603,22.51C40.603,20.197 40.37,18.823 40.36,18.763Z" fill="#2D3748"/>
</svg>
