<svg width="1212" height="228" viewBox="0 0 1212 228" fill="none" xmlns="http://www.w3.org/2000/svg" xmlns:xlink="http://www.w3.org/1999/xlink">
<path d="M6.505,1.807L1203.495,1.807L1203.495,-0.193L6.505,-0.193L6.505,1.807ZM1203.495,1.807C1205.985,1.807 1208.349,4.4 1208.349,8.071L1210.349,8.071C1210.349,3.719 1207.471,-0.193 1203.495,-0.193L1203.495,1.807ZM1208.349,8.071L1208.349,217.929L1210.349,217.929L1210.349,8.071L1208.349,8.071ZM1208.349,217.929C1208.349,221.601 1205.985,224.193 1203.495,224.193L1203.495,226.193C1207.471,226.193 1210.349,222.281 1210.349,217.929L1208.349,217.929ZM1203.495,224.193L6.505,224.193L6.505,226.193L1203.495,226.193L1203.495,224.193ZM6.505,224.193C4.015,224.193 1.651,221.601 1.651,217.929L-0.349,217.929C-0.349,222.281 2.529,226.193 6.505,226.193L6.505,224.193ZM1.651,217.929L1.651,8.071L-0.349,8.071L-0.349,217.929L1.651,217.929ZM1.651,8.071C1.651,4.4 4.015,1.807 6.505,1.807L6.505,-0.193C2.529,-0.193 -0.349,3.719 -0.349,8.071L1.651,8.071Z" fill="#D7D7D7"/>
</svg>
