<svg width="46" height="48" viewBox="0 0 46 48" fill="none" xmlns="http://www.w3.org/2000/svg" xmlns:xlink="http://www.w3.org/1999/xlink">
<path d="M23.007,-0.2C10.191,-0.2 -0.2,10.188 -0.2,23C-0.2,35.812 10.191,46.2 23.007,46.2C42.36,46.2 46.72,28.234 44.905,19.133L42.333,19.133L37.949,19.133L23,19.133L23,26.867L37.96,26.867C36.241,33.533 30.203,38.467 23,38.467C14.458,38.467 7.533,31.541 7.533,23C7.533,14.459 14.458,7.533 23,7.533C26.884,7.533 30.422,8.975 33.138,11.34L38.633,5.849C34.507,2.091 29.026,-0.2 23.007,-0.2Z" fill="#000000"/>
</svg>
