<svg width="1280" height="290" viewBox="0 0 1280 290" fill="none" xmlns="http://www.w3.org/2000/svg" xmlns:xlink="http://www.w3.org/1999/xlink">
<path d="M12.982,2L1265.018,2L1265.018,0L12.982,0L12.982,2ZM1265.018,2C1268.032,2 1271.016,4.413 1273.308,8.898C1275.57,13.329 1277,19.519 1277,26.412L1279,26.412C1279,19.27 1277.524,12.755 1275.088,7.988C1272.68,3.275 1269.174,0 1265.018,0L1265.018,2ZM1277,26.412L1277,263.588L1279,263.588L1279,26.412L1277,26.412ZM1277,263.588C1277,270.48 1275.57,276.672 1273.308,281.102C1271.016,285.586 1268.032,288 1265.018,288L1265.018,290C1269.174,290 1272.68,286.724 1275.088,282.012C1277.524,277.246 1279,270.73 1279,263.588L1277,263.588ZM1265.018,288L12.982,288L12.982,290L1265.018,290L1265.018,288ZM12.982,288C9.969,288 6.984,285.586 4.693,281.102C2.429,276.672 1,270.48 1,263.588L-1,263.588C-1,270.73 0.477,277.246 2.912,282.012C5.319,286.724 8.826,290 12.982,290L12.982,288ZM1,263.588L1,26.412L-1,26.412L-1,263.588L1,263.588ZM1,26.412C1,19.519 2.429,13.329 4.693,8.898C6.984,4.413 9.969,2 12.982,2L12.982,0C8.826,0 5.319,3.275 2.912,7.988C0.477,12.755 -1,19.27 -1,26.412L1,26.412Z" fill="#D7D7D7"/>
</svg>
