<svg width="48" height="48" viewBox="0 0 48 48" fill="none" xmlns="http://www.w3.org/2000/svg" xmlns:xlink="http://www.w3.org/1999/xlink">
<path d="M33.48,32.42L34.98,32.42L33.48,32.42ZM25.06,39.34L12.42,39.34L12.42,42.34L25.06,42.34L25.06,39.34ZM12.42,39.34C9.619,39.34 7.971,38.427 6.992,37.252C5.973,36.029 5.5,34.308 5.5,32.42L2.5,32.42C2.5,34.752 3.077,37.241 4.688,39.173C6.339,41.153 8.901,42.34 12.42,42.34L12.42,39.34ZM5.5,32.42L5.5,15.58L2.5,15.58L2.5,32.42L5.5,32.42ZM5.5,15.58C5.5,12.502 6.031,10.93 6.901,10.061C7.77,9.191 9.342,8.66 12.42,8.66L12.42,5.66C9.178,5.66 6.54,6.179 4.779,7.939C3.019,9.7 2.5,12.338 2.5,15.58L5.5,15.58ZM12.42,8.66L25.06,8.66L25.06,5.66L12.42,5.66L12.42,8.66ZM25.06,8.66C28.138,8.66 29.71,9.191 30.579,10.061C31.449,10.93 31.98,12.502 31.98,15.58L34.98,15.58C34.98,12.338 34.461,9.7 32.701,7.939C30.94,6.179 28.302,5.66 25.06,5.66L25.06,8.66ZM31.98,15.58L31.98,32.42L34.98,32.42L34.98,15.58L31.98,15.58ZM31.98,32.42C31.98,35.495 31.445,37.068 30.573,37.938C29.7,38.81 28.127,39.34 25.06,39.34L25.06,42.34C28.293,42.34 30.93,41.82 32.692,40.062C34.455,38.302 34.98,35.665 34.98,32.42L31.98,32.42Z" fill="#8E92BC"/>
<path d="M39.04,34.2L39.905,32.975L39.902,32.972L39.04,34.2ZM33.48,30.3L31.98,30.3C31.98,30.789 32.219,31.247 32.619,31.528L33.48,30.3ZM33.48,17.68L32.619,16.452C32.219,16.733 31.98,17.191 31.98,17.68L33.48,17.68ZM39.04,13.78L38.181,12.55L38.179,12.552L39.04,13.78ZM39.902,32.972L34.342,29.072L32.619,31.528L38.179,35.428L39.902,32.972ZM34.98,30.3L34.98,17.68L31.98,17.68L31.98,30.3L34.98,30.3ZM34.342,18.908L39.902,15.008L38.179,12.552L32.619,16.452L34.342,18.908ZM39.899,15.01C41.038,14.215 41.654,14.345 41.846,14.445C42.038,14.545 42.5,14.979 42.5,16.38L45.5,16.38C45.5,14.441 44.843,12.625 43.235,11.785C41.627,10.946 39.763,11.445 38.181,12.55L39.899,15.01ZM42.5,16.38L42.5,31.62L45.5,31.62L45.5,16.38L42.5,16.38ZM42.5,31.62C42.5,33.023 42.038,33.454 41.849,33.551C41.661,33.649 41.046,33.78 39.905,32.975L38.175,35.426C39.755,36.541 41.62,37.051 43.232,36.214C44.843,35.377 45.5,33.558 45.5,31.62L42.5,31.62Z" fill="#8E92BC"/>
<path d="M24.5,19C24.5,19.828 23.828,20.5 23,20.5L23,23.5C25.485,23.5 27.5,21.485 27.5,19L24.5,19ZM23,20.5C22.172,20.5 21.5,19.828 21.5,19L18.5,19C18.5,21.485 20.515,23.5 23,23.5L23,20.5ZM21.5,19C21.5,18.172 22.172,17.5 23,17.5L23,14.5C20.515,14.5 18.5,16.515 18.5,19L21.5,19ZM23,17.5C23.828,17.5 24.5,18.172 24.5,19L27.5,19C27.5,16.515 25.485,14.5 23,14.5L23,17.5Z" fill="#8E92BC"/>
</svg>
