<svg width="62" height="62" viewBox="0 0 62 62" fill="none" xmlns="http://www.w3.org/2000/svg" xmlns:xlink="http://www.w3.org/1999/xlink">
<path d="M13.807,35.112L15.093,35.886L15.096,35.88L13.807,35.112ZM10.894,39.951L9.609,39.177L9.609,39.177L10.894,39.951ZM13.63,47.373L13.149,48.794L13.155,48.796L13.63,47.373ZM47.248,47.373L46.777,45.949L46.772,45.951L47.248,47.373ZM49.984,39.951L51.27,39.179L51.269,39.177L49.984,39.951ZM47.07,35.112L45.771,35.862L45.785,35.886L47.07,35.112ZM30.452,5.872C21.238,5.872 13.751,13.358 13.751,22.572L16.751,22.572C16.751,15.015 22.895,8.872 30.452,8.872L30.452,5.872ZM13.751,22.572L13.751,29.893L16.751,29.893L16.751,22.572L13.751,22.572ZM13.751,29.893C13.751,30.485 13.62,31.319 13.379,32.187C13.138,33.055 12.821,33.837 12.519,34.344L15.096,35.88C15.579,35.069 15.985,34.015 16.269,32.989C16.554,31.964 16.751,30.847 16.751,29.893L13.751,29.893ZM12.522,34.338L9.609,39.177L12.179,40.724L15.093,35.886L12.522,34.338ZM9.609,39.177C8.497,41.024 8.276,43.076 8.946,44.886C9.616,46.694 11.118,48.107 13.149,48.794L14.111,45.953C12.849,45.525 12.084,44.721 11.759,43.844C11.435,42.969 11.492,41.866 12.179,40.724L9.609,39.177ZM13.155,48.796C24.382,52.547 36.496,52.547 47.723,48.796L46.772,45.951C36.162,49.496 24.716,49.496 14.105,45.951L13.155,48.796ZM47.718,48.798C51.702,47.481 53.433,42.785 51.27,39.179L48.697,40.722C49.878,42.69 48.924,45.239 46.777,45.949L47.718,48.798ZM51.269,39.177L48.355,34.338L45.785,35.886L48.698,40.724L51.269,39.177ZM48.369,34.362C48.074,33.85 47.761,33.061 47.522,32.191C47.283,31.32 47.152,30.486 47.152,29.893L44.152,29.893C44.152,30.846 44.349,31.963 44.629,32.985C44.91,34.009 45.307,35.057 45.771,35.862L48.369,34.362ZM47.152,29.893L47.152,22.572L44.152,22.572L44.152,29.893L47.152,29.893ZM47.152,22.572C47.152,13.384 39.64,5.872 30.452,5.872L30.452,8.872C37.983,8.872 44.152,15.04 44.152,22.572L47.152,22.572Z" fill="#FFFFFF"/>
<path d="M35.137,8.107L34.719,9.547C35.268,9.707 35.859,9.54 36.245,9.118C36.63,8.696 36.742,8.092 36.534,7.559L35.137,8.107ZM32.705,7.6L32.519,9.088L32.525,9.089L32.705,7.6ZM25.764,8.107L24.367,7.559C24.159,8.092 24.271,8.696 24.656,9.118C25.042,9.54 25.633,9.707 26.182,9.547L25.764,8.107ZM35.555,6.666C34.705,6.419 33.814,6.223 32.885,6.111L32.525,9.089C33.268,9.179 33.999,9.338 34.719,9.547L35.555,6.666ZM32.891,6.112C30.268,5.784 27.731,5.973 25.345,6.666L26.182,9.547C28.154,8.974 30.278,8.808 32.519,9.088L32.891,6.112ZM27.16,8.654C27.676,7.338 28.957,6.415 30.45,6.415L30.45,3.415C27.688,3.415 25.321,5.126 24.367,7.559L27.16,8.654ZM30.45,6.415C31.944,6.415 33.225,7.338 33.74,8.654L36.534,7.559C35.58,5.126 33.213,3.415 30.45,3.415L30.45,6.415Z" fill="#FFFFFF"/>
<path d="M36.552,48.285C36.552,51.637 33.803,54.385 30.452,54.385L30.452,57.385C35.46,57.385 39.552,53.294 39.552,48.285L36.552,48.285ZM30.452,54.385C28.789,54.385 27.241,53.694 26.142,52.595L24.02,54.717C25.657,56.354 27.959,57.385 30.452,57.385L30.452,54.385ZM26.142,52.595C25.043,51.496 24.352,49.948 24.352,48.285L21.352,48.285C21.352,50.778 22.383,53.08 24.02,54.717L26.142,52.595Z" fill="#FFFFFF"/>
<circle cx="36" cy="8" r="6" fill="#D8727D"/>
</svg>
