<svg width="62" height="62" viewBox="0 0 62 62" fill="none" xmlns="http://www.w3.org/2000/svg" xmlns:xlink="http://www.w3.org/1999/xlink">
<path d="M13.807,35.112L15.092,35.886L15.095,35.88L13.807,35.112ZM10.893,39.951L9.608,39.177L9.608,39.177L10.893,39.951ZM13.629,47.373L13.148,48.794L13.154,48.796L13.629,47.373ZM47.247,47.373L46.776,45.949L46.771,45.951L47.247,47.373ZM49.983,39.951L51.269,39.179L51.268,39.177L49.983,39.951ZM47.069,35.112L45.77,35.862L45.784,35.886L47.069,35.112ZM30.451,5.872C21.237,5.872 13.751,13.358 13.751,22.572L16.751,22.572C16.751,15.015 22.894,8.872 30.451,8.872L30.451,5.872ZM13.751,22.572L13.751,29.893L16.751,29.893L16.751,22.572L13.751,22.572ZM13.751,29.893C13.751,30.485 13.619,31.319 13.378,32.187C13.137,33.055 12.82,33.837 12.518,34.344L15.095,35.88C15.578,35.069 15.984,34.015 16.268,32.989C16.553,31.964 16.751,30.847 16.751,29.893L13.751,29.893ZM12.521,34.338L9.608,39.177L12.178,40.724L15.092,35.886L12.521,34.338ZM9.608,39.177C8.496,41.024 8.275,43.076 8.945,44.886C9.615,46.694 11.117,48.107 13.148,48.794L14.11,45.953C12.848,45.525 12.083,44.721 11.758,43.844C11.434,42.969 11.491,41.866 12.178,40.724L9.608,39.177ZM13.154,48.796C24.381,52.547 36.495,52.547 47.722,48.796L46.771,45.951C36.161,49.496 24.715,49.496 14.105,45.951L13.154,48.796ZM47.717,48.798C51.701,47.481 53.432,42.785 51.269,39.179L48.696,40.722C49.877,42.69 48.923,45.239 46.776,45.949L47.717,48.798ZM51.268,39.177L48.354,34.338L45.784,35.886L48.697,40.724L51.268,39.177ZM48.368,34.362C48.073,33.85 47.76,33.061 47.521,32.191C47.282,31.32 47.151,30.486 47.151,29.893L44.151,29.893C44.151,30.846 44.348,31.963 44.628,32.985C44.909,34.009 45.306,35.057 45.77,35.862L48.368,34.362ZM47.151,29.893L47.151,22.572L44.151,22.572L44.151,29.893L47.151,29.893ZM47.151,22.572C47.151,13.384 39.639,5.872 30.451,5.872L30.451,8.872C37.982,8.872 44.151,15.04 44.151,22.572L47.151,22.572Z" fill="#FFFFFF"/>
<path d="M35.138,8.107L34.719,9.547C35.268,9.707 35.86,9.54 36.245,9.118C36.631,8.696 36.743,8.092 36.534,7.559L35.138,8.107ZM32.706,7.6L32.519,9.088L32.525,9.089L32.706,7.6ZM25.764,8.107L24.368,7.559C24.159,8.092 24.271,8.696 24.657,9.118C25.042,9.54 25.634,9.707 26.183,9.547L25.764,8.107ZM35.556,6.666C34.705,6.419 33.814,6.223 32.886,6.111L32.525,9.089C33.269,9.179 33.999,9.338 34.719,9.547L35.556,6.666ZM32.892,6.112C30.268,5.784 27.731,5.973 25.345,6.666L26.183,9.547C28.154,8.974 30.279,8.808 32.519,9.088L32.892,6.112ZM27.161,8.654C27.677,7.338 28.957,6.415 30.451,6.415L30.451,3.415C27.689,3.415 25.321,5.126 24.368,7.559L27.161,8.654ZM30.451,6.415C31.945,6.415 33.225,7.338 33.741,8.654L36.534,7.559C35.581,5.126 33.213,3.415 30.451,3.415L30.451,6.415Z" fill="#FFFFFF"/>
<path d="M36.551,48.285C36.551,51.637 33.802,54.385 30.451,54.385L30.451,57.385C35.459,57.385 39.551,53.294 39.551,48.285L36.551,48.285ZM30.451,54.385C28.788,54.385 27.24,53.694 26.141,52.595L24.019,54.717C25.656,56.354 27.958,57.385 30.451,57.385L30.451,54.385ZM26.141,52.595C25.042,51.496 24.351,49.948 24.351,48.285L21.351,48.285C21.351,50.778 22.382,53.08 24.019,54.717L26.141,52.595Z" fill="#FFFFFF"/>
<circle cx="36" cy="8" r="6" fill="#D8727D"/>
</svg>
