<svg width="117" height="63" viewBox="0 0 117 63" fill="none" xmlns="http://www.w3.org/2000/svg">
<g filter="url(#filter0_d_976_2408)">
<path d="M11.8598 14.7243C11.8598 8.81307 16.8897 4.02109 23.0943 4.02109H97.7234C103.928 4.02109 108.958 8.81306 108.958 14.7243V39.9532C108.958 45.8644 103.928 50.6564 97.7234 50.6564H23.0943C16.8897 50.6564 11.8598 45.8644 11.8598 39.9532V14.7243Z" fill="white"/>
<path d="M13.8541 33.1653C14.7943 32.2697 16.3185 32.2697 17.2587 33.1653L22.3655 38.0307C23.3057 38.9264 23.3057 40.3785 22.3655 41.2742L17.2587 46.1396C16.3185 47.0352 14.7943 47.0352 13.8541 46.1396L8.74728 41.2742C7.80714 40.3785 7.80714 38.9264 8.74728 38.0307L13.8541 33.1653Z" fill="white"/>
</g>
<defs>
<filter id="filter0_d_976_2408" x="0" y="0" width="117" height="62.7196" filterUnits="userSpaceOnUse" color-interpolation-filters="sRGB">
<feFlood flood-opacity="0" result="BackgroundImageFix"/>
<feColorMatrix in="SourceAlpha" type="matrix" values="0 0 0 0 0 0 0 0 0 0 0 0 0 0 0 0 0 0 127 0" result="hardAlpha"/>
<feOffset dy="4"/>
<feGaussianBlur stdDeviation="4"/>
<feColorMatrix type="matrix" values="0 0 0 0 0 0 0 0 0 0 0 0 0 0 0 0 0 0 0.12 0"/>
<feBlend mode="normal" in2="BackgroundImageFix" result="effect1_dropShadow_976_2408"/>
<feBlend mode="normal" in="SourceGraphic" in2="effect1_dropShadow_976_2408" result="shape"/>
</filter>
</defs>
</svg>
