<svg width="101" height="101" viewBox="0 0 101 101" fill="none" xmlns="http://www.w3.org/2000/svg">
<path d="M50.5 1.30345C50.5 0.574294 51.0914 -0.0186084 51.8203 0.00044682C62.1937 0.271628 72.244 3.7331 80.5943 9.92971C89.2983 16.3889 95.6932 25.4772 98.8338 35.8511C101.974 46.2251 101.694 57.3342 98.0335 67.5364C94.3734 77.7386 87.5278 86.4925 78.5088 92.5041C69.4898 98.5156 58.7759 101.466 47.9508 100.919C37.1257 100.372 26.7639 96.3561 18.397 89.4658C10.0301 82.5755 4.10211 73.176 1.48927 62.6568C-1.01736 52.5651 -0.345252 41.9566 3.39582 32.2775C3.6587 31.5974 4.4335 31.2797 5.10652 31.5603L39.959 46.089C40.632 46.3696 40.941 47.1415 40.7505 47.8453C40.3036 49.4972 40.2819 51.2431 40.6979 52.9179C41.2204 55.0217 42.406 56.9016 44.0794 58.2797C45.7528 59.6578 47.8252 60.4609 49.9902 60.5703C52.1552 60.6797 54.298 60.0897 56.1018 58.8874C57.9056 57.685 59.2747 55.9343 60.0067 53.8938C60.7387 51.8534 60.7949 49.6316 60.1668 47.5568C59.5387 45.482 58.2597 43.6643 56.5189 42.3725C55.1331 41.3441 53.5132 40.6924 51.8166 40.4693C51.0936 40.3743 50.5 39.7921 50.5 39.0629V1.30345Z" fill="#F92A82"/>
</svg>
