<svg width="86" height="101" viewBox="0 0 86 101" fill="none" xmlns="http://www.w3.org/2000/svg">
<path d="M35.1668 1.30367C35.1668 0.574387 35.7582 -0.0186156 36.4872 0.000447092C44.338 0.20573 52.0394 2.23933 58.9763 5.94716C66.3017 9.86265 72.5483 15.5243 77.163 22.4306C81.7776 29.3369 84.6178 37.2747 85.432 45.5409C86.2461 53.8071 85.0091 62.1464 81.8305 69.8203C78.6518 77.4942 73.6297 84.2657 67.209 89.5351C60.7882 94.8045 53.1671 98.409 45.0205 100.029C36.8739 101.65 28.4535 101.236 20.505 98.8251C12.9781 96.5419 6.09436 92.5341 0.397838 87.1279C-0.131145 86.6259 -0.129999 85.7884 0.385681 85.2727L27.0901 58.5683C27.6058 58.0526 28.4373 58.0606 29.0158 58.5047C29.9776 59.2429 31.0673 59.8043 32.2344 60.1583C33.8241 60.6405 35.5082 60.7233 37.1375 60.3992C38.7668 60.0751 40.2911 59.3542 41.5752 58.3003C42.8594 57.2464 43.8638 55.8921 44.4995 54.3573C45.1352 52.8226 45.3827 51.1547 45.2198 49.5015C45.057 47.8482 44.489 46.2607 43.566 44.8794C42.6431 43.4981 41.3938 42.3658 39.9287 41.5827C38.8531 41.0078 37.6856 40.6341 36.4835 40.4761C35.7605 40.381 35.1668 39.7987 35.1668 39.0694V1.30367Z" fill="#30BCED"/>
</svg>
