<svg width="27" height="39" viewBox="0 0 27 39" fill="none" xmlns="http://www.w3.org/2000/svg">
<path d="M13.4999 1.76086H7.63039C6.07369 1.76086 4.58075 2.37925 3.48 3.48C2.37925 4.58075 1.76086 6.07369 1.76086 7.63039C1.76086 9.18708 2.37925 10.68 3.48 11.7808C4.58075 12.8815 6.07369 13.4999 7.63039 13.4999M13.4999 1.76086V13.4999M13.4999 1.76086H19.3694C20.1402 1.76086 20.9035 1.91268 21.6156 2.20765C22.3277 2.50262 22.9748 2.93497 23.5198 3.48C24.0649 4.02504 24.4972 4.67209 24.7922 5.38422C25.0872 6.09634 25.239 6.85959 25.239 7.63039C25.239 8.40119 25.0872 9.16444 24.7922 9.87656C24.4972 10.5887 24.0649 11.2357 23.5198 11.7808C22.9748 12.3258 22.3277 12.7582 21.6156 13.0531C20.9035 13.3481 20.1402 13.4999 19.3694 13.4999M13.4999 13.4999H7.63039M13.4999 13.4999H19.3694M13.4999 13.4999V25.239M7.63039 13.4999C6.07369 13.4999 4.58075 14.1183 3.48 15.2191C2.37925 16.3198 1.76086 17.8128 1.76086 19.3694C1.76086 20.9261 2.37925 22.4191 3.48 23.5198C4.58075 24.6206 6.07369 25.239 7.63039 25.239M19.3694 13.4999C18.5987 13.4999 17.8354 13.6517 17.1233 13.9467C16.4112 14.2417 15.7641 14.674 15.2191 15.2191C14.674 15.7641 14.2417 16.4112 13.9467 17.1233C13.6517 17.8354 13.4999 18.5987 13.4999 19.3694C13.4999 20.1402 13.6517 20.9035 13.9467 21.6156C14.2417 22.3277 14.674 22.9748 15.2191 23.5198C15.7641 24.0649 16.4112 24.4972 17.1233 24.7922C17.8354 25.0872 18.5987 25.239 19.3694 25.239C20.1402 25.239 20.9035 25.0872 21.6156 24.7922C22.3277 24.4972 22.9748 24.0649 23.5198 23.5198C24.0649 22.9748 24.4972 22.3277 24.7922 21.6156C25.0872 20.9035 25.239 20.1402 25.239 19.3694C25.239 18.5987 25.0872 17.8354 24.7922 17.1233C24.4972 16.4112 24.0649 15.7641 23.5198 15.2191C22.9748 14.674 22.3277 14.2417 21.6156 13.9467C20.9035 13.6517 20.1402 13.4999 19.3694 13.4999ZM7.63039 25.239C6.07369 25.239 4.58075 25.8574 3.48 26.9581C2.37925 28.0589 1.76086 29.5518 1.76086 31.1085C1.76086 32.6652 2.37925 34.1581 3.48 35.2589C4.58075 36.3596 6.07369 36.978 7.63039 36.978C9.18708 36.978 10.68 36.3596 11.7808 35.2589C12.8815 34.1581 13.4999 32.6652 13.4999 31.1085V25.239M7.63039 25.239H13.4999" stroke="#1E1E1E" stroke-width="3.5" stroke-linecap="round" stroke-linejoin="round"/>
</svg>
