<svg width="104" height="13" viewBox="0 0 104 13" fill="none" xmlns="http://www.w3.org/2000/svg">
<path d="M5.31011 0.73526C5.65867 -0.0769565 6.81017 -0.0769583 7.15874 0.735258L8.16915 3.08969C8.3147 3.42884 8.6343 3.66105 9.00184 3.69467L11.5533 3.92807C12.4334 4.00859 12.7893 5.10373 12.1245 5.68622L10.1976 7.37475C9.91999 7.61798 9.79791 7.99369 9.87951 8.35363L10.446 10.8523C10.6414 11.7143 9.7098 12.3911 8.95039 11.9389L6.74905 10.628C6.43195 10.4392 6.0369 10.4392 5.71979 10.628L3.51845 11.9389C2.75904 12.3911 1.82746 11.7143 2.02288 10.8523L2.58933 8.35363C2.67093 7.99369 2.54885 7.61798 2.27128 7.37475L0.344315 5.68623C-0.320435 5.10373 0.0353947 4.00859 0.915572 3.92807L3.46701 3.69467C3.83454 3.66105 4.15414 3.42884 4.29969 3.08969L5.31011 0.73526Z" fill="#F7C604"/>
<path d="M28.4444 0.73526C28.7929 -0.0769565 29.9444 -0.0769583 30.293 0.735258L31.3034 3.08969C31.449 3.42884 31.7686 3.66105 32.1361 3.69467L34.6875 3.92807C35.5677 4.00859 35.9235 5.10373 35.2588 5.68622L33.3318 7.37475C33.0542 7.61798 32.9322 7.99369 33.0138 8.35363L33.5802 10.8523C33.7756 11.7143 32.844 12.3911 32.0846 11.9389L29.8833 10.628C29.5662 10.4392 29.1711 10.4392 28.854 10.628L26.6527 11.9389C25.8933 12.3911 24.9617 11.7143 25.1571 10.8523L25.7236 8.35363C25.8052 7.99369 25.6831 7.61798 25.4055 7.37475L23.4786 5.68623C22.8138 5.10373 23.1696 4.00859 24.0498 3.92807L26.6013 3.69467C26.9688 3.66105 27.2884 3.42884 27.4339 3.08969L28.4444 0.73526Z" fill="#F7C604"/>
<path d="M51.0848 0.588544C51.4426 -0.196166 52.5574 -0.196166 52.9152 0.588544L54.0629 3.10567C54.2135 3.43587 54.5303 3.65936 54.8918 3.69049L57.6776 3.93034C58.5752 4.00762 58.9263 5.13525 58.2313 5.70845L56.2174 7.36936C55.9205 7.61416 55.7894 8.00683 55.8795 8.38088L56.4861 10.8992C56.6916 11.7525 55.7821 12.4413 55.0164 12.0122L52.4918 10.5972C52.1863 10.426 51.8137 10.426 51.5082 10.5972L48.9836 12.0122C48.2179 12.4413 47.3084 11.7525 47.5139 10.8992L48.1205 8.38088C48.2106 8.00683 48.0795 7.61416 47.7826 7.36936L45.7687 5.70845C45.0737 5.13525 45.4248 4.00762 46.3224 3.93034L49.1082 3.69049C49.4697 3.65936 49.7865 3.43587 49.9371 3.10567L51.0848 0.588544Z" fill="#F7C604"/>
<path d="M73.707 0.73526C74.0556 -0.0769565 75.2071 -0.0769583 75.5556 0.735258L76.5661 3.08969C76.7116 3.42884 77.0312 3.66105 77.3987 3.69467L79.9502 3.92807C80.8304 4.00859 81.1862 5.10373 80.5214 5.68622L78.5945 7.37475C78.3169 7.61798 78.1948 7.99369 78.2764 8.35363L78.8429 10.8523C79.0383 11.7143 78.1067 12.3911 77.3473 11.9389L75.146 10.628C74.8289 10.4392 74.4338 10.4392 74.1167 10.628L71.9154 11.9389C71.156 12.3911 70.2244 11.7143 70.4198 10.8523L70.9862 8.35363C71.0678 7.99369 70.9458 7.61798 70.6682 7.37475L68.7412 5.68623C68.0765 5.10373 68.4323 4.00859 69.3125 3.92807L71.8639 3.69467C72.2314 3.66105 72.551 3.42884 72.6966 3.08969L73.707 0.73526Z" fill="#F7C604"/>
<path d="M96.8413 0.73526C97.1898 -0.0769565 98.3413 -0.0769583 98.6899 0.735258L99.7003 3.08969C99.8459 3.42884 100.165 3.66105 100.533 3.69467L103.084 3.92807C103.965 4.00859 104.32 5.10373 103.656 5.68622L101.729 7.37475C101.451 7.61798 101.329 7.99369 101.411 8.35363L101.977 10.8523C102.173 11.7143 101.241 12.3911 100.482 11.9389L98.2802 10.628C97.9631 10.4392 97.5681 10.4392 97.251 10.628L95.0496 11.9389C94.2902 12.3911 93.3586 11.7143 93.554 10.8523L94.1205 8.35363C94.2021 7.99369 94.08 7.61798 93.8024 7.37475L91.8755 5.68623C91.2107 5.10373 91.5666 4.00859 92.4467 3.92807L94.9982 3.69467C95.3657 3.66105 95.6853 3.42884 95.8308 3.08969L96.8413 0.73526Z" fill="#B9BBBD"/>
</svg>
