<svg width="19" height="19" viewBox="0 0 19 19" fill="none" xmlns="http://www.w3.org/2000/svg">
<path d="M16.6249 15.0416H2.37497C2.16501 15.0416 1.96365 15.125 1.81518 15.2734C1.66672 15.4219 1.58331 15.6233 1.58331 15.8332C1.58331 16.0432 1.66672 16.2445 1.81518 16.393C1.96365 16.5415 2.16501 16.6249 2.37497 16.6249H16.6249C16.8349 16.6249 17.0362 16.5415 17.1847 16.393C17.3332 16.2445 17.4166 16.0432 17.4166 15.8332C17.4166 15.6233 17.3332 15.4219 17.1847 15.2734C17.0362 15.125 16.8349 15.0416 16.6249 15.0416Z" fill="#2D9CDB"/>
<path d="M9.5001 1.58336C9.29014 1.58336 9.08878 1.66677 8.94031 1.81523C8.79184 1.9637 8.70844 2.16506 8.70844 2.37502V10.7587L6.10387 8.14624C5.9548 7.99717 5.75261 7.91342 5.54179 7.91342C5.33097 7.91342 5.12878 7.99717 4.97971 8.14624C4.83064 8.29532 4.74689 8.4975 4.74689 8.70832C4.74689 8.91914 4.83064 9.12133 4.97971 9.2704L8.93802 13.2287C9.01161 13.3029 9.09917 13.3618 9.19564 13.402C9.29212 13.4422 9.39559 13.4629 9.5001 13.4629C9.60461 13.4629 9.70808 13.4422 9.80455 13.402C9.90103 13.3618 9.98858 13.3029 10.0622 13.2287L14.0205 9.2704C14.0943 9.19659 14.1529 9.10896 14.1928 9.01252C14.2328 8.91608 14.2533 8.81271 14.2533 8.70832C14.2533 8.60393 14.2328 8.50057 14.1928 8.40413C14.1529 8.30768 14.0943 8.22006 14.0205 8.14624C13.9467 8.07243 13.859 8.01388 13.7626 7.97393C13.6662 7.93398 13.5628 7.91342 13.4584 7.91342C13.354 7.91342 13.2507 7.93398 13.1542 7.97393C13.0578 8.01388 12.9701 8.07243 12.8963 8.14624L10.2918 10.7587V2.37502C10.2918 2.16506 10.2084 1.9637 10.0599 1.81523C9.91142 1.66677 9.71006 1.58336 9.5001 1.58336Z" fill="#2D9CDB"/>
</svg>
