<svg width="7" height="7" viewBox="0 0 7 7" fill="none" xmlns="http://www.w3.org/2000/svg">
<g clip-path="url(#clip0_0_6)">
<path d="M1.04433 3.3291C1.15357 3.43845 1.3017 3.49989 1.45617 3.49989C1.61063 3.49989 1.75877 3.43845 1.86801 3.3291L2.91246 2.28318L2.91246 6.12502C2.91246 6.27973 2.97383 6.4281 3.08308 6.5375C3.19232 6.64689 3.34049 6.70835 3.49498 6.70835C3.64947 6.70835 3.79764 6.64689 3.90688 6.5375C4.01612 6.4281 4.0775 6.27973 4.0775 6.12502L4.0775 2.28318L5.12195 3.3291C5.23181 3.43536 5.37896 3.49415 5.53169 3.49282C5.68443 3.49149 5.83053 3.43015 5.93853 3.32199C6.04654 3.21384 6.1078 3.06753 6.10913 2.91458C6.11045 2.76163 6.05174 2.61428 5.94563 2.50426L3.90682 0.462593C3.79758 0.353234 3.64944 0.2918 3.49498 0.2918C3.34052 0.2918 3.19238 0.353234 3.08314 0.462592L1.04433 2.50426C0.935123 2.61365 0.873774 2.762 0.873774 2.91668C0.873774 3.07136 0.935123 3.2197 1.04433 3.3291Z" fill="#00A389"/>
</g>
<defs>
<clipPath id="clip0_0_6">
<rect width="6.64002" height="6.64933" fill="white" transform="translate(6.9902 7) scale(1.05274) rotate(-180)"/>
</clipPath>
</defs>
</svg>
