<svg width="34" height="34" viewBox="0 0 34 34" fill="none" xmlns="http://www.w3.org/2000/svg">
<path d="M8.5 29.7501H25.5C26.6272 29.7501 27.7082 29.3023 28.5052 28.5053C29.3022 27.7083 29.75 26.6272 29.75 25.5001V8.50007C29.75 7.3729 29.3022 6.2919 28.5052 5.49487C27.7082 4.69784 26.6272 4.25007 25.5 4.25007H24.0833C24.0833 3.87435 23.9341 3.51401 23.6684 3.24834C23.4027 2.98266 23.0424 2.8334 22.6667 2.8334C22.2909 2.8334 21.9306 2.98266 21.6649 3.24834C21.3993 3.51401 21.25 3.87435 21.25 4.25007H12.75C12.75 3.87435 12.6007 3.51401 12.3351 3.24834C12.0694 2.98266 11.7091 2.8334 11.3333 2.8334C10.9576 2.8334 10.5973 2.98266 10.3316 3.24834C10.0659 3.51401 9.91667 3.87435 9.91667 4.25007H8.5C7.37283 4.25007 6.29183 4.69784 5.4948 5.49487C4.69777 6.2919 4.25 7.3729 4.25 8.50007V25.5001C4.25 26.6272 4.69777 27.7083 5.4948 28.5053C6.29183 29.3023 7.37283 29.7501 8.5 29.7501ZM7.08333 8.50007C7.08333 8.12435 7.23259 7.76401 7.49827 7.49834C7.76394 7.23266 8.12428 7.08341 8.5 7.08341H9.91667V8.50007C9.91667 8.8758 10.0659 9.23613 10.3316 9.50181C10.5973 9.76748 10.9576 9.91674 11.3333 9.91674C11.7091 9.91674 12.0694 9.76748 12.3351 9.50181C12.6007 9.23613 12.75 8.8758 12.75 8.50007V7.08341H21.25V8.50007C21.25 8.8758 21.3993 9.23613 21.6649 9.50181C21.9306 9.76748 22.2909 9.91674 22.6667 9.91674C23.0424 9.91674 23.4027 9.76748 23.6684 9.50181C23.9341 9.23613 24.0833 8.8758 24.0833 8.50007V7.08341H25.5C25.8757 7.08341 26.2361 7.23266 26.5017 7.49834C26.7674 7.76401 26.9167 8.12435 26.9167 8.50007V12.7501H7.08333V8.50007ZM7.08333 15.5834H26.9167V25.5001C26.9167 25.8758 26.7674 26.2361 26.5017 26.5018C26.2361 26.7675 25.8757 26.9167 25.5 26.9167H8.5C8.12428 26.9167 7.76394 26.7675 7.49827 26.5018C7.23259 26.2361 7.08333 25.8758 7.08333 25.5001V15.5834Z" fill="#2D9CDB"/>
</svg>
