<svg width="7" height="7" viewBox="0 0 7 7" fill="none" xmlns="http://www.w3.org/2000/svg">
<g clip-path="url(#clip0_0_6)">
<path d="M1.04433 3.3291C1.15356 3.43846 1.3017 3.4999 1.45616 3.4999C1.61063 3.4999 1.75876 3.43846 1.868 3.3291L2.91245 2.28319L2.91245 6.12502C2.91245 6.27973 2.97383 6.4281 3.08307 6.5375C3.19231 6.64689 3.34048 6.70835 3.49497 6.70835C3.64946 6.70835 3.79763 6.64689 3.90687 6.5375C4.01611 6.4281 4.07749 6.27973 4.07749 6.12502L4.07749 2.28319L5.12194 3.3291C5.2318 3.43536 5.37895 3.49416 5.53168 3.49283C5.68442 3.4915 5.83052 3.43015 5.93852 3.322C6.04652 3.21384 6.10779 3.06754 6.10911 2.91459C6.11044 2.76164 6.05173 2.61429 5.94562 2.50427L3.90681 0.462608C3.79757 0.353249 3.64943 0.291816 3.49497 0.291816C3.34051 0.291816 3.19237 0.353249 3.08313 0.462607L1.04433 2.50427C0.93512 2.61366 0.873772 2.76201 0.873772 2.91669C0.873772 3.07137 0.93512 3.21971 1.04433 3.3291Z" fill="#00A389"/>
</g>
<defs>
<clipPath id="clip0_0_6">
<rect width="6.64002" height="6.64933" fill="white" transform="translate(6.99019 7) scale(1.05274) rotate(-180)"/>
</clipPath>
</defs>
</svg>
