<svg width="24" height="24" viewBox="0 0 24 24" fill="none" xmlns="http://www.w3.org/2000/svg">
<path d="M11.9889 16.4717C11.7579 16.4697 11.5367 16.378 11.3719 16.216L2.64464 7.48872C2.48567 7.32412 2.3977 7.10367 2.39969 6.87484C2.40168 6.64602 2.49346 6.42713 2.65527 6.26532C2.81708 6.1035 3.03598 6.01172 3.2648 6.00973C3.49363 6.00774 3.71408 6.09571 3.87868 6.25468L11.9889 14.3649L20.0992 6.25468C20.1797 6.17133 20.276 6.10484 20.3825 6.0591C20.4889 6.01337 20.6035 5.98929 20.7193 5.98828C20.8352 5.98728 20.9501 6.00936 21.0574 6.05324C21.1647 6.09712 21.2621 6.16192 21.344 6.24387C21.426 6.32581 21.4908 6.42325 21.5347 6.53051C21.5786 6.63776 21.6006 6.75268 21.5996 6.86856C21.5986 6.98444 21.5745 7.09896 21.5288 7.20544C21.4831 7.31191 21.4166 7.40821 21.3332 7.48872L12.606 16.216C12.4412 16.378 12.22 16.4697 11.9889 16.4717Z" fill="#B9BBBD"/>
</svg>
