<svg width="23" height="24" viewBox="0 0 23 24" fill="none" xmlns="http://www.w3.org/2000/svg">
<path d="M11.3967 5.10205L11.3968 5.10212C11.3967 5.10204 11.3966 5.10196 11.3965 5.10188L11.3967 5.10205ZM11.5013 5.20638L19.6277 13.3101V21.0005C19.6277 21.2724 19.5239 21.5291 19.3456 21.7152C19.168 21.9005 18.9318 22.0005 18.6902 22.0005H14.375C14.324 22.0005 14.2706 21.9796 14.2277 21.9349C14.1842 21.8895 14.1562 21.8235 14.1562 21.7505V15.3755C14.1562 15.1501 14.0706 14.9299 13.912 14.7644C13.7526 14.5981 13.5318 14.5005 13.2968 14.5005H9.7031C9.46815 14.5005 9.24735 14.5981 9.08799 14.7644C8.92932 14.9299 8.84372 15.1501 8.84372 15.3755V21.7505C8.84372 21.8235 8.81573 21.8895 8.77221 21.9349C8.72939 21.9796 8.67596 22.0005 8.62497 22.0005H4.30798C4.06638 22.0005 3.83013 21.9005 3.65251 21.7152C3.47422 21.5292 3.37051 21.2725 3.37048 21.0006C3.37048 21.0006 3.37048 21.0005 3.37048 21.0005L3.37182 13.3101L11.5013 5.20638ZM3.37183 13.2628C3.37183 13.263 3.37183 13.2632 3.37183 13.2634L3.37183 13.2628Z" stroke="white"/>
<path d="M21.6998 11.7998L21.6999 11.7999C21.8075 11.9072 21.8033 12.0933 21.7202 12.1831L21.7201 12.1832C21.6779 12.2289 21.6247 12.2509 21.5738 12.2519C21.5229 12.253 21.4695 12.2332 21.4261 12.1898L21.4255 12.1892L12.1035 2.89503C11.9451 2.7369 11.7299 2.64488 11.5018 2.64488C11.2738 2.64488 11.0586 2.7369 10.9002 2.89503L1.5791 12.1892L1.5781 12.1902C1.55574 12.2126 1.5305 12.2288 1.5045 12.2391C1.47856 12.2492 1.45163 12.2536 1.42511 12.2523C1.39857 12.251 1.3718 12.2441 1.34629 12.2312L1.12168 12.6753L1.34628 12.2312C1.32071 12.2183 1.29638 12.1993 1.27556 12.1742L1.27475 12.1732C1.19719 12.0803 1.19568 11.9088 1.30517 11.798C1.30537 11.7978 1.30556 11.7976 1.30576 11.7974L10.8592 2.25978L10.8642 2.25475L10.8691 2.24957C11.0084 2.10237 11.2331 2.0014 11.5005 2.0014C11.7699 2.0014 11.9955 2.10281 12.1344 2.24943L12.1343 2.24956L12.1442 2.25942L14.746 4.85536L15.5992 5.70656V4.5014V3.0014C15.5992 2.9284 15.6272 2.86244 15.6707 2.81703C15.7135 2.77234 15.767 2.7514 15.8179 2.7514H17.9742C18.0252 2.7514 18.0786 2.77234 18.1214 2.81702C18.1649 2.86244 18.1929 2.9284 18.1929 3.0014V8.09156V8.29892L18.3397 8.44542L21.6998 11.7998Z" stroke="white"/>
</svg>
